<svg width="2192" height="2822" viewBox="0 0 2192 2822" fill="none" xmlns="http://www.w3.org/2000/svg">
<path d="M785.332 2097.53L996.072 1975.85L879.036 1908.29" stroke="#3874FF" stroke-width="2" stroke-linecap="round" stroke-linejoin="round"/>
<path d="M1347.27 2448.99L1557.98 2570.65L1124.83 2820.72L679.989 2563.88L890.689 2442.23" stroke="#3874FF" stroke-width="2" stroke-linecap="round" stroke-linejoin="round" stroke-dasharray="4 4"/>
<path d="M1464.34 1786.61L1382.38 1833.93L1499.45 1901.52L1405.79 1955.58L1533.47 2030.58L1217.36 2213.07" stroke="#3874FF" stroke-width="2" stroke-linecap="round" stroke-linejoin="round"/>
<path d="M1124.84 2131.31L1358.97 2266.47L1124.84 2401.67L890.702 2266.47L1124.84 2131.31Z" fill="#3874FF" stroke="#3874FF" stroke-width="2" stroke-linecap="round" stroke-linejoin="round"/>
<path d="M1183.37 2300.28C1215.56 2281.69 1215.56 2251.28 1183.37 2232.69C1151.18 2214.11 1098.5 2214.11 1066.31 2232.69C1034.12 2251.28 1034.12 2281.69 1066.31 2300.28C1098.5 2318.87 1151.18 2318.87 1183.37 2300.28Z" fill="#0A047A"/>
<path d="M1183.37 2300.28C1215.56 2281.69 1215.56 2251.28 1183.37 2232.69C1151.18 2214.11 1098.5 2214.11 1066.31 2232.69C1034.12 2251.28 1034.12 2281.69 1066.31 2300.28C1098.5 2318.87 1151.18 2318.87 1183.37 2300.28Z" stroke="#3874FF" stroke-width="2" stroke-linecap="round" stroke-linejoin="round"/>
<path d="M1124.84 2401.68V2685.83L890.704 2550.63L890.711 2266.47L1124.84 2401.68Z" fill="#FEC810" stroke="#3874FF" stroke-width="2" stroke-linecap="round" stroke-linejoin="round"/>
<path d="M1124.84 2401.68V2685.85L1358.97 2550.65L1358.97 2266.47L1124.84 2401.68Z" fill="#0A047A" stroke="#3874FF" stroke-width="2" stroke-linecap="round" stroke-linejoin="round"/>
<path d="M1142.39 2648.37C1145.61 2646.51 1148.24 2648.03 1148.24 2651.75C1148.13 2653.78 1147.54 2655.76 1146.52 2657.52C1145.51 2659.28 1144.09 2660.78 1142.39 2661.89C1139.17 2663.75 1136.53 2662.23 1136.53 2658.51C1136.65 2656.48 1137.24 2654.51 1138.25 2652.75C1139.27 2650.98 1140.69 2649.49 1142.39 2648.37V2648.37Z" stroke="#3874FF" stroke-width="2" stroke-linecap="round" stroke-linejoin="round"/>
<path d="M1341.41 2533.47C1344.63 2531.61 1347.27 2533.13 1347.27 2536.85C1347.16 2538.88 1346.57 2540.86 1345.55 2542.62C1344.53 2544.38 1343.12 2545.88 1341.41 2546.99C1338.19 2548.85 1335.56 2547.33 1335.56 2543.61C1335.67 2541.58 1336.26 2539.61 1337.28 2537.84C1338.3 2536.08 1339.71 2534.58 1341.41 2533.47V2533.47Z" stroke="#3874FF" stroke-width="2" stroke-linecap="round" stroke-linejoin="round"/>
<path d="M1142.39 2405.05C1145.61 2403.19 1148.24 2404.71 1148.24 2408.43C1148.13 2410.46 1147.54 2412.44 1146.52 2414.2C1145.51 2415.96 1144.09 2417.46 1142.39 2418.57C1139.17 2420.43 1136.53 2418.91 1136.53 2415.19C1136.65 2413.16 1137.24 2411.19 1138.25 2409.43C1139.27 2407.66 1140.69 2406.17 1142.39 2405.05V2405.05Z" stroke="#3874FF" stroke-width="2" stroke-linecap="round" stroke-linejoin="round"/>
<path d="M928.909 2381.4L932.682 2388.49L1030.55 2573.15L1037.04 2585.38L1063.2 2570.64C1079.43 2562.69 1089.62 2543.84 1089.62 2516.52C1089.62 2464.55 1052.79 2400.75 1007.78 2374.76C984.885 2361.52 964.105 2360.54 949.236 2369.57L948.96 2369.75L928.909 2381.4Z" fill="#0A047A" stroke="#3874FF" stroke-width="2" stroke-linecap="round" stroke-linejoin="round"/>
<path d="M1066.2 2530.04C1066.2 2478.06 1029.37 2414.27 984.352 2388.27C939.338 2362.28 902.507 2383.54 902.506 2435.52C902.504 2487.5 939.334 2551.3 984.349 2577.29C1029.36 2603.28 1066.2 2582.02 1066.2 2530.04Z" fill="#FF80ED" stroke="#3874FF" stroke-width="2" stroke-linecap="round" stroke-linejoin="round"/>
<path d="M1078.02 641.688C1070.56 641.679 1063.16 642.868 1056.08 645.21L1146.8 697.589C1143.5 681.787 1134.86 667.603 1122.34 657.422C1109.81 647.242 1094.16 641.685 1078.02 641.688V641.688Z" fill="#3874FF" stroke="#3874FF" stroke-width="2" stroke-linecap="round" stroke-linejoin="round"/>
<path d="M2026.25 1678.46L1277.01 1245.9L1277.01 1448.67L551.176 1029.64V894.459L761.923 772.774L1007.75 914.726L1007.79 563.247L1440.93 312.752L2026.4 651.112L2026.25 1678.46Z" fill="url(#paint0_linear)"/>
<path d="M1651.48 570.117L1545.77 509.081V563.247L1651.48 623.989V570.117Z" fill="#EFEEEA" stroke="#3874FF" stroke-width="2" stroke-linecap="round" stroke-linejoin="round"/>
<path d="M1651.47 570.118L1873.9 441.499L1768.54 380.669L1545.77 509.082L1651.47 570.118Z" fill="#3874FF" stroke="#3874FF" stroke-width="2" stroke-linecap="round" stroke-linejoin="round"/>
<path d="M1873.9 441.5V496.13L1651.47 623.989V570.118L1873.9 441.5Z" fill="#FF80ED" stroke="#3874FF" stroke-width="2" stroke-linecap="round" stroke-linejoin="round"/>
<path d="M1757.17 685.108L1651.47 624.072V678.237L1757.17 738.979V685.108Z" fill="#0A047A" stroke="#3874FF" stroke-width="2" stroke-linecap="round" stroke-linejoin="round"/>
<path d="M1757.18 685.108L1979.61 556.487L1874.25 495.66L1651.48 624.072L1757.18 685.108Z" fill="url(#paint1_linear)" stroke="#3874FF" stroke-width="2" stroke-linecap="round" stroke-linejoin="round"/>
<path d="M1979.61 556.487V611.121L1757.18 738.979V685.108L1979.61 556.487Z" fill="#3874FF" stroke="#3874FF" stroke-width="2" stroke-linecap="round" stroke-linejoin="round"/>
<path d="M1862.88 800.096L1757.18 739.06V793.225L1862.88 853.967V800.096Z" fill="#FF80ED" stroke="#3874FF" stroke-width="2" stroke-linecap="round" stroke-linejoin="round"/>
<path d="M1862.88 800.096L2085.31 671.477L1979.94 610.648L1757.17 739.06L1862.88 800.096Z" fill="#EFEEEA" stroke="#3874FF" stroke-width="2" stroke-linecap="round" stroke-linejoin="round"/>
<path d="M2085.31 671.477V726.108L1862.88 853.966V800.095L2085.31 671.477Z" fill="#0A047A" stroke="#3874FF" stroke-width="2" stroke-linecap="round" stroke-linejoin="round"/>
<path d="M1265.33 2117.8C1198.14 2117.8 1143.67 2063.33 1143.67 1996.14C1143.67 1928.95 1198.14 1874.48 1265.33 1874.48C1332.52 1874.48 1386.99 1928.95 1386.99 1996.14C1386.99 2063.33 1332.52 2117.8 1265.33 2117.8Z" fill="#FEC810" stroke="#3874FF" stroke-width="2" stroke-linecap="round" stroke-linejoin="round"/>
<path d="M410.697 1110.7V1436.87L753.301 1634.68L752.8 1308.22L410.697 1110.7Z" fill="#FF80ED" stroke="#3874FF" stroke-width="2" stroke-linecap="round" stroke-linejoin="round"/>
<path d="M1496.9 732.232H752.799" stroke="#3874FF" stroke-width="2" stroke-linecap="round" stroke-linejoin="round"/>
<path d="M752.799 732.232V1464.51C752.799 1519.63 789.001 1574.78 861.431 1616.59C1006.32 1700.24 1243.38 1700.24 1388.24 1616.59C1460.7 1574.75 1496.9 1519.63 1496.9 1464.51V732.232H752.799Z" fill="url(#paint2_linear)" stroke="#3874FF" stroke-width="2" stroke-linecap="round" stroke-linejoin="round"/>
<path d="M752.799 732.233C752.799 787.354 789.001 842.501 861.431 884.314C1006.32 967.965 1243.38 967.965 1388.24 884.314C1460.7 842.476 1496.9 787.354 1496.9 732.233C1496.9 677.111 1460.7 621.965 1388.27 580.152C1330.4 546.717 1257.82 526.665 1182.27 519.948C1144.06 516.577 1105.62 516.577 1067.4 519.948C1010.07 525.055 954.416 537.861 905.609 558.365L905.836 558.491L908.226 559.874L1056.08 645.211L1146.8 697.59L1306.28 789.669C1328.82 802.675 1326.18 825.494 1300.44 840.362C1274.68 855.231 1235.18 856.765 1212.64 843.759C1207.08 840.538 1172.11 820.362 1142.6 803.33L1137.72 800.512C1136.91 800.059 1136.13 799.581 1135.33 799.128L1130.7 796.461C1113.24 786.373 1099.96 778.7 1099.96 778.7C1099.96 778.7 826.512 620.229 816.549 615.071L814.084 613.662C773.227 649.412 752.799 690.823 752.799 732.233Z" fill="url(#paint3_linear)" stroke="#3874FF" stroke-width="2" stroke-linecap="round" stroke-linejoin="round"/>
<path d="M1212.64 843.758C1235.18 856.765 1274.68 855.23 1300.44 840.362C1326.18 825.494 1328.82 802.675 1306.28 789.668L905.611 558.364C905.611 558.364 921.996 615.071 866.729 643.778L1212.64 843.758Z" fill="#0A047A" stroke="#3874FF" stroke-width="2" stroke-linecap="round" stroke-linejoin="round"/>
<path d="M753.299 733.032C753.299 788.117 789.476 843.226 861.859 885.011C1006.65 968.605 1243.55 968.605 1388.32 885.011C1460.72 843.201 1496.9 788.117 1496.9 733.032" stroke="#3874FF" stroke-width="2" stroke-linecap="round" stroke-linejoin="round"/>
<path d="M752.799 807.114C752.799 862.236 789.001 917.382 861.431 959.195C1006.32 1042.85 1243.38 1042.85 1388.24 959.195C1460.7 917.357 1496.9 862.236 1496.9 807.114" stroke="#3874FF" stroke-width="2" stroke-linecap="round" stroke-linejoin="round"/>
<path d="M752.799 881.519C752.799 936.641 789.001 991.787 861.431 1033.6C1006.32 1117.25 1243.38 1117.25 1388.24 1033.6C1460.7 991.762 1496.9 936.641 1496.9 881.519" stroke="#3874FF" stroke-width="2" stroke-linecap="round" stroke-linejoin="round"/>
<path d="M752.799 955.925C752.799 1011.05 789.001 1066.19 861.431 1108.01C1006.32 1191.66 1243.38 1191.66 1388.24 1108.01C1460.7 1066.17 1496.9 1011.05 1496.9 955.925" stroke="#3874FF" stroke-width="2" stroke-linecap="round" stroke-linejoin="round"/>
<path d="M752.799 1030.33C752.799 1085.45 789.001 1140.6 861.431 1182.41C1006.32 1266.06 1243.38 1266.06 1388.24 1182.41C1460.7 1140.57 1496.9 1085.45 1496.9 1030.33" stroke="#3874FF" stroke-width="2" stroke-linecap="round" stroke-linejoin="round"/>
<path d="M752.799 1104.74C752.799 1159.86 789.001 1215 861.431 1256.82C1006.32 1340.47 1243.38 1340.47 1388.24 1256.82C1460.7 1214.98 1496.9 1159.86 1496.9 1104.74" stroke="#3874FF" stroke-width="2" stroke-linecap="round" stroke-linejoin="round"/>
<path d="M752.799 1179.14C752.799 1234.26 789.001 1289.41 861.431 1331.22C1006.32 1414.87 1243.38 1414.87 1388.24 1331.22C1460.7 1289.38 1496.9 1234.26 1496.9 1179.14" stroke="#3874FF" stroke-width="2" stroke-linecap="round" stroke-linejoin="round"/>
<path d="M752.799 1253.55C752.799 1308.67 789.001 1363.81 861.431 1405.63C1006.32 1489.28 1243.38 1489.28 1388.24 1405.63C1460.7 1363.79 1496.9 1308.67 1496.9 1253.55" stroke="#3874FF" stroke-width="2" stroke-linecap="round" stroke-linejoin="round"/>
<path d="M752.799 1327.95C752.799 1383.07 789.001 1438.22 861.431 1480.03C1006.32 1563.68 1243.38 1563.68 1388.24 1480.03C1460.7 1438.19 1496.9 1383.07 1496.9 1327.95" stroke="#3874FF" stroke-width="2" stroke-linecap="round" stroke-linejoin="round"/>
<path d="M752.799 1402.35C752.799 1457.48 789.001 1512.62 861.431 1554.44C1006.32 1638.09 1243.38 1638.09 1388.24 1554.44C1460.7 1512.6 1496.9 1457.48 1496.9 1402.35" stroke="#3874FF" stroke-width="2" stroke-linecap="round" stroke-linejoin="round"/>
<path d="M1171.85 630.844L1130.69 607.077V559.544L1171.85 583.311V630.844Z" fill="#EFEEEA" stroke="#3874FF" stroke-width="2" stroke-linecap="round" stroke-linejoin="round"/>
<path d="M1171.85 583.31L1892.23 167.396L1851.06 143.614L1130.69 559.543L1171.85 583.31Z" fill="#FF80ED" stroke="#3874FF" stroke-width="2" stroke-linecap="round" stroke-linejoin="round"/>
<path d="M1892.23 167.396V214.93L1171.85 630.845V583.311L1892.23 167.396Z" fill="#0A047A" stroke="#3874FF" stroke-width="2" stroke-linecap="round" stroke-linejoin="round"/>
<path d="M1871.64 345.641L1912.81 321.875V274.341L1871.64 298.108V345.641Z" fill="#FEC810" stroke="#3874FF" stroke-width="2" stroke-linecap="round" stroke-linejoin="round"/>
<path d="M1871.64 298.107L1480.6 72.3282L1521.77 48.5437L1912.81 274.341L1871.64 298.107Z" fill="#3874FF" stroke="#3874FF" stroke-width="2" stroke-linecap="round" stroke-linejoin="round"/>
<path d="M1480.6 72.3285V119.862L1871.64 345.642V298.108L1480.6 72.3285Z" fill="#EFEEEA" stroke="#3874FF" stroke-width="2" stroke-linecap="round" stroke-linejoin="round"/>
<path d="M1562.93 214.917L1521.76 191.15V143.616L1562.93 167.383V214.917Z" fill="#EFEEEA" stroke="#3874FF" stroke-width="2" stroke-linecap="round" stroke-linejoin="round"/>
<path d="M1562.92 167.383L1809.92 24.7845L1768.75 1L1521.76 143.616L1562.92 167.383Z" fill="#FF80ED" stroke="#3874FF" stroke-width="2" stroke-linecap="round" stroke-linejoin="round"/>
<path d="M1809.92 24.7848V72.3186L1562.92 214.917V167.384L1809.92 24.7848Z" fill="#FEC810" stroke="#3874FF" stroke-width="2" stroke-linecap="round" stroke-linejoin="round"/>
<path d="M1733.58 1360.82L1581.39 1272.95L668.27 1800.13L820.474 1887.99L1733.58 1360.82Z" fill="#0A047A" stroke="#3874FF" stroke-width="2" stroke-linecap="round" stroke-linejoin="round"/>
<path d="M1733.58 1360.82L1733.62 1428.39L820.468 1955.58L820.471 1887.99L1733.58 1360.82Z" fill="#FF80ED" stroke="#3874FF" stroke-width="2" stroke-linecap="round" stroke-linejoin="round"/>
<path d="M820.469 1955.58L668.279 1867.72L668.267 1800.13L820.471 1887.99L820.469 1955.58Z" fill="#FEC810" stroke="#3874FF" stroke-width="2" stroke-linecap="round" stroke-linejoin="round"/>
<path d="M410.713 1340.14L609.757 1455.05L410.713 1569.96L211.705 1455.05L410.713 1340.14Z" fill="url(#paint4_linear)" stroke="#3874FF" stroke-width="2" stroke-linecap="round" stroke-linejoin="round"/>
<path d="M410.711 1569.96V1813.65L609.722 1698.75V1455.05L410.711 1569.96Z" fill="#3874FF" stroke="#3874FF" stroke-width="2" stroke-linecap="round" stroke-linejoin="round"/>
<path d="M410.713 1569.96V1813.65L211.704 1698.75V1455.05L410.713 1569.96Z" fill="#FEC810" stroke="#3874FF" stroke-width="2" stroke-linecap="round" stroke-linejoin="round"/>
<path d="M246.817 1637.9V1719.01L375.501 1793.3V1712.27C375.017 1691.72 370.109 1671.52 361.111 1653.04C349.311 1627.86 331.273 1605.65 311.147 1594.02C275.774 1573.55 246.817 1593.29 246.817 1637.9Z" fill="#EFEEEA" stroke="#3874FF" stroke-width="2" stroke-linecap="round" stroke-linejoin="round"/>
<path d="M270.215 1705.51V1588.98" stroke="#3874FF" stroke-width="2" stroke-linecap="round" stroke-linejoin="round"/>
<path d="M294.002 1691.79V1587.22" stroke="#3874FF" stroke-width="2" stroke-linecap="round" stroke-linejoin="round"/>
<path d="M317.067 1678.47V1598.18" stroke="#3874FF" stroke-width="2" stroke-linecap="round" stroke-linejoin="round"/>
<path d="M246.817 1719.01L375.501 1793.3V1712.27C375.017 1691.72 370.109 1671.52 361.111 1653.04L246.817 1719.01Z" fill="url(#paint5_linear)" stroke="#3874FF" stroke-width="2" stroke-linecap="round" stroke-linejoin="round"/>
<path d="M211.702 1455.05L235.132 1468.94V1495.98L211.702 1482.46V1455.05Z" fill="#FF80ED" stroke="#3874FF" stroke-width="2" stroke-linecap="round" stroke-linejoin="round"/>
<path d="M340.491 1664.95V1619.95" stroke="#3874FF" stroke-width="2" stroke-linecap="round" stroke-linejoin="round"/>
<path d="M410.712 1435.15L562.901 1347.29L1347.27 1800.13L1195.06 1887.99L410.712 1435.15Z" fill="#FEC810" stroke="#3874FF" stroke-width="2" stroke-linecap="round" stroke-linejoin="round"/>
<path d="M410.711 1435.15V1502.75L1195.07 1955.58L1195.06 1887.99L410.711 1435.15Z" fill="#EFEEEA" stroke="#3874FF" stroke-width="2" stroke-linecap="round" stroke-linejoin="round"/>
<path d="M1195.07 1955.58L1347.26 1867.72L1347.27 1800.13L1195.06 1887.99L1195.07 1955.58Z" fill="#0A047A" stroke="#3874FF" stroke-width="2" stroke-linecap="round" stroke-linejoin="round"/>
<path d="M1323.86 1786.61L1171.67 1874.49" stroke="#3874FF" stroke-width="2" stroke-linecap="round" stroke-linejoin="round"/>
<path d="M1302.17 1774.08L1149.98 1861.96" stroke="#3874FF" stroke-width="2" stroke-linecap="round" stroke-linejoin="round"/>
<path d="M1280.48 1761.56L1128.29 1849.44" stroke="#3874FF" stroke-width="2" stroke-linecap="round" stroke-linejoin="round"/>
<path d="M1258.79 1749.04L1106.59 1836.91" stroke="#3874FF" stroke-width="2" stroke-linecap="round" stroke-linejoin="round"/>
<path d="M1237.09 1736.51L1084.9 1824.39" stroke="#3874FF" stroke-width="2" stroke-linecap="round" stroke-linejoin="round"/>
<path d="M1215.4 1723.99L1063.21 1811.86" stroke="#3874FF" stroke-width="2" stroke-linecap="round" stroke-linejoin="round"/>
<path d="M1193.71 1711.46L1041.51 1799.34" stroke="#3874FF" stroke-width="2" stroke-linecap="round" stroke-linejoin="round"/>
<path d="M1172.02 1698.94L1019.82 1786.82" stroke="#3874FF" stroke-width="2" stroke-linecap="round" stroke-linejoin="round"/>
<path d="M1150.33 1686.42L998.127 1774.29" stroke="#3874FF" stroke-width="2" stroke-linecap="round" stroke-linejoin="round"/>
<path d="M1128.64 1673.89L976.437 1761.77" stroke="#3874FF" stroke-width="2" stroke-linecap="round" stroke-linejoin="round"/>
<path d="M1106.94 1661.37L954.742 1749.24" stroke="#3874FF" stroke-width="2" stroke-linecap="round" stroke-linejoin="round"/>
<path d="M1085.26 1648.85L933.051 1736.72" stroke="#3874FF" stroke-width="2" stroke-linecap="round" stroke-linejoin="round"/>
<path d="M1063.56 1636.32L911.356 1724.2" stroke="#3874FF" stroke-width="2" stroke-linecap="round" stroke-linejoin="round"/>
<path d="M1041.87 1623.8L889.666 1711.67" stroke="#3874FF" stroke-width="2" stroke-linecap="round" stroke-linejoin="round"/>
<path d="M1020.18 1611.27L867.97 1699.15" stroke="#3874FF" stroke-width="2" stroke-linecap="round" stroke-linejoin="round"/>
<path d="M998.485 1598.75L846.276 1686.62" stroke="#3874FF" stroke-width="2" stroke-linecap="round" stroke-linejoin="round"/>
<path d="M976.795 1586.23L824.585 1674.1" stroke="#3874FF" stroke-width="2" stroke-linecap="round" stroke-linejoin="round"/>
<path d="M955.102 1573.7L802.89 1661.57" stroke="#3874FF" stroke-width="2" stroke-linecap="round" stroke-linejoin="round"/>
<path d="M933.413 1561.18L781.2 1649.05" stroke="#3874FF" stroke-width="2" stroke-linecap="round" stroke-linejoin="round"/>
<path d="M911.718 1548.65L759.504 1636.53" stroke="#3874FF" stroke-width="2" stroke-linecap="round" stroke-linejoin="round"/>
<path d="M890.029 1536.13L737.814 1624" stroke="#3874FF" stroke-width="2" stroke-linecap="round" stroke-linejoin="round"/>
<path d="M868.335 1523.61L716.119 1611.48" stroke="#3874FF" stroke-width="2" stroke-linecap="round" stroke-linejoin="round"/>
<path d="M846.646 1511.08L694.428 1598.95" stroke="#3874FF" stroke-width="2" stroke-linecap="round" stroke-linejoin="round"/>
<path d="M824.952 1498.56L672.733 1586.43" stroke="#3874FF" stroke-width="2" stroke-linecap="round" stroke-linejoin="round"/>
<path d="M803.263 1486.04L651.043 1573.91" stroke="#3874FF" stroke-width="2" stroke-linecap="round" stroke-linejoin="round"/>
<path d="M781.569 1473.51L629.348 1561.38" stroke="#3874FF" stroke-width="2" stroke-linecap="round" stroke-linejoin="round"/>
<path d="M759.88 1460.99L607.657 1548.86" stroke="#3874FF" stroke-width="2" stroke-linecap="round" stroke-linejoin="round"/>
<path d="M738.186 1448.46L585.962 1536.33" stroke="#3874FF" stroke-width="2" stroke-linecap="round" stroke-linejoin="round"/>
<path d="M716.497 1435.94L564.271 1523.81" stroke="#3874FF" stroke-width="2" stroke-linecap="round" stroke-linejoin="round"/>
<path d="M694.803 1423.42L542.577 1511.28" stroke="#3874FF" stroke-width="2" stroke-linecap="round" stroke-linejoin="round"/>
<path d="M673.109 1410.89L520.882 1498.76" stroke="#3874FF" stroke-width="2" stroke-linecap="round" stroke-linejoin="round"/>
<path d="M651.42 1398.37L499.191 1486.23" stroke="#3874FF" stroke-width="2" stroke-linecap="round" stroke-linejoin="round"/>
<path d="M629.726 1385.84L477.496 1473.71" stroke="#3874FF" stroke-width="2" stroke-linecap="round" stroke-linejoin="round"/>
<path d="M608.037 1373.32L455.805 1461.19" stroke="#3874FF" stroke-width="2" stroke-linecap="round" stroke-linejoin="round"/>
<path d="M586.343 1360.8L434.11 1448.66" stroke="#3874FF" stroke-width="2" stroke-linecap="round" stroke-linejoin="round"/>
<path d="M1429.21 1458.08C1390.41 1458.08 1358.96 1426.63 1358.96 1387.84C1358.96 1349.05 1390.41 1317.6 1429.21 1317.6C1468 1317.6 1499.45 1349.05 1499.45 1387.84C1499.45 1426.63 1468 1458.08 1429.21 1458.08Z" fill="url(#paint6_linear)" stroke="#3874FF" stroke-width="2" stroke-linecap="round" stroke-linejoin="round"/>
<path d="M1241.9 1566.22C1203.11 1566.22 1171.66 1534.77 1171.66 1495.97C1171.66 1457.18 1203.11 1425.73 1241.9 1425.73C1280.69 1425.73 1312.14 1457.18 1312.14 1495.97C1312.14 1534.77 1280.69 1566.22 1241.9 1566.22Z" fill="#FF80ED" stroke="#3874FF" stroke-width="2" stroke-linecap="round" stroke-linejoin="round"/>
<path d="M88.7929 2296.91C124.201 2276.46 182.14 2276.46 217.548 2296.91C252.956 2317.35 252.956 2350.81 217.548 2371.25C182.14 2391.7 124.201 2391.7 88.7929 2371.25C53.3851 2350.8 53.3853 2317.35 88.7929 2296.91Z" fill="#FF80ED" stroke="#3874FF" stroke-width="2" stroke-linecap="round" stroke-linejoin="round"/>
<path d="M147.329 2237.62C108.536 2237.62 77.0878 2206.17 77.0878 2167.38C77.0878 2128.59 108.536 2097.14 147.329 2097.14C186.122 2097.14 217.57 2128.59 217.57 2167.38C217.57 2206.17 186.122 2237.62 147.329 2237.62Z" fill="#3874FF" stroke="#3874FF" stroke-width="2" stroke-linecap="round" stroke-linejoin="round"/>
<path d="M410.699 1110.71L752.8 1308.23V913.22L410.699 1110.71Z" fill="url(#paint7_linear)" stroke="#3874FF" stroke-width="2" stroke-linecap="round" stroke-linejoin="round"/>
<path d="M422.473 1009.36L422.512 853.945C422.513 847.771 424.138 841.705 427.222 836.357C430.307 831.009 434.743 826.565 440.087 823.472L469.27 806.576L551.176 853.866L504.42 989.075L504.378 1056.65L422.473 1009.36Z" fill="#FEC810" stroke="#3874FF" stroke-width="2" stroke-linecap="round" stroke-linejoin="round"/>
<path d="M551.176 1029.64V853.866L521.992 870.761C516.649 873.854 512.213 878.298 509.128 883.646C506.043 888.995 504.419 895.06 504.417 901.234L504.379 1056.65" fill="#3874FF"/>
<path d="M551.176 1029.64V853.866L521.992 870.761C516.649 873.854 512.213 878.298 509.128 883.646C506.043 888.995 504.419 895.06 504.417 901.234L504.379 1056.65" stroke="#3874FF" stroke-width="2" stroke-linecap="round" stroke-linejoin="round"/>
<path d="M375.64 1036.39L375.679 880.976C375.68 874.802 377.305 868.737 380.389 863.389C383.474 858.04 387.91 853.596 393.254 850.503L422.437 833.608L504.343 880.897L457.588 1016.11L457.545 1083.68L375.64 1036.39Z" fill="#FF80ED" stroke="#3874FF" stroke-width="2" stroke-linecap="round" stroke-linejoin="round"/>
<path d="M504.343 1056.67V880.897L475.16 897.793C469.817 900.886 465.38 905.33 462.296 910.678C459.211 916.027 457.586 922.092 457.585 928.266L457.546 1083.68" fill="#0A047A"/>
<path d="M504.343 1056.67V880.897L475.16 897.793C469.817 900.886 465.38 905.33 462.296 910.678C459.211 916.027 457.586 922.092 457.585 928.266L457.546 1083.68" stroke="#3874FF" stroke-width="2" stroke-linecap="round" stroke-linejoin="round"/>
<path d="M328.788 1387.84L328.827 907.999C328.829 901.825 330.453 895.76 333.538 890.411C336.623 885.063 341.059 880.619 346.402 877.526L375.586 860.631L457.491 907.92L410.736 1043.13L410.693 1340.92L328.788 1387.84Z" fill="#EFEEEA" stroke="#3874FF" stroke-width="2" stroke-linecap="round" stroke-linejoin="round"/>
<path d="M457.496 1083.69V907.92L428.313 924.816C422.969 927.909 418.533 932.353 415.448 937.701C412.364 943.049 410.739 949.115 410.738 955.289L410.699 1110.7" fill="#FEC810"/>
<path d="M457.496 1083.69V907.92L428.313 924.816C422.969 927.909 418.533 932.353 415.448 937.701C412.364 943.049 410.739 949.115 410.738 955.289L410.699 1110.7" stroke="#3874FF" stroke-width="2" stroke-linecap="round" stroke-linejoin="round"/>
<path d="M410.71 1070.12L457.57 1043.1L609.664 1131L562.98 1158.04L410.71 1070.12Z" fill="#FEC810" stroke="#3874FF" stroke-width="2" stroke-linecap="round" stroke-linejoin="round"/>
<path d="M410.714 1070.12V1110.71L562.91 1198.55L562.983 1158.04L410.714 1070.12Z" fill="#3874FF" stroke="#3874FF" stroke-width="2" stroke-linecap="round" stroke-linejoin="round"/>
<path d="M609.722 1131.02V1171.58L562.946 1198.57V1158.02L609.722 1131.02Z" fill="#0A047A" stroke="#3874FF" stroke-width="2" stroke-linecap="round" stroke-linejoin="round"/>
<path d="M539.395 1130.98C539.395 1130.98 463.965 1087.38 457.528 1083.66C451.091 1079.94 451.088 1073.85 457.522 1070.13C461.15 1068.3 465.159 1067.34 469.224 1067.34C473.289 1067.34 477.298 1068.3 480.925 1070.14C487.363 1073.86 562.919 1117.44 562.919 1117.44L539.395 1130.98Z" fill="#0A047A" stroke="#3874FF" stroke-width="2" stroke-linecap="round" stroke-linejoin="round"/>
<path d="M534.608 1123.7V1097.17L567.622 1097.18V1124.22C567.493 1125.68 566.978 1127.07 566.13 1128.26C565.282 1129.45 564.132 1130.39 562.798 1130.99C559.17 1132.82 555.162 1133.78 551.096 1133.77C547.031 1133.77 543.023 1132.82 539.396 1130.98C537.973 1130.37 536.761 1129.35 535.91 1128.06C535.059 1126.76 534.607 1125.25 534.608 1123.7V1123.7Z" fill="#FEC810" stroke="#3874FF" stroke-width="2" stroke-linecap="round" stroke-linejoin="round"/>
<path d="M539.389 1090.42C543.017 1088.58 547.026 1087.63 551.091 1087.63C555.156 1087.63 559.164 1088.59 562.792 1090.42C569.229 1094.14 569.232 1100.23 562.798 1103.95C559.169 1105.78 555.161 1106.74 551.096 1106.74C547.031 1106.73 543.023 1105.78 539.395 1103.94C532.958 1100.22 532.955 1094.14 539.389 1090.42Z" fill="#EFEEEA" stroke="#3874FF" stroke-width="2" stroke-linecap="round" stroke-linejoin="round"/>
<path d="M410.713 1921.62V2165.29L211.704 2050.4V1806.7L410.713 1921.62Z" fill="#FEC810" stroke="#3874FF" stroke-width="2" stroke-linecap="round" stroke-linejoin="round"/>
<path d="M94.6587 735.525L59.5202 715.26V755.812L94.6587 776.092V735.525Z" fill="#FEC810" stroke="#3874FF" stroke-width="2" stroke-linecap="round" stroke-linejoin="round"/>
<path d="M246.855 674.714L106.364 593.6" stroke="#3874FF" stroke-width="2" stroke-linecap="round" stroke-linejoin="round"/>
<path d="M387.305 526L59.5223 715.26L94.6608 735.525L422.471 546.303L387.305 526Z" fill="#FF80ED" stroke="#3874FF" stroke-width="2" stroke-linecap="round" stroke-linejoin="round"/>
<path d="M422.471 546.302V586.829L94.6608 776.091V735.524L422.471 546.302Z" fill="#EFEEEA" stroke="#3874FF" stroke-width="2" stroke-linecap="round" stroke-linejoin="round"/>
<path d="M71.2518 803.119L246.855 904.501L211.717 924.768L36.0833 823.421L71.2518 803.119Z" fill="#0A047A" stroke="#3874FF" stroke-width="2" stroke-linecap="round" stroke-linejoin="round"/>
<path d="M211.717 924.768L246.855 904.501V945.053L211.717 965.336V924.768Z" fill="#FEC810" stroke="#3874FF" stroke-width="2" stroke-linecap="round" stroke-linejoin="round"/>
<path d="M36.084 823.421V863.948L211.718 965.335V924.768L36.084 823.421Z" fill="#FF80ED" stroke="#3874FF" stroke-width="2" stroke-linecap="round" stroke-linejoin="round"/>
<path d="M410.713 1691.79L609.757 1806.7L410.713 1921.62L211.705 1806.7L410.713 1691.79Z" fill="#EFEEEA" stroke="#3874FF" stroke-width="2" stroke-linecap="round" stroke-linejoin="round"/>
<path d="M410.711 1921.62V2165.29L609.722 2050.4V1806.7L410.711 1921.62Z" fill="#FF80ED" stroke="#3874FF" stroke-width="2" stroke-linecap="round" stroke-linejoin="round"/>
<path d="M375.491 1941.95L246.925 1867.71V2030.06L375.491 2104.29V1941.95Z" fill="url(#paint8_linear)" stroke="#3874FF" stroke-width="2" stroke-linecap="round" stroke-linejoin="round"/>
<path d="M410.696 2056.99L609.722 1942.05L808.791 2056.99H410.696Z" fill="url(#paint9_linear)" stroke="#3874FF" stroke-width="2" stroke-linecap="round" stroke-linejoin="round"/>
<path d="M410.711 2056.99H808.791V2165.3H410.711V2056.99Z" fill="#EFEEEA" stroke="#3874FF" stroke-width="2" stroke-linecap="round" stroke-linejoin="round"/>
<path d="M609.75 2090.8V2131.33L753.327 2131.35C758.698 2131.35 763.849 2129.22 767.647 2125.42C771.445 2121.62 773.579 2116.47 773.58 2111.1V2111.02C773.579 2108.37 773.054 2105.73 772.036 2103.28C771.017 2100.82 769.525 2098.59 767.644 2096.71C765.764 2094.84 763.531 2093.35 761.075 2092.33C758.618 2091.32 755.985 2090.79 753.327 2090.8H609.75Z" fill="#3874FF" stroke="#3874FF" stroke-width="2" stroke-linecap="round" stroke-linejoin="round"/>
<path d="M445.947 2111.02C445.944 2113.68 446.465 2116.31 447.48 2118.77C448.495 2121.23 449.984 2123.46 451.863 2125.34C453.741 2127.22 455.972 2128.72 458.428 2129.73C460.884 2130.75 463.516 2131.28 466.175 2131.28L609.752 2131.33V2090.8H466.175C460.81 2090.8 455.665 2092.93 451.872 2096.72C448.078 2100.51 445.947 2105.66 445.947 2111.02Z" fill="#FF80ED" stroke="#3874FF" stroke-width="2" stroke-linecap="round" stroke-linejoin="round"/>
<path d="M246.925 2030.07L375.491 1955.65V2104.29L246.925 2030.07Z" fill="#EFEEEA" stroke="#3874FF" stroke-width="2" stroke-linecap="round" stroke-linejoin="round"/>
<path d="M375.614 2077.25L270.238 2016.41" stroke="#3874FF" stroke-width="2" stroke-linecap="round" stroke-linejoin="round"/>
<path d="M293.655 2003.02L375.491 2050.28" stroke="#3874FF" stroke-width="2" stroke-linecap="round" stroke-linejoin="round"/>
<path d="M317.229 1989.37L375.491 2023.24" stroke="#3874FF" stroke-width="2" stroke-linecap="round" stroke-linejoin="round"/>
<path d="M340.584 1975.86L375.491 1996.21" stroke="#3874FF" stroke-width="2" stroke-linecap="round" stroke-linejoin="round"/>
<path d="M404.848 1904.91C406.664 1905.83 408.67 1906.3 410.705 1906.3C412.74 1906.3 414.746 1905.82 416.561 1904.91C419.788 1903.04 419.798 1900 416.583 1898.13C414.767 1897.22 412.761 1896.74 410.726 1896.74C408.692 1896.74 406.686 1897.22 404.87 1898.14C401.642 1900 401.632 1903.05 404.848 1904.91Z" stroke="#3874FF" stroke-width="2" stroke-linecap="round" stroke-linejoin="round"/>
<path d="M252.515 1810.17C250.708 1811.11 248.702 1811.6 246.665 1811.6C244.628 1811.6 242.621 1811.11 240.814 1810.17C237.511 1808.26 237.535 1805.21 240.867 1803.39C242.686 1802.49 244.688 1802.02 246.717 1802.02C248.746 1802.02 250.748 1802.49 252.568 1803.39C255.671 1805.21 255.647 1808.26 252.515 1810.17Z" stroke="#3874FF" stroke-width="2" stroke-linecap="round" stroke-linejoin="round"/>
<path d="M580.632 1810.17C578.825 1811.11 576.819 1811.6 574.782 1811.6C572.745 1811.6 570.738 1811.11 568.931 1810.17C565.628 1808.26 565.652 1805.21 568.984 1803.39C570.803 1802.49 572.805 1802.02 574.834 1802.02C576.863 1802.02 578.865 1802.49 580.685 1803.39C583.788 1805.21 583.764 1808.26 580.632 1810.17Z" stroke="#3874FF" stroke-width="2" stroke-linecap="round" stroke-linejoin="round"/>
<path d="M416.736 1715.58C414.929 1716.52 412.923 1717.01 410.886 1717.01C408.849 1717.01 406.842 1716.52 405.035 1715.58C401.732 1713.67 401.756 1710.62 405.088 1708.8C406.907 1707.9 408.909 1707.43 410.938 1707.43C412.967 1707.43 414.969 1707.9 416.788 1708.8C419.892 1710.62 419.867 1713.67 416.736 1715.58Z" stroke="#3874FF" stroke-width="2" stroke-linecap="round" stroke-linejoin="round"/>
<path d="M752.8 967.3L598.042 1056.66L726.763 1131.02L621.454 1191.82L586.318 1171.55" stroke="#3874FF" stroke-width="2" stroke-linecap="round" stroke-linejoin="round"/>
<path d="M1124.84 2147.49C1086.05 2147.49 1054.6 2116.04 1054.6 2077.25C1054.6 2038.45 1086.05 2007.01 1124.84 2007.01C1163.63 2007.01 1195.08 2038.45 1195.08 2077.25C1195.08 2116.04 1163.63 2147.49 1124.84 2147.49Z" fill="#EFEEEA" stroke="#3874FF" stroke-width="2" stroke-linecap="round" stroke-linejoin="round"/>
<path d="M1412.02 1733.28C1415.82 1728.73 1420.23 1724.72 1425.14 1721.39C1427.09 1720.06 1429.17 1718.76 1431.35 1717.49C1450.13 1706.8 1474.8 1701.44 1499.46 1701.41C1524.13 1701.44 1548.79 1706.8 1567.57 1717.49C1569.75 1718.76 1571.83 1720.06 1573.78 1721.39C1578.69 1724.72 1583.11 1728.73 1586.91 1733.28H1596.04V1756.88C1595.93 1764.39 1593.49 1771.68 1589.05 1777.74C1583.46 1785.31 1576.27 1791.57 1568 1796.07C1549.18 1806.95 1524.32 1812.38 1499.46 1812.38C1474.6 1812.38 1449.74 1806.95 1430.93 1796.07C1422.66 1791.57 1415.47 1785.31 1409.87 1777.74C1405.44 1771.68 1403 1764.39 1402.88 1756.88V1733.28H1412.02Z" fill="#3874FF" stroke="#3874FF" stroke-width="2" stroke-linecap="round" stroke-linejoin="round"/>
<path d="M1431.35 1693.87C1436.97 1690.65 1448.64 1683.54 1455.17 1681.26C1455.22 1681.25 1455.28 1681.23 1455.33 1681.2C1469.47 1676.5 1484.34 1674.34 1499.23 1674.83H1499.69C1514.58 1674.34 1529.44 1676.5 1543.59 1681.2C1543.64 1681.23 1543.69 1681.25 1543.75 1681.26C1550.28 1683.54 1561.95 1690.65 1567.57 1693.87C1586.55 1704.69 1596.03 1718.99 1596.03 1733.29C1596.03 1747.46 1586.71 1761.66 1567.99 1772.44C1549.24 1783.27 1524.48 1788.69 1499.68 1788.72H1499.23C1474.44 1788.69 1449.67 1783.27 1430.92 1772.44C1412.21 1761.66 1402.88 1747.46 1402.88 1733.29C1402.88 1718.99 1412.37 1704.69 1431.35 1693.87Z" fill="#FEC810" stroke="#3874FF" stroke-width="2" stroke-linecap="round" stroke-linejoin="round"/>
<path d="M1446.65 1685.45C1449.41 1683.89 1452.25 1682.49 1455.17 1681.26C1455.22 1681.25 1455.28 1681.22 1455.33 1681.19C1483.73 1670.23 1515.19 1670.23 1543.59 1681.19C1543.64 1681.22 1543.69 1681.25 1543.75 1681.26C1546.66 1682.49 1549.51 1683.89 1552.26 1685.45C1569.36 1695.2 1576.54 1708.59 1573.77 1721.39C1571.83 1730.52 1564.74 1739.39 1552.62 1746.38C1538.03 1754.8 1518.73 1759.02 1499.46 1759.02C1480.19 1759.02 1460.88 1754.8 1446.29 1746.38C1434.17 1739.39 1427.09 1730.52 1425.14 1721.39C1422.38 1708.59 1429.56 1695.2 1446.65 1685.45Z" fill="#EFEEEA" stroke="#3874FF" stroke-width="2" stroke-linecap="round" stroke-linejoin="round"/>
<path d="M258.536 1779.86L457.568 1894.75V2029.97L480.965 2043.45L633.033 1955.65" stroke="#3874FF" stroke-width="2" stroke-linecap="round" stroke-linejoin="round"/>
<path d="M457.56 1141.14V1367.56L305.363 1455.43L258.547 1428.39" stroke="#3874FF" stroke-width="2" stroke-linecap="round" stroke-linejoin="round"/>
<path d="M281.605 1766.34L200.05 1719.05L223.462 1705.49" stroke="#3874FF" stroke-width="2" stroke-linecap="round" stroke-linejoin="round"/>
<path d="M2026.16 1097.25V1151.33" stroke="#3874FF" stroke-width="2" stroke-linecap="round" stroke-linejoin="round"/>
<path d="M2026.43 1250.54C1994 1250.54 1967.72 1224.25 1967.72 1191.82C1967.72 1159.4 1994 1133.11 2026.43 1133.11C2058.86 1133.11 2085.14 1159.4 2085.14 1191.82C2085.14 1224.25 2058.86 1250.54 2026.43 1250.54Z" fill="#FF80ED" stroke="#3874FF" stroke-width="2" stroke-linecap="round" stroke-linejoin="round"/>
<path d="M2026.16 1097.25L2108.11 1144.53L2026.43 1191.95L1944.59 1144.7L2026.16 1097.25Z" stroke="#3874FF" stroke-width="2" stroke-linecap="round" stroke-linejoin="round"/>
<path d="M2108.11 1144.53V1239.14L2026.43 1286.45L1944.75 1239.14V1144.53" stroke="#3874FF" stroke-width="2" stroke-linecap="round" stroke-linejoin="round"/>
<path d="M2026.43 1191.95V1286.45" stroke="#3874FF" stroke-width="2" stroke-linecap="round" stroke-linejoin="round"/>
<path d="M73.865 251.36C25.5705 223.485 25.5666 177.87 73.8564 149.992C122.146 122.114 201.17 122.114 249.465 149.992C297.76 177.87 297.763 223.486 249.473 251.36C201.183 279.235 122.16 279.235 73.865 251.36Z" stroke="#3874FF" stroke-width="2" stroke-linecap="round" stroke-linejoin="round" stroke-dasharray="4 4"/>
<path d="M161.667 372.282C122.874 372.282 91.4261 340.834 91.4261 302.041C91.4261 263.248 122.874 231.8 161.667 231.8C200.46 231.8 231.908 263.248 231.908 302.041C231.908 340.834 200.46 372.282 161.667 372.282Z" fill="#FF80ED" stroke="#3874FF" stroke-width="2" stroke-linecap="round" stroke-linejoin="round"/>
<path d="M1938.26 1884.5C1986.55 1912.37 2057.76 1916.99 2096.5 1894.75C2135.24 1872.51 2127.43 1831.51 2079.14 1803.63C2030.85 1775.75 1959.64 1771.13 1920.89 1793.37C1882.15 1815.61 1889.96 1856.62 1938.26 1884.5Z" stroke="#3874FF" stroke-width="2" stroke-linecap="round" stroke-linejoin="round" stroke-dasharray="4 4"/>
<path d="M2073.09 1394.6L1850.63 1523.03V1685.23L2073.09 1556.8V1394.6Z" stroke="#3874FF" stroke-width="2" stroke-linecap="round" stroke-linejoin="round"/>
<path d="M1967.71 1536.54L2131.61 1631.15" stroke="#3874FF" stroke-width="2" stroke-linecap="round" stroke-linejoin="round" stroke-dasharray="4 4"/>
<path d="M328.737 1131.02L324.38 1133.54" stroke="#3874FF" stroke-width="2" stroke-linecap="round" stroke-linejoin="round"/>
<path d="M315.873 1138.45L150.07 1234.17" stroke="#3874FF" stroke-width="2" stroke-linecap="round" stroke-linejoin="round" stroke-dasharray="3.9 3.9"/>
<path d="M145.82 1236.62L141.463 1239.14V1244.17" stroke="#3874FF" stroke-width="2" stroke-linecap="round" stroke-linejoin="round"/>
<path d="M141.462 1253.91V1404.97" stroke="#3874FF" stroke-width="2" stroke-linecap="round" stroke-linejoin="round" stroke-dasharray="3.87 3.87"/>
<path d="M141.463 1409.85V1414.88L145.82 1412.36" stroke="#3874FF" stroke-width="2" stroke-linecap="round" stroke-linejoin="round"/>
<path d="M154.327 1407.45L320.188 1311.69" stroke="#3874FF" stroke-width="2" stroke-linecap="round" stroke-linejoin="round" stroke-dasharray="3.9 3.9"/>
<path d="M324.439 1309.23L328.796 1306.72" stroke="#3874FF" stroke-width="2" stroke-linecap="round" stroke-linejoin="round"/>
<path d="M270.25 1259.42L0.999978 1414.88" stroke="#3874FF" stroke-width="2" stroke-linecap="round" stroke-linejoin="round"/>
<path d="M1136.56 1678.46L1710.14 1347.28" stroke="#3874FF" stroke-width="2" stroke-linecap="round" stroke-linejoin="round"/>
<path d="M703.385 1779.85L832.175 1854.2L924.976 1799.65" stroke="#3874FF" stroke-width="2" stroke-linecap="round" stroke-linejoin="round"/>
<path d="M562.882 536.226C562.882 618.015 620.846 651.45 691.692 610.568C762.512 569.661 820.476 469.28 820.476 387.491C820.476 305.727 762.512 272.267 691.692 313.174C670.196 326.027 650.969 342.339 634.784 361.452C603.706 397.347 581.331 439.929 569.398 485.884C565.209 502.342 563.021 519.244 562.882 536.226V536.226Z" fill="#0A047A" stroke="#3874FF" stroke-width="2" stroke-linecap="round" stroke-linejoin="round"/>
<path d="M750.23 579.417C711.437 579.417 679.989 547.969 679.989 509.176C679.989 470.383 711.437 438.935 750.23 438.935C789.023 438.935 820.471 470.383 820.471 509.176C820.471 547.969 789.023 579.417 750.23 579.417Z" fill="#FEC810" stroke="#3874FF" stroke-width="2" stroke-linecap="round" stroke-linejoin="round"/>
<path d="M1007.75 711.955C1007.74 716.782 1008.24 721.596 1009.23 726.32L1099.95 778.699C1114.01 774.083 1126.26 765.145 1134.94 753.159C1143.61 741.173 1148.29 726.753 1148.28 711.955C1148.29 707.128 1147.79 702.313 1146.8 697.589C1143.24 680.571 1133.51 665.475 1119.47 655.219C1105.43 644.962 1088.09 640.275 1070.8 642.061C1053.5 643.848 1037.49 651.982 1025.84 664.891C1014.2 677.801 1007.75 694.569 1007.75 711.955V711.955Z" fill="url(#paint10_linear)" stroke="#3874FF" stroke-width="2" stroke-linecap="round" stroke-linejoin="round"/>
<path d="M598.359 2165.3L890.698 2334.06" stroke="#3874FF" stroke-width="2" stroke-linecap="round" stroke-linejoin="round"/>
<path d="M1277.04 2205.66L1768.72 2489.53L1733.58 2509.8L1241.87 2225.96L1277.04 2205.66Z" fill="url(#paint11_linear)" stroke="#3874FF" stroke-width="2" stroke-linecap="round" stroke-linejoin="round"/>
<path d="M1733.58 2509.8L1768.72 2489.53V2530.09L1733.58 2550.37V2509.8Z" fill="#FF80ED" stroke="#3874FF" stroke-width="2" stroke-linecap="round" stroke-linejoin="round"/>
<path d="M1241.87 2225.96V2266.49L1733.58 2550.37V2509.8L1241.87 2225.96Z" fill="#EFEEEA" stroke="#3874FF" stroke-width="2" stroke-linecap="round" stroke-linejoin="round"/>
<path d="M1557.96 2151.59L1230.21 2340.84L1265.35 2361.11L1593.13 2171.89L1557.96 2151.59Z" fill="#FEC810" stroke="#3874FF" stroke-width="2" stroke-linecap="round" stroke-linejoin="round"/>
<path d="M1265.34 2361.11L1230.2 2340.84V2381.39L1265.34 2401.67V2361.11Z" fill="#EFEEEA" stroke="#3874FF" stroke-width="2" stroke-linecap="round" stroke-linejoin="round"/>
<path d="M1593.13 2171.89V2212.42L1265.35 2401.67V2361.11L1593.13 2171.89Z" fill="#FF80ED" stroke="#3874FF" stroke-width="2" stroke-linecap="round" stroke-linejoin="round"/>
<path d="M1513.97 2340.84L1676.27 2247.12" stroke="#3874FF" stroke-width="2" stroke-linecap="round" stroke-linejoin="round"/>
<path d="M1967.71 766.021L2190.16 894.44" stroke="#3874FF" stroke-width="2" stroke-linecap="round" stroke-linejoin="round" stroke-dasharray="4 4"/>
<path d="M1605.18 1056.29C1619.79 1064.55 1635.41 1070.88 1651.65 1075.14C1697.7 1087.1 1746.04 1087.17 1792.13 1075.34C1808.62 1071.08 1824.48 1064.67 1839.3 1056.29C1903.68 1019.14 1903.68 958.303 1839.28 921.144C1774.9 883.986 1669.54 883.986 1605.16 921.144C1540.78 958.303 1540.8 1019.14 1605.18 1056.29Z" fill="#0A047A" stroke="#3874FF" stroke-width="2" stroke-linecap="round" stroke-linejoin="round"/>
<path d="M1651.65 1075.14V2143.5C1697.72 2155.43 1746.07 2155.43 1792.14 2143.5V1075.34C1746.05 1087.17 1697.71 1087.1 1651.65 1075.14V1075.14Z" fill="url(#paint12_linear)" stroke="#3874FF" stroke-width="2" stroke-linecap="round" stroke-linejoin="round"/>
<path d="M1838.95 1989.41C1824.23 1981.1 1808.49 1974.74 1792.13 1970.46V2143.5C1808.49 2139.24 1824.23 2132.87 1838.95 2124.56C1903.33 2087.4 1903.33 2026.59 1838.95 1989.41Z" fill="#0A047A" stroke="#3874FF" stroke-width="2" stroke-linecap="round" stroke-linejoin="round"/>
<path d="M1721.89 1883.88C1683.1 1883.88 1651.65 1852.44 1651.65 1813.64C1651.65 1774.85 1683.1 1743.4 1721.89 1743.4C1760.68 1743.4 1792.13 1774.85 1792.13 1813.64C1792.13 1852.44 1760.68 1883.88 1721.89 1883.88Z" fill="#FEC810" stroke="#3874FF" stroke-width="2" stroke-linecap="round" stroke-linejoin="round"/>
<path d="M1721.89 1276.02C1683.1 1276.02 1651.65 1244.57 1651.65 1205.78C1651.65 1166.99 1683.1 1135.54 1721.89 1135.54C1760.68 1135.54 1792.13 1166.99 1792.13 1205.78C1792.13 1244.57 1760.68 1276.02 1721.89 1276.02Z" fill="#EFEEEA" stroke="#3874FF" stroke-width="2" stroke-linecap="round" stroke-linejoin="round"/>
<path d="M1604.83 2124.56C1619.55 2132.87 1635.29 2139.24 1651.65 2143.5V1970.46C1635.29 1974.74 1619.55 1981.1 1604.83 1989.41C1540.45 2026.59 1540.45 2087.4 1604.83 2124.56Z" fill="#0A047A" stroke="#3874FF" stroke-width="2" stroke-linecap="round" stroke-linejoin="round"/>
<defs>
<linearGradient id="paint0_linear" x1="1373.78" y1="171.852" x2="1371.26" y2="2307.78" gradientUnits="userSpaceOnUse">
<stop stop-color="#0A047A"/>
<stop offset="1" stop-color="#3874FF"/>
</linearGradient>
<linearGradient id="paint1_linear" x1="1770.72" y1="512.074" x2="1846.59" y2="644.454" gradientUnits="userSpaceOnUse">
<stop stop-color="#3874FF"/>
<stop offset="0.2333" stop-color="#7378FA"/>
<stop offset="0.4973" stop-color="#AF7BF4"/>
<stop offset="0.7226" stop-color="#DA7EF0"/>
<stop offset="0.8972" stop-color="#F57FEE"/>
<stop offset="1" stop-color="#FF80ED"/>
</linearGradient>
<linearGradient id="paint2_linear" x1="637" y1="680" x2="1336.5" y2="1572.5" gradientUnits="userSpaceOnUse">
<stop stop-color="#EFEEEA"/>
<stop offset="1" stop-color="#3874FF"/>
</linearGradient>
<linearGradient id="paint3_linear" x1="1099.07" y1="401.747" x2="1159.38" y2="1174.88" gradientUnits="userSpaceOnUse">
<stop stop-color="#0A047A"/>
<stop offset="0.022" stop-color="#0B077E"/>
<stop offset="0.4744" stop-color="#2341C3"/>
<stop offset="0.8008" stop-color="#3266EE"/>
<stop offset="0.9663" stop-color="#3874FF"/>
</linearGradient>
<linearGradient id="paint4_linear" x1="-623588" y1="150775" x2="-632412" y2="122646" gradientUnits="userSpaceOnUse">
<stop offset="0.1668" stop-color="#FEC810"/>
<stop offset="1" stop-color="#FF80ED"/>
</linearGradient>
<linearGradient id="paint5_linear" x1="375.501" y1="1723.17" x2="246.817" y2="1723.17" gradientUnits="userSpaceOnUse">
<stop offset="0.2167" stop-color="#0A047A"/>
<stop offset="0.2858" stop-color="#12087E"/>
<stop offset="0.3928" stop-color="#281388"/>
<stop offset="0.5243" stop-color="#4B2599"/>
<stop offset="0.6753" stop-color="#7D3EB0"/>
<stop offset="0.8403" stop-color="#BC5ECD"/>
<stop offset="1" stop-color="#FF80ED"/>
</linearGradient>
<linearGradient id="paint6_linear" x1="-163546" y1="75741.1" x2="-175716" y2="86534" gradientUnits="userSpaceOnUse">
<stop offset="0.2028" stop-color="#FEC810"/>
<stop offset="0.2564" stop-color="#F2C31E"/>
<stop offset="0.358" stop-color="#D3B643"/>
<stop offset="0.497" stop-color="#A1A180"/>
<stop offset="0.6662" stop-color="#5D84D2"/>
<stop offset="0.7528" stop-color="#3874FF"/>
</linearGradient>
<linearGradient id="paint7_linear" x1="976.487" y1="1326.18" x2="462.435" y2="916.992" gradientUnits="userSpaceOnUse">
<stop offset="0.4475" stop-color="#0A047A"/>
<stop offset="0.4594" stop-color="#0B077E"/>
<stop offset="0.7022" stop-color="#2341C3"/>
<stop offset="0.8774" stop-color="#3266EE"/>
<stop offset="0.9663" stop-color="#3874FF"/>
</linearGradient>
<linearGradient id="paint8_linear" x1="-212667" y1="161969" x2="-203970" y2="209984" gradientUnits="userSpaceOnUse">
<stop offset="0.2167" stop-color="#0A047A"/>
<stop offset="0.2858" stop-color="#12087E"/>
<stop offset="0.3928" stop-color="#281388"/>
<stop offset="0.5243" stop-color="#4B2599"/>
<stop offset="0.6753" stop-color="#7D3EB0"/>
<stop offset="0.8403" stop-color="#BC5ECD"/>
<stop offset="1" stop-color="#FF80ED"/>
</linearGradient>
<linearGradient id="paint9_linear" x1="-634571" y1="86214" x2="-629740" y2="107119" gradientUnits="userSpaceOnUse">
<stop offset="0.2167" stop-color="#0A047A"/>
<stop offset="0.2858" stop-color="#12087E"/>
<stop offset="0.3928" stop-color="#281388"/>
<stop offset="0.5243" stop-color="#4B2599"/>
<stop offset="0.6753" stop-color="#7D3EB0"/>
<stop offset="0.8403" stop-color="#BC5ECD"/>
<stop offset="1" stop-color="#FF80ED"/>
</linearGradient>
<linearGradient id="paint10_linear" x1="-184972" y1="35306.4" x2="-189607" y2="44361.7" gradientUnits="userSpaceOnUse">
<stop offset="0.1668" stop-color="#FEC810"/>
<stop offset="1" stop-color="#FF80ED"/>
</linearGradient>
<linearGradient id="paint11_linear" x1="-560096" y1="287753" x2="-670424" y2="287753" gradientUnits="userSpaceOnUse">
<stop stop-color="#FEC810"/>
<stop offset="1" stop-color="#FF80ED"/>
</linearGradient>
<linearGradient id="paint12_linear" x1="-150644" y1="951746" x2="-150644" y2="469449" gradientUnits="userSpaceOnUse">
<stop stop-color="#FEC810"/>
<stop offset="1" stop-color="#FF80ED"/>
</linearGradient>
</defs>
</svg>
