<svg width="2190" height="2820" viewBox="0 0 2190 2820" fill="none" xmlns="http://www.w3.org/2000/svg">
<path d="M532.043 1157.07V1100.54L565.057 1100.56V1157.59C564.928 1159.05 564.413 1160.44 563.565 1161.63C562.717 1162.82 561.567 1163.76 560.233 1164.36C556.605 1166.19 552.596 1167.15 548.531 1167.15C544.466 1167.15 540.458 1166.19 536.831 1164.36C535.408 1163.74 534.196 1162.73 533.345 1161.43C532.494 1160.14 532.042 1158.62 532.043 1157.07Z" fill="#FEC810" stroke="#3874FF" stroke-width="2" stroke-linecap="round" stroke-linejoin="round"/>
<path d="M536.824 1093.79C540.452 1091.95 544.461 1091 548.526 1091C552.591 1091 556.599 1091.96 560.227 1093.79C566.664 1097.52 566.667 1103.6 560.232 1107.32C556.604 1109.15 552.596 1110.11 548.531 1110.11C544.466 1110.11 540.458 1109.15 536.83 1107.32C530.393 1103.6 530.39 1097.51 536.824 1093.79Z" fill="#EFEEEA" stroke="#3874FF" stroke-width="2" stroke-linecap="round" stroke-linejoin="round"/>
</svg>
