<svg width="710" height="710" viewBox="0 0 710 710" fill="none" xmlns="http://www.w3.org/2000/svg">
<g clip-path="url(#clip0)">
<path d="M302.515 300.305V533.95L495.037 422.79L495.03 189.138L302.515 300.305Z" fill="#0A047A" stroke="#0A047A" stroke-width="2" stroke-linecap="round" stroke-linejoin="round"/>
<path d="M302.515 78L110 189.138L302.515 300.305L495.037 189.138L302.515 78Z" fill="#3874FF" stroke="#0A047A" stroke-width="2" stroke-linecap="round" stroke-linejoin="round"/>
<path d="M941.886 730.511C941.886 730.511 392.068 412.086 379.38 404.764Z" fill="#FEC810"/>
<path d="M941.886 730.511C941.886 730.511 392.068 412.086 379.38 404.764" stroke="#0A047A" stroke-width="2" stroke-linecap="round" stroke-linejoin="round"/>
<path fill-rule="evenodd" clip-rule="evenodd" d="M865.824 637.167C868.823 638.891 870.918 640.965 872.128 643.218L947.963 599.412L494.706 337.728L425.311 377.791C425.311 377.791 787.168 590.891 865.824 637.167Z" fill="url(#paint0_linear)" stroke="#0A047A" stroke-width="2" stroke-linecap="round" stroke-linejoin="round"/>
<path d="M819.992 663.666C831.028 670.021 850.354 669.315 863 662C875.646 654.685 876.903 643.536 865.824 637.167L425.487 378.102C425.487 378.102 433.516 405.879 406.423 419.945L819.992 663.666Z" fill="#0A047A" stroke="#0A047A" stroke-width="2" stroke-linecap="round" stroke-linejoin="round"/>
<path fill-rule="evenodd" clip-rule="evenodd" d="M188.729 598.705H302.543H302.55L416.365 598.663C418.473 598.665 420.56 598.251 422.508 597.445C424.456 596.639 426.225 595.457 427.715 593.966C429.205 592.475 430.387 590.705 431.192 588.757C431.997 586.809 432.41 584.721 432.407 582.614C432.407 580.507 431.992 578.421 431.186 576.475C430.38 574.53 429.198 572.761 427.708 571.272C426.218 569.783 424.45 568.602 422.504 567.797C420.557 566.991 418.471 566.577 416.365 566.578L302.55 566.578L302.543 566.578L188.729 566.607C186.622 566.605 184.535 567.018 182.587 567.823C180.639 568.628 178.87 569.809 177.379 571.298C175.887 572.787 174.704 574.555 173.897 576.502C173.089 578.448 172.673 580.534 172.672 582.642V582.698C172.685 586.948 174.383 591.019 177.393 594.02C180.402 597.02 184.479 598.705 188.729 598.705Z" fill="#FF80ED" stroke="#0A047A" stroke-width="2" stroke-linecap="round" stroke-linejoin="round"/>
</g>
<defs>
<linearGradient id="paint0_linear" x1="395.408" y1="379.076" x2="660.46" y2="537.706" gradientUnits="userSpaceOnUse">
<stop stop-color="#1876FF"/>
<stop offset="0.04" stop-color="#2676FE"/>
<stop offset="0.31" stop-color="#7276FA"/>
<stop offset="0.55" stop-color="#AE77F7"/>
<stop offset="0.75" stop-color="#DA77F4"/>
<stop offset="0.91" stop-color="#F577F3"/>
<stop offset="1" stop-color="#FF77F2"/>
</linearGradient>
<clipPath id="clip0">
<rect width="710" height="710" fill="white"/>
</clipPath>
</defs>
</svg>
