<svg width="838" height="709" viewBox="0 0 838 709" fill="none" xmlns="http://www.w3.org/2000/svg">
<path d="M193.329 349.612V396.055L732.261 707.196L732.259 660.758L193.329 349.612Z" fill="#EFEEEA" stroke="#3874FF" stroke-width="2" stroke-linecap="round" stroke-linejoin="round"/>
<path d="M732.261 707.195L836.83 646.83L836.839 600.391L732.259 660.758L732.261 707.195Z" fill="#0A047A" stroke="#3874FF" stroke-width="2" stroke-linecap="round" stroke-linejoin="round"/>
<path d="M193.329 349.612L297.899 289.24L836.839 600.392L732.259 660.758L193.329 349.612Z" fill="#FEC810" stroke="#3874FF" stroke-width="2" stroke-linecap="round" stroke-linejoin="round"/>
<path d="M820.755 591.097L716.185 651.478" stroke="#3874FF" stroke-width="2" stroke-linecap="round" stroke-linejoin="round"/>
<path d="M805.852 582.492L701.281 642.873" stroke="#3874FF" stroke-width="2" stroke-linecap="round" stroke-linejoin="round"/>
<path d="M790.949 573.886L686.377 634.267" stroke="#3874FF" stroke-width="2" stroke-linecap="round" stroke-linejoin="round"/>
<path d="M776.044 565.282L671.471 625.662" stroke="#3874FF" stroke-width="2" stroke-linecap="round" stroke-linejoin="round"/>
<path d="M761.207 557.012L656.634 617.393" stroke="#3874FF" stroke-width="2" stroke-linecap="round" stroke-linejoin="round"/>
<path d="M746.235 548.072L641.66 608.452" stroke="#3874FF" stroke-width="2" stroke-linecap="round" stroke-linejoin="round"/>
<path d="M731.329 539.465L626.753 599.845" stroke="#3874FF" stroke-width="2" stroke-linecap="round" stroke-linejoin="round"/>
<path d="M716.426 530.861L611.85 591.241" stroke="#3874FF" stroke-width="2" stroke-linecap="round" stroke-linejoin="round"/>
<path d="M701.521 522.257L596.944 582.636" stroke="#3874FF" stroke-width="2" stroke-linecap="round" stroke-linejoin="round"/>
<path d="M686.618 513.65L582.04 574.029" stroke="#3874FF" stroke-width="2" stroke-linecap="round" stroke-linejoin="round"/>
<path d="M671.712 505.048L567.133 565.426" stroke="#3874FF" stroke-width="2" stroke-linecap="round" stroke-linejoin="round"/>
<path d="M656.809 496.441L552.229 556.82" stroke="#3874FF" stroke-width="2" stroke-linecap="round" stroke-linejoin="round"/>
<path d="M641.903 487.836L537.323 548.215" stroke="#3874FF" stroke-width="2" stroke-linecap="round" stroke-linejoin="round"/>
<path d="M627.001 479.23L522.42 539.608" stroke="#3874FF" stroke-width="2" stroke-linecap="round" stroke-linejoin="round"/>
<path d="M612.095 470.625L507.512 531.003" stroke="#3874FF" stroke-width="2" stroke-linecap="round" stroke-linejoin="round"/>
<path d="M597.188 462.021L492.606 522.399" stroke="#3874FF" stroke-width="2" stroke-linecap="round" stroke-linejoin="round"/>
<path d="M582.286 453.415L477.702 513.792" stroke="#3874FF" stroke-width="2" stroke-linecap="round" stroke-linejoin="round"/>
<path d="M567.38 444.809L462.796 505.186" stroke="#3874FF" stroke-width="2" stroke-linecap="round" stroke-linejoin="round"/>
<path d="M552.478 436.206L447.892 496.582" stroke="#3874FF" stroke-width="2" stroke-linecap="round" stroke-linejoin="round"/>
<path d="M537.571 427.6L432.985 487.977" stroke="#3874FF" stroke-width="2" stroke-linecap="round" stroke-linejoin="round"/>
<path d="M522.669 418.993L418.082 479.37" stroke="#3874FF" stroke-width="2" stroke-linecap="round" stroke-linejoin="round"/>
<path d="M507.763 410.391L403.175 470.767" stroke="#3874FF" stroke-width="2" stroke-linecap="round" stroke-linejoin="round"/>
<path d="M492.861 401.784L388.272 462.16" stroke="#3874FF" stroke-width="2" stroke-linecap="round" stroke-linejoin="round"/>
<path d="M477.955 393.179L373.365 453.555" stroke="#3874FF" stroke-width="2" stroke-linecap="round" stroke-linejoin="round"/>
<path d="M463.052 384.574L358.461 444.949" stroke="#3874FF" stroke-width="2" stroke-linecap="round" stroke-linejoin="round"/>
<path d="M448.146 375.969L343.554 436.344" stroke="#3874FF" stroke-width="2" stroke-linecap="round" stroke-linejoin="round"/>
<path d="M433.244 367.363L328.651 427.737" stroke="#3874FF" stroke-width="2" stroke-linecap="round" stroke-linejoin="round"/>
<path d="M418.337 358.758L313.744 419.132" stroke="#3874FF" stroke-width="2" stroke-linecap="round" stroke-linejoin="round"/>
<path d="M403.435 350.152L298.841 410.526" stroke="#3874FF" stroke-width="2" stroke-linecap="round" stroke-linejoin="round"/>
<path d="M388.529 341.548L283.934 401.922" stroke="#3874FF" stroke-width="2" stroke-linecap="round" stroke-linejoin="round"/>
<path d="M373.623 332.942L269.027 393.316" stroke="#3874FF" stroke-width="2" stroke-linecap="round" stroke-linejoin="round"/>
<path d="M358.721 324.335L254.124 384.709" stroke="#3874FF" stroke-width="2" stroke-linecap="round" stroke-linejoin="round"/>
<path d="M343.814 315.734L239.217 376.107" stroke="#3874FF" stroke-width="2" stroke-linecap="round" stroke-linejoin="round"/>
<path d="M328.912 307.127L224.314 367.5" stroke="#3874FF" stroke-width="2" stroke-linecap="round" stroke-linejoin="round"/>
<path d="M314.006 298.524L209.406 358.896" stroke="#3874FF" stroke-width="2" stroke-linecap="round" stroke-linejoin="round"/>
<path d="M163.636 1L1 94.887L255.136 241.671L417.743 147.774L163.636 1Z" fill="url(#paint0_linear)" stroke="#3874FF" stroke-width="2" stroke-linecap="round" stroke-linejoin="round"/>
<path fill-rule="evenodd" clip-rule="evenodd" d="M383.378 153.013C388.637 149.972 388.64 144.999 383.383 141.959C380.418 140.461 377.143 139.68 373.821 139.681C370.5 139.681 367.224 140.463 364.261 141.963C329.701 161.952 322.446 165.804 318.946 167.827C313.687 170.868 313.684 175.841 318.942 178.88C321.906 180.379 325.181 181.16 328.503 181.159C331.825 181.159 335.1 180.377 338.064 178.877C353.119 170.169 368.321 161.717 383.378 153.013Z" fill="#0A047A" stroke="#3874FF" stroke-width="2" stroke-linecap="round" stroke-linejoin="round"/>
<path d="M389.053 275.26V341.534L283.907 402.237V336.025C284.302 319.237 288.313 302.732 295.665 287.635C305.306 267.058 320.045 248.907 336.49 239.41C365.393 222.677 389.053 238.814 389.053 275.26Z" fill="#EFEEEA" stroke="#3874FF" stroke-width="2" stroke-linecap="round" stroke-linejoin="round"/>
<path d="M389.053 341.535L283.907 402.238V336.026C284.302 319.238 288.313 302.733 295.665 287.636L389.053 341.535Z" fill="url(#paint1_linear)" stroke="#3874FF" stroke-width="2" stroke-linecap="round" stroke-linejoin="round"/>
<path d="M369.935 330.501V235.291" stroke="#3874FF" stroke-width="2" stroke-linecap="round" stroke-linejoin="round"/>
<path d="M350.499 319.295V233.854" stroke="#3874FF" stroke-width="2" stroke-linecap="round" stroke-linejoin="round"/>
<path d="M331.653 308.414V242.808" stroke="#3874FF" stroke-width="2" stroke-linecap="round" stroke-linejoin="round"/>
<path d="M312.513 297.366V260.59" stroke="#3874FF" stroke-width="2" stroke-linecap="round" stroke-linejoin="round"/>
<path d="M345.217 203.971V152.293L318 152.305V204.397C318.106 205.586 318.531 206.725 319.23 207.697C319.929 208.669 320.877 209.439 321.977 209.926C324.968 211.424 328.273 212.204 331.624 212.204C334.975 212.203 338.28 211.422 341.27 209.923C342.443 209.422 343.442 208.591 344.144 207.533C344.845 206.475 345.218 205.237 345.217 203.971Z" fill="#FF80ED" stroke="#3874FF" stroke-width="2" stroke-linecap="round" stroke-linejoin="round"/>
<path d="M341.276 146.779C338.285 145.28 334.98 144.499 331.628 144.5C328.277 144.501 324.972 145.282 321.982 146.782C316.675 149.824 316.672 154.798 321.977 157.835C324.968 159.333 328.273 160.113 331.624 160.113C334.976 160.112 338.28 159.331 341.271 157.832C346.578 154.792 346.58 149.818 341.276 146.779Z" fill="#EFEEEA" stroke="#3874FF" stroke-width="2" stroke-linecap="round" stroke-linejoin="round"/>
<path fill-rule="evenodd" clip-rule="evenodd" d="M255.136 465.595L255.136 241.672L417.743 147.775V358.018L389.052 341.545V275.26C389.052 238.814 365.392 222.677 336.49 239.41C320.045 248.907 305.306 267.058 295.665 287.635C288.313 302.732 284.302 319.237 283.907 336.025V448.984L255.136 465.595Z" fill="#0A047A" stroke="#3874FF" stroke-width="2" stroke-linecap="round" stroke-linejoin="round"/>
<circle cx="380.5" cy="363.5" r="58.5" fill="#3874FF" stroke="#0A047A" stroke-width="2"/>
<path fill-rule="evenodd" clip-rule="evenodd" d="M313.702 171.315L223.5 223.387L255.215 241.705L417.812 147.796L386.136 129.5C386.136 136.863 387.345 141.727 387.324 147.5C387.317 149.498 386.001 151.496 383.378 153.013C375.895 157.339 368.375 161.603 360.856 165.867C353.246 170.182 345.636 174.497 338.064 178.877C335.1 180.377 331.825 181.159 328.503 181.159C325.181 181.16 321.906 180.379 318.942 178.88C312.499 175.156 313.702 171.315 313.702 171.315Z" fill="#FEC810"/>
<path d="M383.383 141.959C388.64 144.999 388.637 149.972 383.378 153.013C368.321 161.717 353.119 170.169 338.064 178.877C335.1 180.377 331.825 181.159 328.503 181.159C325.181 181.16 321.906 180.379 318.942 178.88C315.495 176.888 314.309 174.065 315.382 171.5" stroke="#3874FF" stroke-width="2" stroke-linecap="round" stroke-linejoin="round"/>
<path d="M163.636 1L1 94.887L255.136 241.671L417.743 147.774L163.636 1Z" stroke="#3874FF" stroke-width="2" stroke-linecap="round" stroke-linejoin="round"/>
<path d="M255.137 241.672V465.423L92.5283 371.542V147.774L255.137 241.672Z" fill="#3874FF" stroke="#3874FF" stroke-width="2" stroke-linecap="round" stroke-linejoin="round"/>
<path fill-rule="evenodd" clip-rule="evenodd" d="M255.136 465.594L255.136 241.672L417.743 147.774V225.5C417.743 225.5 411.527 227.597 401.554 230C393.308 231.986 382.494 234.181 370.5 235.572C361.315 231.016 349.428 231.92 336.49 239.41C320.045 248.907 305.306 267.058 295.665 287.635C288.313 302.732 284.302 319.237 283.907 336.025V448.983L255.136 465.594Z" fill="#0A047A"/>
<path d="M417.743 225.5V147.774L255.136 241.672L255.136 465.594L283.907 448.983V336.025C284.302 319.237 288.313 302.732 295.665 287.635C305.306 267.058 320.045 248.907 336.49 239.41C349.428 231.92 361.315 231.016 370.5 235.572" stroke="#3874FF" stroke-width="2" stroke-linecap="round" stroke-linejoin="round"/>
<defs>
<linearGradient id="paint0_linear" x1="510116" y1="122155" x2="517325" y2="99171.1" gradientUnits="userSpaceOnUse">
<stop offset="0.1668" stop-color="#FEC810"/>
<stop offset="1" stop-color="#FF80ED"/>
</linearGradient>
<linearGradient id="paint1_linear" x1="283.907" y1="344.937" x2="389.053" y2="344.937" gradientUnits="userSpaceOnUse">
<stop offset="0.2167" stop-color="#0A047A"/>
<stop offset="0.2858" stop-color="#12087E"/>
<stop offset="0.3928" stop-color="#281388"/>
<stop offset="0.5243" stop-color="#4B2599"/>
<stop offset="0.6753" stop-color="#7D3EB0"/>
<stop offset="0.8403" stop-color="#BC5ECD"/>
<stop offset="1" stop-color="#FF80ED"/>
</linearGradient>
</defs>
</svg>
