<svg width="710" height="710" viewBox="0 0 710 710" fill="none" xmlns="http://www.w3.org/2000/svg">
<g clip-path="url(#clip0)">
<path d="M327.303 746V228.953C327.303 243.978 334.718 259.004 349.543 271.974L382.753 292.04C400.462 299.475 420.654 304.127 441.462 305.981C455.327 307.199 469.273 307.199 483.138 305.981C510.552 303.538 536.888 296.263 557.89 284.135C584.166 268.963 597.304 248.951 597.304 228.953V746" fill="url(#paint0_linear)"/>
<path d="M327.303 746V228.953C327.303 243.978 334.718 259.004 349.543 271.974L382.753 292.04C400.462 299.475 420.654 304.127 441.462 305.981C455.327 307.199 469.273 307.199 483.138 305.981C510.552 303.538 536.888 296.263 557.89 284.135C584.166 268.963 597.304 248.951 597.304 228.953V746" stroke="#0A047A" stroke-width="2" stroke-miterlimit="10" stroke-linejoin="round"/>
<path d="M382.733 440.67C382.733 460.668 369.595 480.679 343.312 495.852C290.74 526.204 204.718 526.204 152.159 495.852C125.863 480.673 112.731 460.668 112.731 440.67C112.731 420.665 125.863 400.66 152.145 385.487C173.141 373.353 199.477 366.078 226.891 363.642C240.758 362.417 254.706 362.417 268.574 363.642C289.382 365.496 309.494 370.188 327.203 377.623C277.066 406.57 231.927 432.629 181.895 461.511C173.716 466.229 174.68 474.508 184.017 479.903C193.367 485.297 207.696 485.853 215.874 481.134C216.564 480.733 233.758 470.807 256.065 457.93C266.934 451.659 279.014 444.679 290.995 437.765C326.192 417.446 360.493 397.641 360.493 397.641C375.317 410.619 382.733 425.644 382.733 440.67Z" fill="#3874FF" stroke="#0A047A" stroke-width="2" stroke-linecap="round" stroke-linejoin="round"/>
<path d="M350.541 271.405L349.543 271.974L350.554 271.392C350.554 271.396 350.552 271.399 350.55 271.401C350.547 271.404 350.544 271.405 350.541 271.405Z" fill="url(#paint1_linear)" stroke="#0A047A" stroke-width="2" stroke-miterlimit="10" stroke-linejoin="round"/>
<path d="M327.116 377.67C326.248 381.99 326.248 386.441 327.116 390.761C328.455 396.852 332.176 403.785 341.392 408.571L327.116 416.823L215.875 481.134C207.697 485.853 193.361 485.297 184.017 479.903C174.674 474.508 173.717 466.229 181.896 461.511L327.116 377.67Z" fill="#0A047A" stroke="#0A047A" stroke-width="2" stroke-linecap="round" stroke-linejoin="round"/>
<path d="M597.304 228.946V228.953C597.304 248.951 584.166 268.963 557.89 284.135C536.888 296.263 510.552 303.538 483.138 305.981C469.273 307.199 455.327 307.199 441.462 305.981C420.654 304.127 400.462 299.475 382.753 292.039L455.089 250.283L488.238 231.141H488.245L492.046 228.946L528.134 208.111C536.313 203.386 535.356 195.107 526.019 189.713C516.669 184.319 502.34 183.763 494.161 188.481C447.036 215.686 399.634 243.054 350.553 271.392L349.543 271.974C334.718 259.004 327.303 243.978 327.303 228.953V228.946C327.303 208.941 340.441 188.937 366.723 173.764C419.295 143.412 505.311 143.412 557.877 173.764C584.166 188.95 597.304 208.941 597.304 228.946Z" fill="#EFEEEA" stroke="#0A047A" stroke-width="2" stroke-miterlimit="10" stroke-linejoin="round"/>
<path d="M528.134 208.11C514.353 216.061 500.575 224.014 486.799 231.969C476.606 237.852 466.415 243.738 456.226 249.625C431.737 263.76 407.246 277.898 382.752 292.037C382.752 292.037 378.902 302.008 366.5 300C357 297 348.5 290 349.542 271.972L437.031 221.462L472.001 201.269L494.161 188.479C502.339 183.761 516.669 184.317 526.019 189.711C535.355 195.105 536.312 203.384 528.134 208.11Z" fill="#FFC400" stroke="#0A047A" stroke-width="2" stroke-linecap="round" stroke-linejoin="round"/>
<path d="M498.271 232.043C513.057 232.043 525.043 220.057 525.043 205.271C525.043 190.486 513.057 178.5 498.271 178.5C483.486 178.5 471.5 190.486 471.5 205.271C471.5 220.057 483.486 232.043 498.271 232.043Z" fill="url(#paint2_linear)" stroke="#0A047A" stroke-width="2" stroke-linecap="round" stroke-linejoin="round"/>
<path fill-rule="evenodd" clip-rule="evenodd" d="M526.019 189.713C535.356 195.107 536.313 203.386 528.134 208.111L492.046 228.946L488.245 231.141H488.238L455.089 250.283L382.753 292.039C400.462 299.475 420.654 304.127 441.462 305.981C455.327 307.199 469.273 307.199 483.138 305.981C510.552 303.538 536.888 296.263 557.89 284.135C584.166 268.963 597.304 248.951 597.304 228.953V228.946C597.304 208.941 584.166 188.95 557.877 173.764L526.019 189.713Z" fill="#EFEEEA"/>
<path d="M524.906 189.105C525.284 189.301 525.655 189.503 526.019 189.713C535.356 195.107 536.313 203.386 528.134 208.111L492.046 228.946L488.245 231.141H488.238L455.089 250.283L382.753 292.039C400.462 299.475 420.654 304.127 441.462 305.981C455.327 307.199 469.273 307.199 483.138 305.981C510.552 303.538 536.888 296.263 557.89 284.135C584.166 268.963 597.304 248.951 597.304 228.953V228.946C597.304 208.941 584.166 188.95 557.877 173.764C556.815 173.151 555.74 172.55 554.651 171.962" stroke="#0A047A" stroke-width="2" stroke-miterlimit="10" stroke-linejoin="round"/>
<path fill-rule="evenodd" clip-rule="evenodd" d="M367.303 715.047H409.265C409.265 676.101 376 323 372 300.109C380.008 298.977 382.707 292.154 382.752 292.039L382.753 292.04C400.462 299.475 420.654 304.127 441.462 305.981C455.327 307.199 469.273 307.199 483.138 305.981C510.552 303.538 536.888 296.263 557.89 284.135C584.166 268.963 597.304 248.951 597.304 228.953V746H367.303V715.047Z" fill="url(#paint3_linear)"/>
<path d="M369.265 715.047H327.303V746H597.304V228.953C597.304 248.951 584.166 268.963 557.89 284.135C536.888 296.263 510.552 303.538 483.138 305.981C469.273 307.199 455.327 307.199 441.462 305.981C420.654 304.127 400.462 299.475 382.753 292.04L382.752 292.039C382.706 292.156 379.896 299.26 371.5 300.171" stroke="#0A047A" stroke-width="2" stroke-miterlimit="10" stroke-linejoin="round"/>
<path fill-rule="evenodd" clip-rule="evenodd" d="M143.131 490.096C145.945 492.08 148.954 494.002 152.159 495.852C204.718 526.204 290.74 526.204 343.312 495.852C369.595 480.679 382.733 460.668 382.733 440.67C382.733 425.644 375.317 410.619 360.493 397.641C360.493 397.641 326.192 417.445 290.995 437.765C285.308 441.047 279.599 444.343 274.007 447.572C267.819 451.146 261.775 454.636 256.065 457.93C233.758 470.807 216.564 480.733 215.874 481.134C207.696 485.853 193.367 485.297 184.017 479.903C179.495 477.29 176.937 474.001 176.431 470.768L143.131 490.096Z" fill="#3874FF"/>
<path d="M143.131 490.096C145.945 492.08 148.954 494.002 152.159 495.852C204.718 526.204 290.74 526.204 343.312 495.852C369.595 480.679 382.733 460.668 382.733 440.67C382.733 425.644 375.317 410.619 360.493 397.641C360.493 397.641 326.192 417.445 290.995 437.765C285.308 441.047 279.599 444.343 274.007 447.572C267.819 451.146 261.775 454.636 256.065 457.93C233.758 470.807 216.564 480.733 215.874 481.134C207.696 485.853 193.367 485.297 184.017 479.903C179.495 477.29 176.937 474.001 176.431 470.768" stroke="#0A047A" stroke-width="2" stroke-linecap="round" stroke-linejoin="round"/>
<path fill-rule="evenodd" clip-rule="evenodd" d="M343.312 495.852C369.595 480.679 382.733 460.668 382.733 440.67V745.999H112.731V440.67C112.731 460.668 125.863 480.673 152.159 495.852C204.718 526.204 290.74 526.204 343.312 495.852Z" fill="url(#paint4_linear)" stroke="#0A047A" stroke-width="2" stroke-miterlimit="10" stroke-linejoin="round"/>
<line x1="130" y1="479" x2="130" y2="746" stroke="#0A047A" stroke-width="2"/>
<line x1="147" y1="493" x2="147" y2="746" stroke="#0A047A" stroke-width="2"/>
<line x1="164" y1="502" x2="164" y2="746" stroke="#0A047A" stroke-width="2"/>
<line x1="181" y1="509" x2="181" y2="746" stroke="#0A047A" stroke-width="2"/>
<line x1="198" y1="513" x2="198" y2="746" stroke="#0A047A" stroke-width="2"/>
<line x1="215" y1="516" x2="215" y2="746" stroke="#0A047A" stroke-width="2"/>
<line x1="232" y1="518" x2="232" y2="746" stroke="#0A047A" stroke-width="2"/>
<line x1="249" y1="519" x2="249" y2="746" stroke="#0A047A" stroke-width="2"/>
<line x1="266" y1="518" x2="266" y2="746" stroke="#0A047A" stroke-width="2"/>
<line x1="283" y1="516" x2="283" y2="746" stroke="#0A047A" stroke-width="2"/>
<line x1="300" y1="513" x2="300" y2="746" stroke="#0A047A" stroke-width="2"/>
<line x1="317" y1="508" x2="317" y2="746" stroke="#0A047A" stroke-width="2"/>
<line x1="334" y1="501" x2="334" y2="746" stroke="#0A047A" stroke-width="2"/>
<line x1="351" y1="491" x2="351" y2="746" stroke="#0A047A" stroke-width="2"/>
<line x1="368" y1="476" x2="368" y2="746" stroke="#0A047A" stroke-width="2"/>
</g>
<defs>
<linearGradient id="paint0_linear" x1="462.303" y1="228.953" x2="462.303" y2="746" gradientUnits="userSpaceOnUse">
<stop stop-color="#FF80ED"/>
<stop offset="1" stop-color="#FEC810"/>
</linearGradient>
<linearGradient id="paint1_linear" x1="350.049" y1="271.986" x2="350.049" y2="271.403" gradientUnits="userSpaceOnUse">
<stop stop-color="#FFC400"/>
<stop offset="0.392" stop-color="#FFA464"/>
<stop offset="0.8116" stop-color="#FF84C9"/>
<stop offset="1" stop-color="#FF77F2"/>
</linearGradient>
<linearGradient id="paint2_linear" x1="498.271" y1="178.5" x2="498.271" y2="232.043" gradientUnits="userSpaceOnUse">
<stop stop-color="#FF80ED"/>
<stop offset="1" stop-color="#FEC810"/>
</linearGradient>
<linearGradient id="paint3_linear" x1="482.304" y1="228.953" x2="482.304" y2="746" gradientUnits="userSpaceOnUse">
<stop stop-color="#FF80ED"/>
<stop offset="1" stop-color="#FEC810"/>
</linearGradient>
<linearGradient id="paint4_linear" x1="336.5" y1="404.5" x2="207.5" y2="693.5" gradientUnits="userSpaceOnUse">
<stop stop-color="#0B047F"/>
<stop offset="0.0835" stop-color="#25108B"/>
<stop offset="0.3401" stop-color="#7234AF"/>
<stop offset="0.5691" stop-color="#AE51CC"/>
<stop offset="0.7622" stop-color="#DA66E1"/>
<stop offset="0.9119" stop-color="#F572ED"/>
<stop offset="1" stop-color="#FF77F2"/>
</linearGradient>
<clipPath id="clip0">
<rect width="710" height="710" fill="white"/>
</clipPath>
</defs>
</svg>
