<svg width="710" height="710" viewBox="0 0 710 710" fill="none" xmlns="http://www.w3.org/2000/svg">
<path d="M297.781 460.403L145.442 372.46L145.435 304.805L297.788 392.748L297.781 460.403Z" fill="#2B6AFF" stroke="#0A047A" stroke-width="2" stroke-linecap="round" stroke-linejoin="round"/>
<path fill-rule="evenodd" clip-rule="evenodd" d="M605.011 283.031L605.004 215.383L297.788 392.748L297.781 460.403L605.011 283.031Z" fill="#FEC810" stroke="#0A047A" stroke-width="2" stroke-linecap="round" stroke-linejoin="round"/>
<path fill-rule="evenodd" clip-rule="evenodd" d="M297.789 392.748L196.137 334.072L254.797 300.144C251.43 306.363 254.654 313.94 264.065 319.385C276.915 326.819 296.631 327.584 307.879 321.082L547.888 182.393L605.091 215.332L297.789 392.748Z" fill="url(#paint0_linear)"/>
<path d="M196.137 334.072L297.789 392.748L605.091 215.332L547.888 182.393M254.797 300.144C251.43 306.363 254.654 313.94 264.065 319.385C276.915 326.819 296.631 327.584 307.879 321.082L488.5 216" stroke="#0A047A" stroke-width="2" stroke-linecap="round" stroke-linejoin="round"/>
<defs>
<linearGradient id="paint0_linear" x1="749.822" y1="84.3463" x2="-201.457" y2="349.342" gradientUnits="userSpaceOnUse">
<stop offset="0.05" stop-color="#1876FF"/>
<stop offset="0.1" stop-color="#4876FC"/>
<stop offset="0.15" stop-color="#7376FA"/>
<stop offset="0.21" stop-color="#9977F8"/>
<stop offset="0.27" stop-color="#B977F6"/>
<stop offset="0.34" stop-color="#D277F5"/>
<stop offset="0.41" stop-color="#E677F3"/>
<stop offset="0.49" stop-color="#F477F3"/>
<stop offset="0.59" stop-color="#FD77F2"/>
<stop offset="0.77" stop-color="#FF77F2"/>
</linearGradient>
</defs>
</svg>
