<svg width="2137" height="1223" viewBox="0 0 2137 1223" fill="none" xmlns="http://www.w3.org/2000/svg">
<path d="M982.478 548.003C986.229 543.504 990.592 539.552 995.438 536.261C997.363 534.945 999.416 533.662 1001.57 532.411C1020.11 521.855 1044.46 516.562 1068.81 516.53C1093.16 516.562 1117.51 521.856 1136.05 532.411C1138.2 533.662 1140.25 534.945 1142.18 536.261C1147.03 539.552 1151.39 543.504 1155.14 548.003H1164.16V571.295C1164.05 578.709 1161.64 585.906 1157.26 591.892C1151.73 599.368 1144.64 605.544 1136.47 609.987C1117.89 620.735 1093.35 626.092 1068.81 626.092C1044.27 626.092 1019.73 620.735 1001.15 609.987C992.983 605.544 985.887 599.368 980.361 591.892C975.984 585.906 973.574 578.709 973.463 571.295V548.003H982.478Z" fill="#2B6AFF" stroke="#0A047A" stroke-width="2" stroke-linecap="round" stroke-linejoin="round"/>
<path d="M1001.56 509.088C1007.11 505.912 1018.63 498.886 1025.08 496.64C1025.14 496.628 1025.19 496.606 1025.24 496.576C1039.2 491.94 1053.88 489.811 1068.58 490.288H1069.03C1083.74 489.811 1098.41 491.94 1112.37 496.576C1112.42 496.606 1112.48 496.628 1112.53 496.64C1118.98 498.886 1130.5 505.912 1136.05 509.088C1154.78 519.772 1164.15 533.889 1164.15 548.005C1164.15 561.993 1154.95 576.013 1136.47 586.664C1117.95 597.348 1093.51 602.706 1069.03 602.738H1068.58C1044.1 602.706 1019.66 597.348 1001.15 586.664C982.667 576.013 973.46 561.993 973.46 548.005C973.462 533.888 982.829 519.771 1001.56 509.088Z" fill="#FEC810" stroke="#0A047A" stroke-width="2" stroke-linecap="round" stroke-linejoin="round"/>
<path d="M1016.68 500.778C1019.4 499.239 1022.2 497.857 1025.08 496.639C1025.14 496.626 1025.19 496.605 1025.24 496.575C1053.28 485.752 1084.34 485.752 1112.37 496.575C1112.42 496.605 1112.48 496.627 1112.53 496.639C1115.41 497.857 1118.22 499.239 1120.94 500.778C1137.81 510.403 1144.9 523.621 1142.18 536.261C1140.25 545.278 1133.26 554.035 1121.29 560.933C1106.89 569.242 1087.83 573.413 1068.81 573.413C1049.78 573.413 1030.73 569.242 1016.32 560.933C1004.36 554.035 997.362 545.276 995.437 536.261C992.71 523.621 999.8 510.403 1016.68 500.778Z" fill="#EFEEEA" stroke="#0A047A" stroke-width="2" stroke-linecap="round" stroke-linejoin="round"/>
</svg>
