<svg width="2137" height="1223" viewBox="0 0 2137 1223" fill="none" xmlns="http://www.w3.org/2000/svg">
<path d="M448 349.609V389.593L597.895 476.1L597.967 436.198L448 349.609Z" fill="#2B6AFF" stroke="#0A047A" stroke-width="2" stroke-linecap="round" stroke-linejoin="round"/>
<path d="M644 409.6V449.532L597.936 476.12V436.187L644 409.6Z" fill="#0A047A" stroke="#0A047A" stroke-width="2" stroke-linecap="round" stroke-linejoin="round"/>
<path fill-rule="evenodd" clip-rule="evenodd" d="M626.246 419.822L597.968 436.198L448.002 349.61L476.278 333.309C476.278 333.309 472.867 345.724 489.994 353.715C488.454 356.893 489.835 360.457 494.137 362.944L578.001 411.465C584.347 415.128 594.713 415.128 601.049 411.465C602.975 410.351 604.316 409.022 605.071 407.607L626.246 419.822Z" fill="#FEC810"/>
<path d="M626.246 419.822L597.968 436.198L448.002 349.61L476.278 333.309M605.071 407.607C604.316 409.022 602.975 410.351 601.049 411.465C594.713 415.128 584.347 415.128 578.001 411.465L494.137 362.944C490.007 360.556 488.569 357.176 489.823 354.097" stroke="#0A047A" stroke-width="2" stroke-linecap="round" stroke-linejoin="round"/>
<path d="M1197.17 783.776L621.023 448.805" stroke="#0A047A" stroke-width="2" stroke-linecap="round" stroke-linejoin="round" stroke-dasharray="4 4"/>
<path d="M1597.97 401.845L935 777.482" stroke="#0A047A" stroke-width="2" stroke-linecap="round" stroke-linejoin="round" stroke-dasharray="4 4"/>
</svg>
