<svg width="2137" height="1223" viewBox="0 0 2137 1223" fill="none" xmlns="http://www.w3.org/2000/svg">
<g clip-path="url(#clip0)">
<path d="M2327.08 1513.71L1577.84 1081.15L1577.84 1283.92L852 864.884V729.707L1062.75 608.022L1308.58 749.974L1308.61 398.495L1741.75 148L2327.22 486.359L2327.08 1513.71Z" fill="url(#paint0_linear)"/>
<path d="M1568.34 978.379L1487.42 931.66L1603 864.929L1510.54 811.557L1636.59 737.504L1324.51 557.331" stroke="#0A047A" stroke-width="2" stroke-linecap="round" stroke-linejoin="round"/>
<path d="M447.633 389.016V711.038L785.869 906.33L785.375 584.017L447.633 389.016Z" fill="url(#paint1_linear)" stroke="#0A047A" stroke-width="2" stroke-linecap="round" stroke-linejoin="round"/>
<path d="M1753.66 635.949L1603.41 549.201L701.923 1069.68L852.187 1156.43L1753.66 635.949Z" fill="url(#paint2_linear)" stroke="#0A047A" stroke-width="2" stroke-linecap="round" stroke-linejoin="round"/>
<path d="M1753.65 635.95L1753.7 702.661L852.18 1223.15L852.182 1156.43L1753.65 635.95Z" fill="url(#paint3_linear)" stroke="#0A047A" stroke-width="2" stroke-linecap="round" stroke-linejoin="round"/>
<path d="M852.181 1223.15L701.932 1136.41L701.919 1069.68L852.184 1156.43L852.181 1223.15Z" fill="#FEC810" stroke="#0A047A" stroke-width="2" stroke-linecap="round" stroke-linejoin="round"/>
<path d="M447.649 615.54L644.156 728.984L447.649 842.441L251.177 728.984L447.649 615.54Z" fill="url(#paint4_linear)" stroke="#0A047A" stroke-width="2" stroke-linecap="round" stroke-linejoin="round"/>
<path d="M447.647 842.44V1083.02L644.121 969.588V728.983L447.647 842.44Z" fill="#2B6AFF" stroke="#0A047A" stroke-width="2" stroke-linecap="round" stroke-linejoin="round"/>
<path d="M447.648 842.44V1083.02L251.176 969.588V728.983L447.648 842.44Z" fill="url(#paint5_linear)" stroke="#0A047A" stroke-width="2" stroke-linecap="round" stroke-linejoin="round"/>
<path d="M285.841 909.512V989.591L412.885 1062.94V982.934C412.407 962.65 407.561 942.707 398.678 924.465C387.029 899.602 369.221 877.669 349.351 866.194C314.429 845.976 285.841 865.474 285.841 909.512Z" fill="#EFEEEA" stroke="#0A047A" stroke-width="2" stroke-linecap="round" stroke-linejoin="round"/>
<path d="M308.941 976.261V861.218" stroke="#0A047A" stroke-width="2" stroke-linecap="round" stroke-linejoin="round"/>
<path d="M332.426 962.719V859.479" stroke="#0A047A" stroke-width="2" stroke-linecap="round" stroke-linejoin="round"/>
<path d="M355.197 949.572V870.299" stroke="#0A047A" stroke-width="2" stroke-linecap="round" stroke-linejoin="round"/>
<path d="M285.841 989.591L412.885 1062.94V982.935C412.407 962.65 407.561 942.707 398.678 924.465L285.841 989.591Z" fill="url(#paint6_linear)" stroke="#0A047A" stroke-width="2" stroke-linecap="round" stroke-linejoin="round"/>
<path d="M251.174 728.983L274.305 742.699V769.4L251.174 756.045V728.983Z" fill="#FF80ED" stroke="#0A047A" stroke-width="2" stroke-linecap="round" stroke-linejoin="round"/>
<path d="M378.322 936.223V891.786" stroke="#0A047A" stroke-width="2" stroke-linecap="round" stroke-linejoin="round"/>
<path d="M1453.16 731.979C1414.86 731.979 1383.81 700.93 1383.81 662.63C1383.81 624.33 1414.86 593.282 1453.16 593.282C1491.46 593.282 1522.5 624.33 1522.5 662.63C1522.5 700.93 1491.46 731.979 1453.16 731.979Z" fill="url(#paint7_linear)" stroke="#0A047A" stroke-width="2" stroke-linecap="round" stroke-linejoin="round"/>
<path d="M1268.24 838.739C1229.94 838.739 1198.89 807.69 1198.89 769.39C1198.89 731.09 1229.94 700.042 1268.24 700.042C1306.54 700.042 1337.59 731.09 1337.59 769.39C1337.59 807.69 1306.54 838.739 1268.24 838.739Z" fill="#FF80ED" stroke="#0A047A" stroke-width="2" stroke-linecap="round" stroke-linejoin="round"/>
<path d="M267.668 420.087L267.722 202.166C267.725 193.508 270.002 185.004 274.328 177.504C278.653 170.005 284.873 163.774 292.365 159.436L333.284 135.746L448.127 202.055L382.57 391.644L382.51 486.396L267.668 420.087Z" fill="url(#paint8_linear)" stroke="#0A047A" stroke-width="2" stroke-linecap="round" stroke-linejoin="round"/>
<path d="M448.127 615.247L448.126 202.057L407.207 225.747C399.715 230.084 393.495 236.315 389.17 243.815C384.845 251.314 382.567 259.819 382.565 268.476L382.511 653.125" fill="#FEC810" stroke="#0A047A" stroke-width="2" stroke-linecap="round" stroke-linejoin="round"/>
<path d="M202.002 457.991L202.056 240.07C202.058 231.413 204.336 222.908 208.661 215.408C212.986 207.909 219.206 201.678 226.698 197.341L267.618 173.65L382.461 239.959L316.903 429.548L316.843 524.3L202.002 457.991Z" fill="url(#paint9_linear)" stroke="#0A047A" stroke-width="2" stroke-linecap="round" stroke-linejoin="round"/>
<path d="M382.461 651.978L382.461 239.959L341.542 263.65C334.05 267.987 327.829 274.218 323.504 281.717C319.179 289.217 316.901 297.721 316.899 306.379L316.845 689.857" fill="#2B6AFF"/>
<path d="M382.461 651.978L382.461 239.959L341.542 263.65C334.05 267.987 327.829 274.218 323.504 281.717C319.179 289.217 316.901 297.721 316.899 306.379L316.845 689.857" stroke="#0A047A" stroke-width="2" stroke-linecap="round" stroke-linejoin="round"/>
<path d="M136.308 823.42L136.363 277.96C136.365 269.303 138.643 260.798 142.968 253.299C147.293 245.8 153.513 239.569 161.005 235.231L201.925 211.541L316.768 277.85L251.21 467.437L251.15 892.303L136.308 823.42Z" fill="#EFEEEA" stroke="#0A047A" stroke-width="2" stroke-linecap="round" stroke-linejoin="round"/>
<path d="M316.774 690.067L316.774 277.85L275.855 301.54C268.363 305.877 262.143 312.108 257.818 319.608C253.493 327.107 251.215 335.612 251.213 344.269L251.158 727.946" fill="#FF80ED"/>
<path d="M316.774 690.067L316.774 277.85L275.855 301.54C268.363 305.877 262.143 312.108 257.818 319.608C253.493 327.107 251.215 335.612 251.213 344.269L251.158 727.946" stroke="#0A047A" stroke-width="2" stroke-linecap="round" stroke-linejoin="round"/>
<path d="M447.646 348.945L493.908 322.273L644.063 409.051L597.975 435.75L447.646 348.945Z" fill="#FEC810" stroke="#0A047A" stroke-width="2" stroke-linecap="round" stroke-linejoin="round"/>
<path d="M447.65 348.945V389.022L597.906 475.743L597.979 435.751L447.65 348.945Z" fill="#2B6AFF" stroke="#0A047A" stroke-width="2" stroke-linecap="round" stroke-linejoin="round"/>
<path d="M644.121 409.078V449.115L597.941 475.767V435.735L644.121 409.078Z" fill="#0A047A" stroke="#0A047A" stroke-width="2" stroke-linecap="round" stroke-linejoin="round"/>
<path d="M574.69 409.035C574.69 409.035 500.222 365.99 493.867 362.316C487.512 358.642 487.509 352.633 493.861 348.96C497.443 347.15 501.4 346.206 505.414 346.207C509.427 346.208 513.385 347.152 516.966 348.964C523.321 352.64 597.915 395.667 597.915 395.667L574.69 409.035Z" fill="#0A047A" stroke="#0A047A" stroke-width="2" stroke-linecap="round" stroke-linejoin="round"/>
<path d="M569.965 401.846V375.652L602.558 375.667V402.36C602.43 403.797 601.922 405.174 601.085 406.348C600.248 407.523 599.112 408.453 597.796 409.042C594.214 410.852 590.256 411.794 586.243 411.794C582.23 411.793 578.273 410.849 574.691 409.038C573.287 408.432 572.09 407.428 571.25 406.15C570.41 404.872 569.964 403.376 569.965 401.846V401.846Z" fill="#FEC810" stroke="#0A047A" stroke-width="2" stroke-linecap="round" stroke-linejoin="round"/>
<path d="M574.685 368.988C578.267 367.177 582.224 366.234 586.238 366.234C590.251 366.235 594.208 367.18 597.789 368.992C604.145 372.668 604.148 378.677 597.795 382.348C594.213 384.158 590.256 385.1 586.242 385.099C582.229 385.099 578.272 384.155 574.691 382.343C568.336 378.671 568.333 372.661 574.685 368.988Z" fill="#EFEEEA" stroke="#0A047A" stroke-width="2" stroke-linecap="round" stroke-linejoin="round"/>
<path d="M982.478 548.004C986.229 543.505 990.592 539.553 995.438 536.262C997.363 534.946 999.416 533.663 1001.57 532.412C1020.11 521.856 1044.46 516.563 1068.81 516.531C1093.16 516.563 1117.51 521.857 1136.05 532.412C1138.2 533.663 1140.25 534.946 1142.18 536.262C1147.03 539.553 1151.39 543.505 1155.14 548.004H1164.16V571.296C1164.05 578.71 1161.64 585.907 1157.26 591.893C1151.73 599.369 1144.64 605.545 1136.47 609.988C1117.89 620.736 1093.35 626.093 1068.81 626.093C1044.27 626.093 1019.73 620.736 1001.15 609.988C992.983 605.545 985.887 599.369 980.361 591.893C975.984 585.907 973.574 578.71 973.463 571.296V548.004H982.478Z" fill="#2B6AFF" stroke="#0A047A" stroke-width="2" stroke-linecap="round" stroke-linejoin="round"/>
<path d="M1001.56 509.088C1007.11 505.912 1018.63 498.886 1025.08 496.64C1025.14 496.628 1025.19 496.606 1025.24 496.576C1039.2 491.94 1053.88 489.811 1068.58 490.288H1069.03C1083.74 489.811 1098.41 491.94 1112.37 496.576C1112.42 496.606 1112.48 496.628 1112.53 496.64C1118.98 498.886 1130.5 505.912 1136.05 509.088C1154.78 519.772 1164.15 533.889 1164.15 548.005C1164.15 561.993 1154.95 576.013 1136.47 586.664C1117.95 597.348 1093.51 602.706 1069.03 602.738H1068.58C1044.1 602.706 1019.66 597.348 1001.15 586.664C982.667 576.013 973.46 561.993 973.46 548.005C973.462 533.888 982.829 519.771 1001.56 509.088Z" fill="#FEC810" stroke="#0A047A" stroke-width="2" stroke-linecap="round" stroke-linejoin="round"/>
<path d="M1016.68 500.777C1019.4 499.238 1022.2 497.856 1025.08 496.638C1025.14 496.626 1025.19 496.604 1025.24 496.574C1053.28 485.751 1084.34 485.751 1112.37 496.574C1112.42 496.604 1112.48 496.626 1112.53 496.638C1115.41 497.856 1118.22 499.238 1120.94 500.777C1137.81 510.402 1144.9 523.62 1142.18 536.26C1140.25 545.277 1133.26 554.034 1121.29 560.932C1106.89 569.241 1087.83 573.412 1068.81 573.412C1049.78 573.412 1030.73 569.241 1016.32 560.932C1004.36 554.034 997.362 545.275 995.437 536.26C992.71 523.62 999.8 510.402 1016.68 500.777Z" fill="#EFEEEA" stroke="#0A047A" stroke-width="2" stroke-linecap="round" stroke-linejoin="round"/>
<path opacity="0.5" fill-rule="evenodd" clip-rule="evenodd" d="M1186 227H952L993.961 528.759C993.741 531.323 993.906 533.903 994.459 536.47C996.463 545.849 1003.7 554.811 1015.82 561.798C1030.42 570.216 1049.66 574.412 1068.81 574.412C1087.96 574.412 1107.2 570.216 1121.79 561.798C1133.91 554.811 1141.15 545.85 1143.16 536.47C1143.56 534.601 1143.76 532.724 1143.75 530.852L1186 227Z" fill="url(#paint10_linear)"/>
<path d="M493.898 419.062V642.605L343.642 729.364L297.422 702.667" stroke="#0A047A" stroke-width="2" stroke-linecap="round" stroke-linejoin="round"/>
<path d="M1823.06 599C1800.85 599 1782.84 580.995 1782.84 558.783C1782.84 536.572 1800.85 518.566 1823.06 518.566C1845.27 518.566 1863.27 536.572 1863.27 558.783C1863.27 580.995 1845.27 599 1823.06 599Z" fill="url(#paint11_linear)" stroke="#0A047A" stroke-width="2" stroke-linecap="round" stroke-linejoin="round"/>
<path d="M1822.87 494L1879 526.391L1823.06 558.872L1767 526.508L1822.87 494Z" stroke="#0A047A" stroke-width="2" stroke-linecap="round" stroke-linejoin="round"/>
<path d="M1879 526.391V591.192L1823.06 623.598L1767.11 591.192V526.391" stroke="#0A047A" stroke-width="2" stroke-linecap="round" stroke-linejoin="round"/>
<path d="M1823 559.631L1823 622.935" stroke="#0A047A" stroke-width="2" stroke-linecap="round" stroke-linejoin="round"/>
<path d="M2042.63 593L1823 719.797V879.938L2042.63 753.143V593Z" stroke="#0A047A" stroke-width="2" stroke-linecap="round" stroke-linejoin="round"/>
<path d="M1946 813L2107.81 906.413" stroke="#0A047A" stroke-width="2" stroke-linecap="round" stroke-linejoin="round" stroke-dasharray="4 4"/>
<path d="M1164.24 949.56L1730.51 622.584" stroke="#0A047A" stroke-width="2" stroke-linecap="round" stroke-linejoin="round"/>
<path d="M1922.3 214.042L2026.66 153.781V207.258L1922.3 267.228V214.042Z" fill="#EFEEEA" stroke="#0A047A" stroke-width="2" stroke-linecap="round" stroke-linejoin="round"/>
<path d="M1922.3 214.041L1702.71 87.0568L1806.73 27L2026.66 153.78L1922.3 214.041Z" fill="#2B6AFF" stroke="#0A047A" stroke-width="2" stroke-linecap="round" stroke-linejoin="round"/>
<path d="M1702.71 87.0586V140.995L1922.3 267.229V214.042L1702.71 87.0586Z" fill="#FF80ED" stroke="#0A047A" stroke-width="2" stroke-linecap="round" stroke-linejoin="round"/>
<path d="M1817.95 327.569L1922.31 267.309V320.786L1817.95 380.755V327.569Z" fill="#0A047A" stroke="#0A047A" stroke-width="2" stroke-linecap="round" stroke-linejoin="round"/>
<path d="M1817.95 327.57L1598.35 200.584L1702.37 140.529L1922.3 267.309L1817.95 327.57Z" fill="url(#paint12_linear)" stroke="#0A047A" stroke-width="2" stroke-linecap="round" stroke-linejoin="round"/>
<path d="M1598.35 200.584V254.523L1817.95 380.757V327.57L1598.35 200.584Z" fill="#2B6AFF" stroke="#0A047A" stroke-width="2" stroke-linecap="round" stroke-linejoin="round"/>
<path d="M1713.59 441.096L1817.95 380.836V434.313L1713.59 494.283V441.096Z" fill="#FF80ED" stroke="#0A047A" stroke-width="2" stroke-linecap="round" stroke-linejoin="round"/>
<path d="M1713.6 441.095L1494 314.111L1598.02 254.055L1817.95 380.835L1713.6 441.095Z" fill="#EFEEEA" stroke="#0A047A" stroke-width="2" stroke-linecap="round" stroke-linejoin="round"/>
<path d="M1494 314.111V368.048L1713.6 494.282V441.095L1494 314.111Z" fill="#0A047A" stroke="#0A047A" stroke-width="2" stroke-linecap="round" stroke-linejoin="round"/>
<path d="M1197.17 783.776L621.023 448.805" stroke="#0A047A" stroke-width="2" stroke-linecap="round" stroke-linejoin="round" stroke-dasharray="4 4"/>
<path d="M1597.97 401.845L901.793 796.298" stroke="#0A047A" stroke-width="2" stroke-linecap="round" stroke-linejoin="round" stroke-dasharray="4 4"/>
<path d="M447.647 669.748L597.896 583L1372.27 1030.09L1222 1116.83L447.647 669.748Z" fill="url(#paint13_linear)" stroke="#0A047A" stroke-width="2" stroke-linecap="round" stroke-linejoin="round"/>
<path d="M557.133 698.758C562.921 702.089 569.108 704.644 575.54 706.359C593.783 711.186 612.932 711.214 631.189 706.44C637.721 704.721 644.003 702.138 649.875 698.758C675.378 683.769 675.378 659.231 649.865 644.242C624.363 629.253 582.626 629.253 557.123 644.242C531.62 659.231 531.63 683.769 557.133 698.758Z" stroke="#0A047A" stroke-width="2" stroke-linecap="round" stroke-linejoin="round" stroke-dasharray="4 4"/>
<path d="M447.647 669.749V736.482L1222 1183.56L1222 1116.83L447.647 669.749Z" fill="#EFEEEA" stroke="#0A047A" stroke-width="2" stroke-linecap="round" stroke-linejoin="round"/>
<path d="M1222 1183.47L1372.25 1096.73L1372.27 1030L1222 1116.74L1222 1183.47Z" fill="#0A047A" stroke="#0A047A" stroke-width="2" stroke-linecap="round" stroke-linejoin="round"/>
<path d="M70.2173 956.73C105.174 936.547 162.375 936.547 197.331 956.73C232.288 976.913 232.288 1009.94 197.331 1030.13C162.375 1050.31 105.174 1050.31 70.2173 1030.13C35.2608 1009.94 35.2611 976.913 70.2173 956.73Z" fill="#FF80ED" stroke="#0A047A" stroke-width="2" stroke-linecap="round" stroke-linejoin="round"/>
<path d="M128.008 898.197C89.7092 898.197 58.662 867.148 58.662 828.848C58.662 790.548 89.7092 759.5 128.008 759.5C166.306 759.5 197.354 790.548 197.354 828.848C197.354 867.148 166.306 898.197 128.008 898.197Z" fill="#2B6AFF" stroke="#0A047A" stroke-width="2" stroke-linecap="round" stroke-linejoin="round"/>
</g>
<defs>
<linearGradient id="paint0_linear" x1="2194.33" y1="1924" x2="1416.33" y2="-1981" gradientUnits="userSpaceOnUse">
<stop stop-color="#EFEEEA" stop-opacity="0"/>
<stop offset="1" stop-color="#EFEEEA"/>
</linearGradient>
<linearGradient id="paint1_linear" x1="514" y1="334.999" x2="766" y2="719.499" gradientUnits="userSpaceOnUse">
<stop stop-color="#0A047A"/>
<stop offset="1" stop-color="#3874FF" stop-opacity="0"/>
</linearGradient>
<linearGradient id="paint2_linear" x1="1227.79" y1="549.201" x2="1227.79" y2="1156.43" gradientUnits="userSpaceOnUse">
<stop stop-color="#3874FF"/>
<stop offset="1" stop-color="#0A047A"/>
</linearGradient>
<linearGradient id="paint3_linear" x1="1302.94" y1="635.95" x2="1302.94" y2="1223.15" gradientUnits="userSpaceOnUse">
<stop stop-color="#FF80ED"/>
<stop offset="1" stop-color="#FEC810"/>
</linearGradient>
<linearGradient id="paint4_linear" x1="-615598" y1="148151" x2="-624310" y2="120380" gradientUnits="userSpaceOnUse">
<stop offset="0.1668" stop-color="#FEC810"/>
<stop offset="1" stop-color="#FF80ED"/>
</linearGradient>
<linearGradient id="paint5_linear" x1="418.178" y1="626.064" x2="228.358" y2="642.927" gradientUnits="userSpaceOnUse">
<stop stop-color="#FF80ED"/>
<stop offset="1" stop-color="#FEC810"/>
</linearGradient>
<linearGradient id="paint6_linear" x1="412.885" y1="993.702" x2="285.841" y2="993.702" gradientUnits="userSpaceOnUse">
<stop offset="0.2167" stop-color="#0A047A"/>
<stop offset="0.2858" stop-color="#12087E"/>
<stop offset="0.3928" stop-color="#281388"/>
<stop offset="0.5243" stop-color="#4B2599"/>
<stop offset="0.6753" stop-color="#7D3EB0"/>
<stop offset="0.8403" stop-color="#BC5ECD"/>
<stop offset="1" stop-color="#FF80ED"/>
</linearGradient>
<linearGradient id="paint7_linear" x1="-161419" y1="74070.8" x2="-173435" y2="84726.1" gradientUnits="userSpaceOnUse">
<stop offset="0.2028" stop-color="#FEC810"/>
<stop offset="0.2564" stop-color="#F2C31E"/>
<stop offset="0.358" stop-color="#D3B643"/>
<stop offset="0.497" stop-color="#A1A180"/>
<stop offset="0.6662" stop-color="#5D84D2"/>
<stop offset="0.7528" stop-color="#3874FF"/>
</linearGradient>
<linearGradient id="paint8_linear" x1="421.058" y1="33.8129" x2="246.519" y2="48.1922" gradientUnits="userSpaceOnUse">
<stop stop-color="#FF80ED"/>
<stop offset="1" stop-color="#FEC810"/>
</linearGradient>
<linearGradient id="paint9_linear" x1="292.231" y1="173.65" x2="292.231" y2="524.3" gradientUnits="userSpaceOnUse">
<stop stop-color="#0A047A"/>
<stop offset="1" stop-color="#3874FF"/>
</linearGradient>
<linearGradient id="paint10_linear" x1="1069" y1="195.98" x2="1069" y2="703.473" gradientUnits="userSpaceOnUse">
<stop offset="0.0208333" stop-color="#EFEEEA" stop-opacity="0"/>
<stop offset="1" stop-color="#FEC810"/>
</linearGradient>
<linearGradient id="paint11_linear" x1="1823.06" y1="518.566" x2="1823.06" y2="599" gradientUnits="userSpaceOnUse">
<stop stop-color="#FF80ED"/>
<stop offset="1" stop-color="#FEC810"/>
</linearGradient>
<linearGradient id="paint12_linear" x1="1804.57" y1="156.735" x2="1729.67" y2="287.43" gradientUnits="userSpaceOnUse">
<stop stop-color="#3874FF"/>
<stop offset="0.2333" stop-color="#7378FA"/>
<stop offset="0.4973" stop-color="#AF7BF4"/>
<stop offset="0.7226" stop-color="#DA7EF0"/>
<stop offset="0.8972" stop-color="#F57FEE"/>
<stop offset="1" stop-color="#FF80ED"/>
</linearGradient>
<linearGradient id="paint13_linear" x1="1233.57" y1="427.816" x2="397.489" y2="659.636" gradientUnits="userSpaceOnUse">
<stop stop-color="#FF80ED"/>
<stop offset="1" stop-color="#FEC810"/>
</linearGradient>
<clipPath id="clip0">
<rect width="2137" height="1223" fill="white"/>
</clipPath>
</defs>
</svg>
