<svg width="2137" height="1223" viewBox="0 0 2137 1223" fill="none" xmlns="http://www.w3.org/2000/svg">
<g clip-path="url(#clip0)">
<path d="M2327.08 1513.71L1577.84 1081.15L1577.84 1283.92L852 864.884V729.707L1062.75 608.022L1308.58 749.974L1308.61 398.495L1741.75 148L2327.22 486.359L2327.08 1513.71Z" fill="url(#paint0_linear)"/>
<path d="M1922.3 214.041L2026.66 153.78V207.257L1922.3 267.227V214.041Z" fill="#EFEEEA" stroke="#0A047A" stroke-width="2" stroke-linecap="round" stroke-linejoin="round"/>
<path d="M1922.3 214.041L1702.71 87.0568L1806.73 27L2026.66 153.78L1922.3 214.041Z" fill="#2B6AFF" stroke="#0A047A" stroke-width="2" stroke-linecap="round" stroke-linejoin="round"/>
<path d="M1702.71 87.0576V140.994L1922.3 267.228V214.041L1702.71 87.0576Z" fill="#FF80ED" stroke="#0A047A" stroke-width="2" stroke-linecap="round" stroke-linejoin="round"/>
<path d="M1817.95 327.57L1922.31 267.31V320.787L1817.95 380.756V327.57Z" fill="#0A047A" stroke="#0A047A" stroke-width="2" stroke-linecap="round" stroke-linejoin="round"/>
<path d="M1817.95 327.57L1598.35 200.584L1702.37 140.529L1922.3 267.309L1817.95 327.57Z" fill="url(#paint1_linear)" stroke="#0A047A" stroke-width="2" stroke-linecap="round" stroke-linejoin="round"/>
<path d="M1598.35 200.584V254.523L1817.95 380.757V327.57L1598.35 200.584Z" fill="#2B6AFF" stroke="#0A047A" stroke-width="2" stroke-linecap="round" stroke-linejoin="round"/>
<path d="M1713.59 441.096L1817.95 380.836V434.313L1713.59 494.283V441.096Z" fill="#FF80ED" stroke="#0A047A" stroke-width="2" stroke-linecap="round" stroke-linejoin="round"/>
<path d="M1713.6 441.096L1494 314.112L1598.02 254.056L1817.95 380.836L1713.6 441.096Z" fill="#EFEEEA" stroke="#0A047A" stroke-width="2" stroke-linecap="round" stroke-linejoin="round"/>
<path d="M1494 314.111V368.048L1713.6 494.282V441.095L1494 314.111Z" fill="#0A047A" stroke="#0A047A" stroke-width="2" stroke-linecap="round" stroke-linejoin="round"/>
<path d="M1568.34 978.379L1487.42 931.66L1603 864.929L1510.54 811.557L1636.59 737.504L1324.51 557.331" stroke="#0A047A" stroke-width="2" stroke-linecap="round" stroke-linejoin="round"/>
<path d="M447.633 389.017V711.039L785.869 906.331L785.375 584.018L447.633 389.017Z" fill="url(#paint2_linear)" stroke="#0A047A" stroke-width="2" stroke-linecap="round" stroke-linejoin="round"/>
<path d="M1753.66 635.949L1603.41 549.201L701.923 1069.68L852.187 1156.43L1753.66 635.949Z" fill="url(#paint3_linear)" stroke="#0A047A" stroke-width="2" stroke-linecap="round" stroke-linejoin="round"/>
<path d="M1753.65 635.95L1753.7 702.661L852.18 1223.15L852.182 1156.43L1753.65 635.95Z" fill="url(#paint4_linear)" stroke="#0A047A" stroke-width="2" stroke-linecap="round" stroke-linejoin="round"/>
<path d="M852.181 1223.15L701.932 1136.41L701.919 1069.68L852.184 1156.43L852.181 1223.15Z" fill="#FEC810" stroke="#0A047A" stroke-width="2" stroke-linecap="round" stroke-linejoin="round"/>
<path d="M447.649 615.54L644.156 728.984L447.649 842.441L251.177 728.984L447.649 615.54Z" fill="url(#paint5_linear)" stroke="#0A047A" stroke-width="2" stroke-linecap="round" stroke-linejoin="round"/>
<path d="M447.647 842.44V1083.02L644.121 969.588V728.983L447.647 842.44Z" fill="#2B6AFF" stroke="#0A047A" stroke-width="2" stroke-linecap="round" stroke-linejoin="round"/>
<path d="M447.648 842.44V1083.02L251.176 969.588V728.983L447.648 842.44Z" fill="url(#paint6_linear)" stroke="#0A047A" stroke-width="2" stroke-linecap="round" stroke-linejoin="round"/>
<path d="M285.841 909.512V989.591L412.885 1062.94V982.934C412.407 962.65 407.561 942.707 398.678 924.465C387.029 899.602 369.221 877.669 349.351 866.194C314.429 845.976 285.841 865.474 285.841 909.512Z" fill="#EFEEEA" stroke="#0A047A" stroke-width="2" stroke-linecap="round" stroke-linejoin="round"/>
<path d="M308.941 976.261V861.218" stroke="#0A047A" stroke-width="2" stroke-linecap="round" stroke-linejoin="round"/>
<path d="M332.426 962.719V859.479" stroke="#0A047A" stroke-width="2" stroke-linecap="round" stroke-linejoin="round"/>
<path d="M355.197 949.572V870.299" stroke="#0A047A" stroke-width="2" stroke-linecap="round" stroke-linejoin="round"/>
<path d="M285.841 989.591L412.885 1062.94V982.935C412.407 962.65 407.561 942.707 398.678 924.465L285.841 989.591Z" fill="url(#paint7_linear)" stroke="#0A047A" stroke-width="2" stroke-linecap="round" stroke-linejoin="round"/>
<path d="M251.174 728.983L274.305 742.699V769.4L251.174 756.045V728.983Z" fill="#FF80ED" stroke="#0A047A" stroke-width="2" stroke-linecap="round" stroke-linejoin="round"/>
<path d="M378.322 936.223V891.786" stroke="#0A047A" stroke-width="2" stroke-linecap="round" stroke-linejoin="round"/>
<path d="M267.668 420.087L267.722 202.166C267.725 193.508 270.002 185.004 274.328 177.504C278.653 170.005 284.873 163.774 292.365 159.436L333.284 135.746L448.127 202.055L382.57 391.644L382.51 486.396L267.668 420.087Z" fill="url(#paint8_linear)" stroke="#0A047A" stroke-width="2" stroke-linecap="round" stroke-linejoin="round"/>
<path d="M448.127 615.247L448.126 202.057L407.207 225.747C399.715 230.084 393.495 236.315 389.17 243.815C384.845 251.314 382.567 259.819 382.565 268.476L382.511 653.125" fill="#FEC810" stroke="#0A047A" stroke-width="2" stroke-linecap="round" stroke-linejoin="round"/>
<path d="M202.002 457.99L202.056 240.069C202.058 231.412 204.336 222.907 208.661 215.407C212.986 207.908 219.206 201.677 226.698 197.34L267.618 173.649L382.461 239.958L316.903 429.547L316.843 524.299L202.002 457.99Z" fill="url(#paint9_linear)" stroke="#0A047A" stroke-width="2" stroke-linecap="round" stroke-linejoin="round"/>
<path d="M382.461 651.979L382.461 239.96L341.542 263.651C334.05 267.988 327.829 274.219 323.504 281.718C319.179 289.218 316.901 297.722 316.899 306.38L316.845 689.858" fill="#2B6AFF"/>
<path d="M382.461 651.979L382.461 239.96L341.542 263.651C334.05 267.988 327.829 274.219 323.504 281.718C319.179 289.218 316.901 297.722 316.899 306.38L316.845 689.858" stroke="#0A047A" stroke-width="2" stroke-linecap="round" stroke-linejoin="round"/>
<path d="M136.308 823.42L136.363 277.96C136.365 269.303 138.643 260.798 142.968 253.299C147.293 245.8 153.513 239.569 161.005 235.231L201.925 211.541L316.768 277.85L251.21 467.437L251.15 892.303L136.308 823.42Z" fill="#EFEEEA" stroke="#0A047A" stroke-width="2" stroke-linecap="round" stroke-linejoin="round"/>
<path d="M316.774 690.067L316.774 277.85L275.855 301.54C268.363 305.877 262.143 312.108 257.818 319.608C253.493 327.107 251.215 335.612 251.213 344.269L251.158 727.946" fill="#FF80ED"/>
<path d="M316.774 690.067L316.774 277.85L275.855 301.54C268.363 305.877 262.143 312.108 257.818 319.608C253.493 327.107 251.215 335.612 251.213 344.269L251.158 727.946" stroke="#0A047A" stroke-width="2" stroke-linecap="round" stroke-linejoin="round"/>
<path d="M493.898 419.063V642.606L343.642 729.365L297.422 702.668" stroke="#0A047A" stroke-width="2" stroke-linecap="round" stroke-linejoin="round"/>
<path d="M2042.63 593L1823 719.797V879.938L2042.63 753.143V593Z" stroke="#0A047A" stroke-width="2" stroke-linecap="round" stroke-linejoin="round"/>
<path d="M1946 813L2107.81 906.413" stroke="#0A047A" stroke-width="2" stroke-linecap="round" stroke-linejoin="round" stroke-dasharray="4 4"/>
<path d="M1164.24 949.56L1730.51 622.584" stroke="#0A047A" stroke-width="2" stroke-linecap="round" stroke-linejoin="round"/>
<path d="M1197.17 783.776L621.023 448.805" stroke="#0A047A" stroke-width="2" stroke-linecap="round" stroke-linejoin="round" stroke-dasharray="4 4"/>
<path d="M1597.97 401.845L935 777.482" stroke="#0A047A" stroke-width="2" stroke-linecap="round" stroke-linejoin="round" stroke-dasharray="4 4"/>
<path d="M447.647 669.748L597.896 583L1372.27 1030.09L1222 1116.83L447.647 669.748Z" fill="url(#paint10_linear)" stroke="#0A047A" stroke-width="2" stroke-linecap="round" stroke-linejoin="round"/>
<path d="M557.133 698.758C562.921 702.089 569.108 704.644 575.54 706.359C593.783 711.186 612.932 711.214 631.189 706.44C637.721 704.721 644.003 702.138 649.875 698.758C675.378 683.769 675.378 659.231 649.865 644.242C624.363 629.253 582.626 629.253 557.123 644.242C531.62 659.231 531.63 683.769 557.133 698.758Z" stroke="#0A047A" stroke-width="2" stroke-linecap="round" stroke-linejoin="round" stroke-dasharray="4 4"/>
<path d="M447.647 669.749V736.482L1222 1183.56L1222 1116.83L447.647 669.749Z" fill="#EFEEEA" stroke="#0A047A" stroke-width="2" stroke-linecap="round" stroke-linejoin="round"/>
<path d="M1222 1183.47L1372.25 1096.73L1372.27 1030L1222 1116.74L1222 1183.47Z" fill="#0A047A" stroke="#0A047A" stroke-width="2" stroke-linecap="round" stroke-linejoin="round"/>
<path d="M70.2173 956.73C105.174 936.547 162.375 936.547 197.331 956.73C232.288 976.913 232.288 1009.94 197.331 1030.13C162.375 1050.31 105.174 1050.31 70.2173 1030.13C35.2608 1009.94 35.2611 976.913 70.2173 956.73Z" fill="#FF80ED" stroke="#0A047A" stroke-width="2" stroke-linecap="round" stroke-linejoin="round"/>
<path d="M128.008 898.197C89.7092 898.197 58.662 867.148 58.662 828.848C58.662 790.548 89.7092 759.5 128.008 759.5C166.306 759.5 197.354 790.548 197.354 828.848C197.354 867.148 166.306 898.197 128.008 898.197Z" fill="#2B6AFF" stroke="#0A047A" stroke-width="2" stroke-linecap="round" stroke-linejoin="round"/>
<path d="M448.051 349.608L494.207 323L644 409.568L598.017 436.197L448.051 349.608Z" fill="#FEC810" stroke="#0A047A" stroke-width="2" stroke-linecap="round" stroke-linejoin="round"/>
<path fill-rule="evenodd" clip-rule="evenodd" d="M494.186 362.942C487.85 359.28 487.85 353.281 494.186 349.618C500.522 345.955 510.888 345.955 517.233 349.618L601.098 398.139C607.434 401.802 607.434 407.801 601.098 411.464C594.762 415.126 584.396 415.126 578.05 411.464L494.186 362.942Z" fill="#0A047A" stroke="#0A047A" stroke-width="2" stroke-linecap="round" stroke-linejoin="round"/>
<path d="M1823.06 599C1800.85 599 1782.84 580.995 1782.84 558.783C1782.84 536.572 1800.85 518.566 1823.06 518.566C1845.27 518.566 1863.27 536.572 1863.27 558.783C1863.27 580.995 1845.27 599 1823.06 599Z" fill="url(#paint11_linear)" stroke="#0A047A" stroke-width="2" stroke-linecap="round" stroke-linejoin="round"/>
<path d="M1822.87 494L1879 526.391L1823.06 558.872L1767 526.508L1822.87 494Z" stroke="#0A047A" stroke-width="2" stroke-linecap="round" stroke-linejoin="round"/>
<path d="M1879 526.39V591.191L1823.06 623.597L1767.11 591.191V526.39" stroke="#0A047A" stroke-width="2" stroke-linecap="round" stroke-linejoin="round"/>
<path d="M1823 559.631L1823 622.935" stroke="#0A047A" stroke-width="2" stroke-linecap="round" stroke-linejoin="round"/>
</g>
<defs>
<linearGradient id="paint0_linear" x1="2194.33" y1="1924" x2="1416.33" y2="-1981" gradientUnits="userSpaceOnUse">
<stop stop-color="#EFEEEA" stop-opacity="0"/>
<stop offset="1" stop-color="#EFEEEA"/>
</linearGradient>
<linearGradient id="paint1_linear" x1="1804.57" y1="156.735" x2="1729.67" y2="287.43" gradientUnits="userSpaceOnUse">
<stop stop-color="#3874FF"/>
<stop offset="0.2333" stop-color="#7378FA"/>
<stop offset="0.4973" stop-color="#AF7BF4"/>
<stop offset="0.7226" stop-color="#DA7EF0"/>
<stop offset="0.8972" stop-color="#F57FEE"/>
<stop offset="1" stop-color="#FF80ED"/>
</linearGradient>
<linearGradient id="paint2_linear" x1="514" y1="335" x2="766" y2="719.5" gradientUnits="userSpaceOnUse">
<stop stop-color="#0A047A"/>
<stop offset="1" stop-color="#3874FF" stop-opacity="0"/>
</linearGradient>
<linearGradient id="paint3_linear" x1="1227.79" y1="549.201" x2="1227.79" y2="1156.43" gradientUnits="userSpaceOnUse">
<stop stop-color="#3874FF"/>
<stop offset="1" stop-color="#0A047A"/>
</linearGradient>
<linearGradient id="paint4_linear" x1="1302.94" y1="635.95" x2="1302.94" y2="1223.15" gradientUnits="userSpaceOnUse">
<stop stop-color="#FF80ED"/>
<stop offset="1" stop-color="#FEC810"/>
</linearGradient>
<linearGradient id="paint5_linear" x1="-615598" y1="148151" x2="-624310" y2="120380" gradientUnits="userSpaceOnUse">
<stop offset="0.1668" stop-color="#FEC810"/>
<stop offset="1" stop-color="#FF80ED"/>
</linearGradient>
<linearGradient id="paint6_linear" x1="418.178" y1="626.064" x2="228.358" y2="642.927" gradientUnits="userSpaceOnUse">
<stop stop-color="#FF80ED"/>
<stop offset="1" stop-color="#FEC810"/>
</linearGradient>
<linearGradient id="paint7_linear" x1="412.885" y1="993.702" x2="285.841" y2="993.702" gradientUnits="userSpaceOnUse">
<stop offset="0.2167" stop-color="#0A047A"/>
<stop offset="0.2858" stop-color="#12087E"/>
<stop offset="0.3928" stop-color="#281388"/>
<stop offset="0.5243" stop-color="#4B2599"/>
<stop offset="0.6753" stop-color="#7D3EB0"/>
<stop offset="0.8403" stop-color="#BC5ECD"/>
<stop offset="1" stop-color="#FF80ED"/>
</linearGradient>
<linearGradient id="paint8_linear" x1="421.058" y1="33.8129" x2="246.519" y2="48.1922" gradientUnits="userSpaceOnUse">
<stop stop-color="#FF80ED"/>
<stop offset="1" stop-color="#FEC810"/>
</linearGradient>
<linearGradient id="paint9_linear" x1="292.231" y1="173.649" x2="292.231" y2="524.299" gradientUnits="userSpaceOnUse">
<stop stop-color="#0A047A"/>
<stop offset="1" stop-color="#3874FF"/>
</linearGradient>
<linearGradient id="paint10_linear" x1="1233.57" y1="427.816" x2="397.489" y2="659.636" gradientUnits="userSpaceOnUse">
<stop stop-color="#FF80ED"/>
<stop offset="1" stop-color="#FEC810"/>
</linearGradient>
<linearGradient id="paint11_linear" x1="1823.06" y1="518.566" x2="1823.06" y2="599" gradientUnits="userSpaceOnUse">
<stop stop-color="#FF80ED"/>
<stop offset="1" stop-color="#FEC810"/>
</linearGradient>
<clipPath id="clip0">
<rect width="2137" height="1223" fill="white"/>
</clipPath>
</defs>
</svg>
