<svg xmlns="http://www.w3.org/2000/svg" viewBox="0 0 400.79 66.44"><defs><style>.cls-1{fill:#485770;}.cls-2{fill:#1d1511;}</style></defs><g id="Layer_2" data-name="Layer 2"><g id="Layer_1-2" data-name="Layer 1"><path class="cls-1" d="M0,0V15.57H50.87V66.44H66.44V0Z"/><path class="cls-1" d="M31,27.14H0v31Z"/><path class="cls-1" d="M8.28,66.44h31v-31Z"/><path class="cls-2" d="M79.4,32.86C79.66,39.5,82.75,46.08,93,46.08c9.4,0,13.74-5.79,13.74-12.82,0-7.43-3.61-11-11.57-14.67-5.19-2.43-6.64-3.94-6.64-7.16,0-3,1.38-5.07,4.54-5.07,4.07,0,4.73,3.75,4.93,6.32h7.82C105.7,6.89,103.27.12,93.21.12c-8,0-12.63,4.86-12.63,12,0,6.64,3,9.87,10.66,13.48,5.58,2.63,7.36,4.8,7.36,8.42,0,3.35-1.45,5.78-5.33,5.78-4.07,0-5.58-3.22-6-6.9ZM113.58.78V45.29h8V.78Zm17.18,44.51h22.42l.79-6.77H138.71V.78h-8Zm40.67,0L182.61.78h-8.35l-3.94,19.06c-1.25,5.85-2.9,12.49-3.42,17h-.14c-.52-4.61-1.7-11.18-3-17.16L159.66.78h-8.61l11,44.51ZM210,18.59H195.66V7.74h15v-7H187.84V45.29h22.88l1-6.84h-16v-13H210Zm19.23,7.7c5.07,0,6.45,2,6.45,8v1.58c0,3.81.06,7.36.72,9.4h7.69a57.09,57.09,0,0,1-.59-9.34V34.18c0-6.58-1.64-9.47-5.06-11.12,2.3-.92,5.78-3.68,5.78-10.12,0-7.89-4.6-12.16-12.69-12.16H217.91V45.29h7.89v-19ZM225.8,7.22h4.54c4.08,0,5.92,2.23,5.92,6.11,0,4.47-1.91,6.51-6.71,6.51H225.8Zm23.94,25.64c.26,6.64,3.35,13.22,13.61,13.22,9.4,0,13.74-5.79,13.74-12.82,0-7.43-3.62-11-11.57-14.67-5.2-2.43-6.64-3.94-6.64-7.16,0-3,1.38-5.07,4.53-5.07,4.08,0,4.74,3.75,4.93,6.32h7.83C276,6.89,273.6.12,263.54.12c-8,0-12.62,4.86-12.62,12,0,6.64,3,9.87,10.65,13.48,5.59,2.63,7.36,4.8,7.36,8.42,0,3.35-1.44,5.78-5.32,5.78-4.08,0-5.59-3.22-6-6.9Zm61.34,12.43h7.62V.78H307.07C304.77,12.54,302,26,301.08,32H301c-.92-6.51-3-18.94-5.26-31.23h-11.9V45.29h7.23V29.51c0-7.69-.2-17-.46-22.23h.26c1.45,8.62,4,24.59,6.18,38h7.17c2.89-14.4,5.39-29.39,6.9-37.87h.2c-.13,5.06-.26,13.74-.26,21.3ZM327.74.78V45.29h8V.78ZM350.9,45.29h8V7.74h9.54v-7h-27v7h9.54Zm23.19,0h8v-20h10.72v20h8V.78h-8V18.4H382.05V.78h-8Z"/><path class="cls-2" d="M89.85,62.81a3.51,3.51,0,0,1-3.68,2.26c-2.68,0-4.28-2.06-4.28-4.69s1.61-4.64,4.27-4.64a3.56,3.56,0,0,1,3.71,2.35h1.68c-.46-1.91-2-3.7-5.38-3.7a5.81,5.81,0,0,0-6,6c0,3.32,2.08,6,5.92,6,3.31,0,4.76-1.64,5.41-3.63Zm21.2-.11,1.55,3.5h1.79l-5.18-11.56h-2l-5,11.56H104l1.5-3.5ZM106,61.3c1.18-2.76,2-4.74,2.2-5.49h0c.26.78.93,2.29,2.34,5.49ZM126,66.2h1.64V61.57h3.84c2.58,0,4.14-1.27,4.14-3.53,0-1.92-1.32-3.4-4.18-3.4H126ZM127.65,56h3.62c1.82,0,2.7.75,2.7,2.06,0,1.67-1.11,2.13-2.7,2.13h-3.62Zm20.09-1.36V66.2h1.64V54.64ZM165.49,66.2h1.65V56h4.39V54.64H161.08V56h4.41ZM189,62.7l1.55,3.5h1.79l-5.18-11.56h-2l-5,11.56h1.69l1.5-3.5Zm-5.09-1.4c1.17-2.76,1.95-4.74,2.2-5.49h0c.26.78.93,2.29,2.35,5.49Zm20,4.9h8.35l.25-1.39h-7V54.64H204Zm34.82,0h1.64V61.57h3.85c2.57,0,4.13-1.27,4.13-3.53,0-1.92-1.32-3.4-4.18-3.4h-5.44ZM240.41,56H244c1.82,0,2.7.75,2.7,2.06,0,1.67-1.1,2.13-2.7,2.13h-3.62Zm26.24,6.7,1.55,3.5H270l-5.18-11.56h-2l-5,11.56h1.69l1.5-3.5Zm-5.1-1.4c1.18-2.76,2-4.74,2.2-5.49h0c.26.78.93,2.29,2.34,5.49Zm24.86-.09c2,0,2.7.54,2.7,2.25v.38a8.79,8.79,0,0,0,.15,2.36h1.66a12,12,0,0,1-.13-2.35v-.5c0-2-1-2.61-1.81-2.82a2.64,2.64,0,0,0,2.12-2.77c0-2-1.6-3.12-4-3.12h-5.52V66.2h1.61v-5ZM283.23,56h3.55c1.75,0,2.64.64,2.64,1.89s-.89,2-2.7,2h-3.49Zm23.4,10.23h1.64V56h4.4V54.64H302.22V56h4.41Zm19.28,0V61.48c0-2.06,0-3.68-.08-5.18h0c.83,1.35,5.36,7.59,7.08,9.9h1.84V54.64h-1.53V59c0,1.88,0,3.72.1,5.21h0c-.65-1.18-4.38-5.94-7-9.55h-1.95V66.2Zm30.6-6.78h-6.93V56h7.29V54.64h-8.94V66.2H357l.23-1.39h-7.65v-4h6.93Zm17.67,1.79c2,0,2.7.54,2.7,2.25v.38A8.79,8.79,0,0,0,377,66.2h1.66a12,12,0,0,1-.13-2.35v-.5c0-2-1-2.61-1.81-2.82a2.64,2.64,0,0,0,2.12-2.77c0-2-1.6-3.12-4-3.12h-5.52V66.2H371v-5ZM371,56h3.55c1.75,0,2.64.64,2.64,1.89s-.89,2-2.7,2H371Zm19.4,6.86c.39,2.13,2,3.61,5.24,3.61,3.48,0,4.95-1.58,4.95-3.42,0-1.61-.67-2.9-4.84-3.61-2.63-.44-3.11-1-3.11-2,0-1.16,1.08-1.73,2.74-1.73,2.44,0,2.93,1.05,3.17,1.84h1.65c-.13-1.17-1-3.14-4.77-3.14-2.53,0-4.45,1.16-4.45,3.19,0,1.58.83,2.67,4.3,3.26,3,.51,3.63,1.21,3.63,2.35s-.88,2-3.16,2-3.25-1-3.68-2.31Z"/></g></g></svg>