<svg xmlns="http://www.w3.org/2000/svg" viewBox="0 0 1715.06 612.19"><defs><style>.cls-1{fill:#0a1d57;}.cls-2{fill:#302db6;}.cls-3{fill:#302db7;}</style></defs><g id="Layer_2" data-name="Layer 2"><g id="Layer_1-2" data-name="Layer 1"><path class="cls-1" d="M307.61,612.19H97.66A97.7,97.7,0,0,1,.11,514.69Q.11,337.25,0,159.81c0-4.72,1-6.07,5.88-6q41.24.42,82.48,0c4.71,0,6,1,6,5.9-.17,108.47.1,216.93-.37,325.39-.07,16.59,9.1,29,28.84,29.11h3.5q241.44,0,482.89-.14c5.21,0,6.23,1.38,6,6.28C613,566.91,575,606.93,528.52,611.46c-4.63.46-9.3.7-13.95.7Q411.08,612.22,307.61,612.19Z"/><path class="cls-2" d="M249.1,97.91q-121.71,0-243.43.1C1.08,98-.13,96.82,0,92.28c1.57-43.7,37.2-84,80.43-90.82A124.77,124.77,0,0,1,99.85,0H517.23a97.5,97.5,0,0,1,95.29,74.22,94.18,94.18,0,0,1,2.78,23.23q-.06,177.44,0,354.86c0,4.76-1.05,6.08-6,6q-41.48-.39-83,0c-4.41,0-5.46-1-5.45-5.46q.19-164.69.1-329.37c0-14.11-9.33-24.12-23.56-25.2-3.15-.24-6.31-.39-9.47-.39Q368.57,97.89,249.1,97.91Z"/><path class="cls-3" d="M1557.49,113.61c50.65,0,101.3.07,152-.12,4.72,0,5.67,1.38,5.62,5.78q-.35,30.24,0,60.48c0,3.85-1.11,4.62-4.75,4.61-35-.14-70,0-105-.2-4.85,0-6.36.88-6.35,6.15.19,100.62.09,201.24.28,301.86,0,5.4-1.58,6.39-6.57,6.32q-33-.4-66,0c-4.54.06-5.4-1.24-5.39-5.52q.18-150.94.08-301.87c0-8,1-6.8-6.89-6.81q-55.23-.08-110.46.06c-3.86,0-5.06-.89-5-4.93q.33-30.48,0-61c0-4,1.11-4.95,5-4.94Q1480.78,113.72,1557.49,113.61Z"/><path class="cls-2" d="M757.88,305.54q0-93.2-.12-186.39c0-4.7,1.37-5.69,5.81-5.65q33,.34,66,0c4.78-.06,6.09,1.1,6.08,6q-.23,150.92-.11,301.83c0,7.48-.85,6.62,6.69,6.62q81.21,0,162.42-.08c4.23,0,5.6.8,5.53,5.36-.28,20.15-.23,40.31,0,60.47,0,3.82-1.06,4.65-4.73,4.63-31.49-.15-63-.1-94.46-.08-49.31,0-98.62,0-147.92.24-4.52,0-5.44-1.23-5.43-5.53q.21-93.69.1-187.39Z"/><path class="cls-2" d="M1209,306q0-93.21-.1-186.42c0-4.51,1-5.8,5.66-5.74q33.24.38,66.48,0c4.42,0,5.52,1.12,5.51,5.53q-.19,151.19-.09,302.38c0,7.5-.54,6.42,6.35,6.42,54.15,0,108.31.1,162.45-.12,5,0,5.9,1.42,5.83,6.06-.27,20-.21,40,0,60,0,3.58-1,4.33-4.45,4.32q-121.45-.15-242.92,0c-4.13,0-4.78-1.32-4.77-5Q1209.08,399.75,1209,306Z"/><path class="cls-2" d="M1149.46,305.91q0,93.21.12,186.41c0,4.85-1.24,6.07-6,6-22.32-.28-44.65-.23-67,0-3.84,0-4.63-1.07-4.63-4.74q.15-187.65,0-375.32c0-3.67.79-4.77,4.63-4.74q33.74.3,67.47,0c4.39,0,5.55,1.07,5.54,5.5Q1149.35,212.45,1149.46,305.91Z"/><path class="cls-1" d="M312.64,391.91c-47.6,0-86.55-38.84-86.34-86.41.23-51.5,42.94-87.19,87.77-86.41,47.22.81,85.05,39.09,85,87.6C399,353.37,359.92,391.94,312.64,391.91Z"/></g></g></svg>