<svg width="486" height="486" viewBox="0 0 486 486" fill="none" xmlns="http://www.w3.org/2000/svg">
<path d="M4 332C4.00035 339.092 5.38457 346.114 8.07363 352.666C10.7627 359.218 14.7039 365.171 19.6723 370.186C24.6406 375.2 30.5388 379.178 37.03 381.891C43.5212 384.604 50.4783 386.001 57.5041 386C71.692 386 85.2988 380.31 95.3311 370.183C105.364 360.057 111 346.322 111 332C111 339.071 87.0443 344.799 57.5041 344.799C27.9557 344.799 4 339.071 4 332Z" fill="url(#paint0_linear)" stroke="#0A047A" stroke-width="2" stroke-linecap="round" stroke-linejoin="round"/>
<path d="M4 332.354C4 339.34 27.9557 345 57.5041 345C87.0443 345 111 339.34 111 332.354C111 318.204 105.364 304.633 95.3311 294.627C85.2988 284.621 71.692 279 57.5041 279C50.4783 278.999 43.5212 280.379 37.03 283.06C30.5388 285.741 24.6406 289.67 19.6723 294.625C14.7039 299.579 10.7627 305.461 8.07363 311.935C5.38457 318.408 4.00035 325.347 4 332.354V332.354Z" fill="#EFEEEA" stroke="#0A047A" stroke-width="2" stroke-linecap="round" stroke-linejoin="round"/>
<path d="M4 332.5C4 339.406 27.9557 345 57.5041 345C87.0443 345 111 339.406 111 332.5C111 325.594 87.0443 320 57.5041 320C27.9557 320 4 325.594 4 332.5Z" fill="url(#paint1_linear)" stroke="#0A047A" stroke-width="2" stroke-linecap="round" stroke-linejoin="round"/>
<defs>
<linearGradient id="paint0_linear" x1="57.5" y1="332" x2="57.5" y2="386" gradientUnits="userSpaceOnUse">
<stop stop-color="#0A047A"/>
<stop offset="1" stop-color="#3874FF"/>
</linearGradient>
<linearGradient id="paint1_linear" x1="57.5" y1="320" x2="57.5" y2="345" gradientUnits="userSpaceOnUse">
<stop stop-color="#FF80ED"/>
<stop offset="1" stop-color="#FEC810"/>
</linearGradient>
</defs>
</svg>
