<svg width="486" height="486" viewBox="0 0 486 486" fill="none" xmlns="http://www.w3.org/2000/svg">
<path d="M350.121 293.713C352.875 290.41 356.078 287.508 359.636 285.093C361.049 284.126 362.557 283.185 364.135 282.266C377.748 274.517 395.624 270.631 413.501 270.608C431.377 270.631 449.254 274.518 462.867 282.266C464.445 283.185 465.953 284.126 467.365 285.093C470.924 287.508 474.127 290.41 476.881 293.713L483.5 293.713L483.5 310.812C483.419 316.255 481.649 321.538 478.436 325.933C474.379 331.421 469.17 335.955 463.174 339.217C449.537 347.107 431.519 351.04 413.502 351.04C395.484 351.04 377.466 347.107 363.829 339.217C357.833 335.955 352.624 331.421 348.567 325.933C345.354 321.538 343.585 316.255 343.503 310.812L343.503 293.713L350.121 293.713Z" fill="#2B6AFF" stroke="#0A047A" stroke-width="2" stroke-linecap="round" stroke-linejoin="round"/>
<path d="M364.133 265.146C368.208 262.814 376.663 257.656 381.397 256.007C381.439 255.998 381.479 255.982 381.515 255.96C391.766 252.556 402.538 250.994 413.334 251.344L413.664 251.344C424.459 250.994 435.232 252.556 445.483 255.96C445.519 255.982 445.559 255.998 445.6 256.007C450.335 257.656 458.79 262.814 462.864 265.146C476.619 272.989 483.497 283.352 483.497 293.715C483.497 303.984 476.737 314.277 463.171 322.096C449.581 329.939 431.634 333.872 413.663 333.896L413.334 333.896C395.363 333.872 377.416 329.939 363.826 322.096C350.259 314.277 343.5 303.984 343.5 293.715C343.501 283.351 350.378 272.988 364.133 265.146Z" fill="#FEC810" stroke="#0A047A" stroke-width="2" stroke-linecap="round" stroke-linejoin="round"/>
<path d="M375.225 259.044C377.222 257.915 379.283 256.9 381.396 256.006C381.437 255.997 381.477 255.981 381.514 255.959C402.096 248.014 424.9 248.014 445.482 255.959C445.519 255.981 445.558 255.997 445.6 256.006C447.713 256.9 449.774 257.915 451.771 259.044C464.159 266.11 469.365 275.814 467.363 285.093C465.95 291.713 460.815 298.141 452.03 303.205C441.454 309.305 427.465 312.367 413.498 312.367C399.531 312.367 385.541 309.305 374.966 303.205C366.181 298.141 361.046 291.712 359.633 285.093C357.631 275.814 362.836 266.11 375.225 259.044Z" fill="#EFEEEA" stroke="#0A047A" stroke-width="2" stroke-linecap="round" stroke-linejoin="round"/>
</svg>
