<svg xmlns="http://www.w3.org/2000/svg" viewBox="0 0 1673.65 207.83"><defs><style>.cls-1{fill:#136bf2;}</style></defs><g id="Layer_2" data-name="Layer 2"><g id="Layer_1-2" data-name="Layer 1"><path class="cls-1" d="M127.08,5.07c5.64,0,8.46,2.84,8.46,8.49V45.17c0,5.37-2.82,8.49-8.46,8.49H58.74c-5.37,0-8.48,2.82-8.48,8.47v9c0,5.37,3.11,8.47,8.48,8.47h43.77c5.65,0,8.47,2.84,8.47,8.49v31.61c0,5.38-2.82,8.49-8.47,8.49H58.74c-5.37,0-8.48,2.81-8.48,8.46v9c0,5.38,3.11,8.49,8.48,8.49h68.34c5.64,0,8.46,2.81,8.46,8.46v31.64c0,5.63-2.82,8.46-8.46,8.46H8.48c-5.37,0-8.48-3.1-8.48-8.46V13.56C0,7.91,3.11,5.07,8.48,5.07Z"/><path class="cls-1" d="M228.67,5.07c53.09,0,70.6,21.47,70.6,67.78v61.84c0,46.31-17.51,68.06-70.6,68.06h-63c-5.37,0-8.47-3.1-8.47-8.46V13.83c0-5.65,2.82-8.47,8.47-8.76Zm.85,149.12c13.56,0,20.33-2.28,20.33-19.21V72.85c0-17.51-6.77-19.19-20.33-19.19H214.27c-5.36,0-8.48,2.82-8.48,8.47V145.7c0,5.38,3.12,8.49,8.48,8.49Z"/><path class="cls-1" d="M321.79,68.61C321.79,50,325.74,0,392.67,0c59.3,0,69.18,39,70.59,61,.28,5.09-2.26,8.2-7.34,9.32L424,77.37c-5.65,1.13-8.76-1.41-9.32-7.34-1.12-13.55-5.93-21.46-22-21.46-20.9,0-22.31,13.27-22.31,35v40.67c0,21.74,1.41,35,22.31,35S415,146,415,132.16H398.6c-5.37,0-8.48-3.11-8.48-8.48V101.09c0-5.65,3.11-8.47,8.48-8.47h56.47q8.48,0,8.47,8.47v38.13c0,18.63-4,68.61-70.87,68.61s-70.88-50-70.88-68.61Z"/><path class="cls-1" d="M625.28,193.15c0,6.21-2.81,9.6-8.46,9.6H585.19c-5.37,0-8.47-2.83-8.47-8.46V169.71c0-5.65-2.83-8.46-8.47-8.46H544c-5.37,0-8.47,2.81-8.47,8.46v24.58c0,5.63-2.83,8.46-8.47,8.46H495.39c-5.36,0-8.47-3.39-8.47-9.6V73.41C486.92,37.84,492.56,0,556.11,0s69.17,37.84,69.17,73.41ZM576.72,73.41c0-13.54-2-20.33-20.61-20.33s-20.62,6.79-20.62,20.33v30.78c0,5.37,3.1,8.47,8.47,8.47h24.29c5.64-.27,8.47-3.1,8.47-8.74Z"/><path class="cls-1" d="M800.86,187.5c4,7.35-.56,15.25-9.31,15.25H759.36a6.89,6.89,0,0,1-6.5-3.95L723.49,142a2.86,2.86,0,0,0-2.26-1.41H709.94a8.45,8.45,0,0,0-8.76,8.75V194a8.46,8.46,0,0,1-8.75,8.75H660.8a8.46,8.46,0,0,1-8.75-8.75V13.83a8.47,8.47,0,0,1,8.75-8.76h61.84c50.27,0,70.6,21.47,70.6,67.78,0,26.27-6.5,44.61-21.46,55.36a3,3,0,0,0-.85,3.66ZM709.94,53.66a8.45,8.45,0,0,0-8.76,8.74V83.3a8.47,8.47,0,0,0,8.76,8.76h14.4c13.56,0,20.33-1.7,20.33-19.21s-6.77-19.19-20.33-19.19Z"/><path class="cls-1" d="M1041.07,193.15c0,6.21-2.82,9.6-8.47,9.6H1001c-5.38,0-8.48-2.83-8.48-8.46V169.71c0-5.65-2.83-8.46-8.47-8.46H959.74c-5.36,0-8.47,2.81-8.47,8.46v24.58c0,5.63-2.82,8.46-8.47,8.46H911.17c-5.36,0-8.47-3.39-8.47-9.6V73.41C902.7,37.84,908.35,0,971.89,0s69.18,37.84,69.18,73.41ZM992.5,73.41c0-13.54-2-20.33-20.61-20.33s-20.62,6.79-20.62,20.33v30.78c0,5.37,3.11,8.47,8.47,8.47H984c5.64-.27,8.47-3.1,8.47-8.74Z"/><path class="cls-1" d="M1107.93,5.07c5.65,0,8.47,2.84,8.47,8.49V145.7c0,5.38,3.11,8.49,8.47,8.49h63c5.64,0,8.47,2.81,8.47,8.46v31.64c0,5.63-2.83,8.46-8.47,8.46H1076.3c-5.36,0-8.47-3.1-8.47-8.46V13.56c0-5.65,3.11-8.49,8.47-8.49Z"/><path class="cls-1" d="M1253.86,5.07c5.66,0,8.47,2.84,8.47,8.49V145.7c0,5.38,3.12,8.49,8.48,8.49h63c5.65,0,8.47,2.81,8.47,8.46v31.64c0,5.63-2.82,8.46-8.47,8.46H1222.24c-5.37,0-8.47-3.1-8.47-8.46V13.56c0-5.65,3.1-8.49,8.47-8.49Z"/><path class="cls-1" d="M1496.65,193.15c0,6.21-2.81,9.6-8.47,9.6h-31.62c-5.37,0-8.47-2.83-8.47-8.46V169.71c0-5.65-2.83-8.46-8.47-8.46h-24.29c-5.37,0-8.47,2.81-8.47,8.46v24.58c0,5.63-2.83,8.46-8.47,8.46h-31.63c-5.36,0-8.47-3.39-8.47-9.6V73.41c0-35.57,5.64-73.41,69.19-73.41s69.17,37.84,69.17,73.41ZM1448.09,73.41c0-13.54-2-20.33-20.61-20.33s-20.62,6.79-20.62,20.33v30.78c0,5.37,3.1,8.47,8.47,8.47h24.29c5.64-.27,8.47-3.1,8.47-8.74Z"/><path class="cls-1" d="M1573.4,5.07c4.8,0,7.91,2,9.89,6.5l38.4,94c1.13,2.55,3.38,2,3.38-.85V13.56c0-5.65,3.11-8.49,8.48-8.49h31.62c5.65,0,8.48,2.84,8.48,8.49V194.29c0,5.36-2.83,8.46-8.48,8.46h-41.5c-4.81,0-7.91-2-9.89-6.5l-38.4-94c-1.13-2.54-3.4-2-3.4.85v91.22c0,5.36-2.81,8.46-8.46,8.46h-31.63c-5.37,0-8.47-3.1-8.47-8.46V13.56c0-5.65,3.1-8.49,8.47-8.49Z"/></g></g></svg>