<svg width="2137" height="1223" viewBox="0 0 2137 1223" fill="none" xmlns="http://www.w3.org/2000/svg">
<path d="M569.966 431.846V375.652L602.559 375.667V432.36C602.431 433.797 601.923 435.174 601.086 436.348C600.249 437.523 599.113 438.453 597.797 439.042C594.215 440.852 590.257 441.794 586.244 441.794C582.231 441.793 578.274 440.849 574.692 439.038C573.288 438.432 572.091 437.428 571.251 436.15C570.411 434.872 569.965 433.376 569.966 431.846Z" fill="#FEC810" stroke="#0A047A" stroke-width="2" stroke-linecap="round" stroke-linejoin="round"/>
<path d="M574.686 368.988C578.268 367.177 582.225 366.234 586.239 366.234C590.252 366.235 594.209 367.18 597.79 368.992C604.146 372.668 604.149 378.677 597.796 382.348C594.214 384.158 590.257 385.1 586.243 385.099C582.23 385.099 578.273 384.155 574.692 382.343C568.337 378.671 568.334 372.661 574.686 368.988Z" fill="#EFEEEA" stroke="#0A047A" stroke-width="2" stroke-linecap="round" stroke-linejoin="round"/>
</svg>
