<svg width="710" height="710" viewBox="0 0 710 710" fill="none" xmlns="http://www.w3.org/2000/svg">
<g clip-path="url(#clip0)">
<path d="M327.303 746V228.953C327.303 243.978 334.718 259.004 349.543 271.974L382.753 292.04C400.462 299.475 420.654 304.127 441.462 305.981C455.327 307.199 469.273 307.199 483.138 305.981C510.552 303.538 536.888 296.263 557.89 284.135C584.166 268.963 597.304 248.951 597.304 228.953V746" fill="url(#paint0_linear)"/>
<path d="M327.303 746V228.953C327.303 243.978 334.718 259.004 349.543 271.974L382.753 292.04C400.462 299.475 420.654 304.127 441.462 305.981C455.327 307.199 469.273 307.199 483.138 305.981C510.552 303.538 536.888 296.263 557.89 284.135C584.166 268.963 597.304 248.951 597.304 228.953V746" stroke="#0A047A" stroke-width="2" stroke-miterlimit="10" stroke-linejoin="round"/>
<path d="M350.541 271.405L349.543 271.974L350.554 271.392C350.554 271.396 350.552 271.399 350.55 271.401C350.547 271.404 350.544 271.405 350.541 271.405V271.405Z" fill="url(#paint1_linear)" stroke="#0A047A" stroke-width="2" stroke-miterlimit="10" stroke-linejoin="round"/>
<path d="M597.304 228.946V228.953C597.304 248.951 584.166 268.963 557.89 284.135C536.888 296.263 510.552 303.538 483.138 305.981C469.273 307.199 455.327 307.199 441.462 305.981C420.654 304.127 400.462 299.475 382.753 292.039L455.089 250.283L488.238 231.141H488.245L492.046 228.946L528.134 208.111C536.313 203.386 535.356 195.107 526.019 189.713C516.669 184.319 502.34 183.763 494.161 188.481C447.036 215.686 399.634 243.054 350.553 271.392L349.543 271.974C334.718 259.004 327.303 243.978 327.303 228.953V228.946C327.303 208.941 340.441 188.937 366.723 173.764C419.295 143.412 505.311 143.412 557.877 173.764C584.166 188.95 597.304 208.941 597.304 228.946Z" fill="#EFEEEA" stroke="#0A047A" stroke-width="2" stroke-miterlimit="10" stroke-linejoin="round"/>
<path d="M528.134 208.11C514.353 216.061 500.575 224.014 486.799 231.969C476.606 237.852 466.415 243.738 456.226 249.625C431.737 263.76 407.246 277.898 382.752 292.037C382.752 292.037 378.902 302.008 366.5 300C357 297 348.5 290 349.542 271.972L437.031 221.462L472.001 201.269L494.161 188.479C502.339 183.761 516.669 184.317 526.019 189.711C535.355 195.105 536.312 203.384 528.134 208.11Z" fill="#FFC400" stroke="#0A047A" stroke-width="2" stroke-linecap="round" stroke-linejoin="round"/>
</g>
<defs>
<linearGradient id="paint0_linear" x1="462.303" y1="228.953" x2="462.303" y2="746" gradientUnits="userSpaceOnUse">
<stop stop-color="#FF80ED"/>
<stop offset="1" stop-color="#FEC810"/>
</linearGradient>
<linearGradient id="paint1_linear" x1="350.049" y1="271.986" x2="350.049" y2="271.403" gradientUnits="userSpaceOnUse">
<stop stop-color="#FFC400"/>
<stop offset="0.392" stop-color="#FFA464"/>
<stop offset="0.8116" stop-color="#FF84C9"/>
<stop offset="1" stop-color="#FF77F2"/>
</linearGradient>
<clipPath id="clip0">
<rect width="710" height="710" fill="white"/>
</clipPath>
</defs>
</svg>
