<svg width="836" height="707" viewBox="0 0 836 707" fill="none" xmlns="http://www.w3.org/2000/svg">
<path d="M344.217 202.971V151.293L317 151.305V203.397C317.106 204.586 317.531 205.725 318.23 206.697C318.929 207.669 319.877 208.439 320.977 208.926C323.968 210.424 327.273 211.204 330.624 211.204C333.975 211.203 337.28 210.422 340.27 208.923C341.443 208.422 342.442 207.591 343.144 206.533C343.845 205.475 344.218 204.237 344.217 202.971Z" fill="#FF80ED" stroke="#3874FF" stroke-width="2" stroke-linecap="round" stroke-linejoin="round"/>
<path d="M340.276 145.779C337.285 144.28 333.98 143.499 330.628 143.5C327.277 143.501 323.972 144.282 320.982 145.782C315.675 148.824 315.672 153.798 320.977 156.835C323.968 158.333 327.273 159.113 330.624 159.113C333.976 159.112 337.28 158.331 340.271 156.832C345.578 153.792 345.58 148.818 340.276 145.779Z" fill="#EFEEEA" stroke="#3874FF" stroke-width="2" stroke-linecap="round" stroke-linejoin="round"/>
</svg>
