<svg width="710" height="710" viewBox="0 0 710 710" fill="none" xmlns="http://www.w3.org/2000/svg">
<path d="M605.116 449.174V476.696L501.941 536.24L501.892 508.775L605.116 449.174Z" fill="#2B6AFF" stroke="#0A047A" stroke-width="2" stroke-linecap="round" stroke-linejoin="round"/>
<path d="M470.206 490.467V517.953L501.913 536.254V508.768L470.206 490.467Z" fill="#0A047A" stroke="#0A047A" stroke-width="2" stroke-linecap="round" stroke-linejoin="round"/>
<path fill-rule="evenodd" clip-rule="evenodd" d="M482.428 497.503L501.892 508.775L605.116 449.174L585.653 437.954C585.653 437.954 588 446.5 576.212 452C577.272 454.188 576.321 456.641 573.36 458.353L515.635 491.751C511.267 494.272 504.132 494.272 499.771 491.751C498.445 490.984 497.522 490.069 497.003 489.095L482.428 497.503Z" fill="#FEC810"/>
<path d="M482.428 497.503L501.892 508.775L605.116 449.174L585.653 437.954M497.003 489.095C497.522 490.069 498.445 490.984 499.771 491.751C504.132 494.272 511.267 494.272 515.635 491.751L573.36 458.353C576.203 456.709 577.193 454.383 576.329 452.263" stroke="#0A047A" stroke-width="2" stroke-linecap="round" stroke-linejoin="round"/>
</svg>
