<svg xmlns="http://www.w3.org/2000/svg" xmlns:xlink="http://www.w3.org/1999/xlink" viewBox="0 0 300 95.54"><defs><style>.cls-1{fill:#fff;}.cls-2{fill:url(#linear-gradient);}</style><linearGradient id="linear-gradient" x1="45.08" y1="28.56" x2="45.08" y2="64.55" gradientUnits="userSpaceOnUse"><stop offset="0" stop-color="#ffde00"/><stop offset="1" stop-color="#ff9b00"/></linearGradient></defs><g id="Layer_2" data-name="Layer 2"><g id="Layer_1-2" data-name="Layer 1"><path d="M125.4,46.63a10.57,10.57,0,0,0,2.65-3.91V50h11.3V35.25l-.08-2.77c.2.58.36,1.08.5,1.49a8.71,8.71,0,0,1,.28,1l1.31,3.47a17.66,17.66,0,0,0,15.11,11.39V50h30.78l.93-5.33h7.64l.85,5.33h20.89q8.79,0,13.23-4.84Q236,39.41,236,29q0-10.6-6.15-16.52-4.68-4.51-13.09-4.51h-9.8V43.07L199.5,7.93H185.62l-8.06,33.52v-1.6h-9.74V33.43h8.74v-9.5h-8.74V17.81h9.74V7.93H156.47v39l-7-14.43Q156,29.56,156,21.94q0-7.12-4.84-11-3.81-3-11.49-3H128.05V19.11a11.1,11.1,0,0,0-3.55-7.92q-3.57-3.27-11-3.26h-13.2V50h15.89A12.78,12.78,0,0,0,125.4,46.63ZM218.29,18.4h.36c1.76,0,3.15,1,4.19,2.94a17.11,17.11,0,0,1,1.55,8q0,10.22-6.1,10.51ZM190.84,29l.79-5.09c0-.09.06-.35.11-.79s.15-1.22.27-2.34c.08-.56.14-1.08.21-1.55s.11-.9.15-1.28l.35,4c.09.82.17,1.5.22,2s.1,1,.14,1.27c.34,2.75.53,4.33.57,4.73a4.08,4.08,0,0,0,.11.74l.73,4.9H189.7ZM139.4,17.37h.41c3.28,0,4.93,1.57,4.93,4.71a5.6,5.6,0,0,1-1.31,3.81,4.15,4.15,0,0,1-3.27,1.5h-.76Zm-11.35,2.94V33.53a7.24,7.24,0,0,0-1.23-2.2c-1.38-1.52-3.57-2.5-6.54-2.94C125.33,28,127.88,25.24,128.05,20.31ZM111.68,17l.69,0h.48c2.67,0,4,1.21,4,3.65a3.22,3.22,0,0,1-1.19,2.66,5,5,0,0,1-3.22,1h-.76Zm1,23.85-.41,0-.57,0v-8h.9a5.23,5.23,0,0,1,3.47,1.06,3.62,3.62,0,0,1,1.26,2.94,3.79,3.79,0,0,1-1.26,3A5,5,0,0,1,112.66,40.89Z"/><path d="M267.4,62.31a6.29,6.29,0,0,0,4.49-1.85A6.06,6.06,0,0,0,273.77,56a6.37,6.37,0,0,0-6.39-6.43,6.29,6.29,0,0,0-4.49,1.85A6.11,6.11,0,0,0,261,55.91a6.31,6.31,0,0,0,1.86,4.52A6.15,6.15,0,0,0,267.4,62.31Z"/><path d="M255.36,82.42A6.32,6.32,0,0,0,249,88.74a6.37,6.37,0,0,0,.17.87l-5.93-12.28q6.51-2.91,6.5-10.53,0-7.14-4.84-11-3.81-3-11.49-3H221.83V84.71H210.36V78.28h8.74V68.79h-8.74V62.66h9.75V52.78H145.76V79.92a8.66,8.66,0,0,1-.63,3.94,2.84,2.84,0,0,1-4.5-.08,8.15,8.15,0,0,1-.67-3.89V52.78H128.61V80.61a8.33,8.33,0,0,0-1.79-4.42c-1.38-1.53-3.57-2.51-6.54-2.94,5.22-.44,7.84-3.28,7.84-8.55a11.25,11.25,0,0,0-3.62-8.65q-3.57-3.27-11-3.27h-13.2v42h15.89a12.78,12.78,0,0,0,9.18-3.32,11.22,11.22,0,0,0,3.44-7.88c.49,4,2,7,4.78,9a16.13,16.13,0,0,0,9.77,2.88,14.48,14.48,0,0,0,8.74-2.61,12,12,0,0,0,3.81-4.38,13.46,13.46,0,0,0,1.17-6V62.85h4.95v32h11.35v-32h8.5v32h11.35v-32H199v32h34.12V80.11l-.08-2.78c.2.58.36,1.08.5,1.5a8.2,8.2,0,0,1,.28,1l1.31,3.47a17.71,17.71,0,0,0,16.58,11.5L251,93.34a6.31,6.31,0,0,0,4.46,1.79,6,6,0,0,0,4.46-1.82,5.89,5.89,0,0,0,1.88-4.38,6.25,6.25,0,0,0-1.88-4.6A6.18,6.18,0,0,0,255.36,82.42ZM111.68,61.9l.69,0h.48q4,0,4,3.64a3.24,3.24,0,0,1-1.19,2.67,5,5,0,0,1-3.22,1h-.76Zm4.37,22.73a5,5,0,0,1-3.39,1.11h-.41l-.57,0V77.63h.9a5.29,5.29,0,0,1,3.47,1.06,3.64,3.64,0,0,1,1.26,2.94A3.82,3.82,0,0,1,116.05,84.63ZM237.21,70.75a4.18,4.18,0,0,1-3.27,1.49h-.76v-10h.41c3.28,0,4.93,1.57,4.93,4.7A5.61,5.61,0,0,1,237.21,70.75Z"/><path d="M296.33,68.71q-3.68-4.23-10.13-4.22a12.4,12.4,0,0,0-9.83,4.24,15.17,15.17,0,0,0-3.52,8.33v-12H261.91V94.54h10.94V82.84A14.92,14.92,0,0,0,276.29,91a12.6,12.6,0,0,0,9.88,4.1,13.11,13.11,0,0,0,10.07-4q3.76-4,3.76-10.84Q300,72.92,296.33,68.71ZM288.54,85c-.58,1.29-1.31,1.93-2.2,1.93s-1.7-.65-2.26-2a12.35,12.35,0,0,1-.85-5.14,12.18,12.18,0,0,1,.85-5.15c.56-1.3,1.3-2,2.23-2a1.89,1.89,0,0,1,1.28.52,4.19,4.19,0,0,1,1,1.46,9.42,9.42,0,0,1,.62,2.26,17.64,17.64,0,0,1,.22,3A13.52,13.52,0,0,1,288.54,85Z"/><path class="cls-1" d="M90.15,25.35c0-16-16-25-45.19-25.35C16,.35,0,9.35,0,25.35c0,6.5,1.66,11.46,4.94,14.72a11.77,11.77,0,0,0,1.12,1C.29,52.8,0,78.34,0,83.45A11.49,11.49,0,0,0,11.46,94.81H78.69a11.52,11.52,0,0,0,11.46-11.4c0-5.09-.3-30.62-6.06-42.34a11.77,11.77,0,0,0,1.12-1C88.49,36.81,90.15,31.85,90.15,25.35Z"/><path class="cls-2" d="M61.76,41.56l-5.2,20.75a3.48,3.48,0,0,1-4.48,2L30.41,56.81a3.46,3.46,0,0,1-2-4.47L36,30.8a3.48,3.48,0,0,1,4.48-2l19.25,8.3A3.47,3.47,0,0,1,61.76,41.56Z"/><path id="Path_2156-2" data-name="Path 2156-2" d="M45,5.39c14.89.19,39.8,3,39.8,20,0,5-1.13,8.68-3.35,10.91-.21.2-.43.4-.66.58a5.39,5.39,0,0,0-1.5,6.61c4.07,8.27,5.51,26.69,5.51,39.91a6.11,6.11,0,0,1-6.07,6.06H11.46a6.08,6.08,0,0,1-6.07-6c0-13.28,1.44-31.72,5.51-40a5.37,5.37,0,0,0-1.5-6.61,7.26,7.26,0,0,1-.65-.58C6.52,34,5.39,30.36,5.39,25.34,5.39,8.41,30.15,5.57,45,5.39M45,0C16,.35,0,9.35,0,25.35c0,6.5,1.66,11.46,4.94,14.72a11.88,11.88,0,0,0,1.13,1C.29,52.8,0,78.35,0,83.44A11.5,11.5,0,0,0,11.46,94.81H78.69a11.51,11.51,0,0,0,11.46-11.4c0-5.1-.3-30.63-6.06-42.34a13.25,13.25,0,0,0,1.13-1c3.27-3.27,4.93-8.22,4.93-14.72,0-16-16-25-45.19-25.35Z"/></g></g></svg>