<svg width="710" height="710" viewBox="0 0 710 710" fill="none" xmlns="http://www.w3.org/2000/svg">
<g clip-path="url(#clip0)">
<path d="M690.509 489.457L538.162 401.5L-247 854.812L-94.6391 942.755L690.509 489.457Z" fill="url(#paint0_linear)" stroke="#0A047A" stroke-width="2" stroke-linecap="round" stroke-linejoin="round"/>
<path d="M690.509 489.458V557.12L-94.646 1010.41L-94.639 942.755L690.509 489.458Z" fill="url(#paint1_linear)" stroke="#0A047A" stroke-width="2" stroke-linecap="round" stroke-linejoin="round"/>
<path fill-rule="evenodd" clip-rule="evenodd" d="M66.9854 389.164L465.536 619.26V557.272L66.9918 327.177L66.9854 389.164Z" fill="url(#paint2_linear)" stroke="#0A047A" stroke-width="2" stroke-linecap="round" stroke-linejoin="round"/>
<path fill-rule="evenodd" clip-rule="evenodd" d="M206.55 246.572L66.9624 327.16L465.536 557.272L605.137 476.695L206.55 246.572Z" fill="#EFEEEA" stroke="#0A047A" stroke-width="2" stroke-linecap="round" stroke-linejoin="round"/>
<path d="M465.536 619.26L605.123 538.683L605.137 476.695L465.536 557.272V619.26Z" fill="#FEC810" stroke="#0A047A" stroke-width="2" stroke-linecap="round" stroke-linejoin="round"/>
<path d="M572.91 458.086L454.784 526.282L88.3027 314.783" stroke="#0A047A" stroke-width="2" stroke-linecap="round" stroke-linejoin="round"/>
<path d="M605.116 449.174L573.346 430.859L470.241 490.446L501.891 508.774L605.116 449.174Z" fill="#FEC810" stroke="#0A047A" stroke-width="2" stroke-linecap="round" stroke-linejoin="round"/>
<path fill-rule="evenodd" clip-rule="evenodd" d="M573.36 458.352C577.721 455.831 577.721 451.702 573.36 449.181C568.999 446.66 561.864 446.66 557.496 449.181L499.771 482.579C495.41 485.1 495.41 489.229 499.771 491.75C504.132 494.272 511.267 494.272 515.635 491.75L573.36 458.352Z" fill="#0A047A" stroke="#0A047A" stroke-width="2" stroke-linecap="round" stroke-linejoin="round"/>
<path d="M521.126 505.495V467.51H498.745V505.839C498.745 507.503 499.834 509.168 502.018 510.425C506.379 512.946 513.521 512.946 517.882 510.425C520.22 509.083 521.287 507.271 521.126 505.495Z" fill="#FEC810" stroke="#0A047A" stroke-width="2" stroke-linecap="round" stroke-linejoin="round"/>
<path d="M517.888 462.931C513.52 460.41 506.386 460.41 502.018 462.931C497.65 465.452 497.657 469.582 502.018 472.103C506.379 474.624 513.52 474.617 517.881 472.103C522.242 469.589 522.249 465.452 517.888 462.931Z" fill="#EFEEEA" stroke="#0A047A" stroke-width="2" stroke-linecap="round" stroke-linejoin="round"/>
<path d="M605.116 449.174V476.696L501.941 536.24L501.892 508.775L605.116 449.174Z" fill="#2B6AFF" stroke="#0A047A" stroke-width="2" stroke-linecap="round" stroke-linejoin="round"/>
<path d="M470.206 490.467V517.953L501.913 536.254V508.768L470.206 490.467Z" fill="#0A047A" stroke="#0A047A" stroke-width="2" stroke-linecap="round" stroke-linejoin="round"/>
<path fill-rule="evenodd" clip-rule="evenodd" d="M482.428 497.503L501.892 508.775L605.116 449.174L585.653 437.954C585.653 437.954 588 446.5 576.212 452C577.272 454.188 576.321 456.641 573.36 458.353L515.635 491.751C511.267 494.272 504.132 494.272 499.771 491.751C498.445 490.984 497.522 490.069 497.003 489.095L482.428 497.503Z" fill="#FEC810"/>
<path d="M482.428 497.503L501.892 508.775L605.116 449.174L585.653 437.954M497.003 489.095C497.522 490.069 498.445 490.984 499.771 491.751C504.132 494.272 511.267 494.272 515.635 491.751L573.36 458.353C576.203 456.709 577.193 454.383 576.329 452.263" stroke="#0A047A" stroke-width="2" stroke-linecap="round" stroke-linejoin="round"/>
<path fill-rule="evenodd" clip-rule="evenodd" d="M452.551 127.495L145.435 304.805L297.789 392.748L605.091 215.332L452.551 127.495Z" fill="url(#paint3_linear)" stroke="#0A047A" stroke-width="2" stroke-linecap="round" stroke-linejoin="round"/>
<path fill-rule="evenodd" clip-rule="evenodd" d="M474.392 224.938L483.732 219.543C494.98 213.04 493.663 201.631 480.814 194.197C467.964 186.763 448.248 185.998 437 192.5L324.501 257.518L324.504 257.521L261.147 294.039C249.899 300.542 251.216 311.951 264.065 319.385C276.915 326.819 296.631 327.584 307.879 321.082L474.5 225L474.392 224.938Z" fill="#0A047A" stroke="#0A047A" stroke-width="2" stroke-linecap="round" stroke-linejoin="round"/>
<path d="M287 333.5C303.016 333.5 316 320.516 316 304.5C316 288.484 303.016 275.5 287 275.5C270.984 275.5 258 288.484 258 304.5C258 320.516 270.984 333.5 287 333.5Z" fill="url(#paint4_linear)" stroke="#0A047A" stroke-width="2" stroke-linecap="round" stroke-linejoin="round"/>
<path d="M297.781 460.403L145.442 372.46L145.435 304.805L297.788 392.748L297.781 460.403Z" fill="#2B6AFF" stroke="#0A047A" stroke-width="2" stroke-linecap="round" stroke-linejoin="round"/>
<path fill-rule="evenodd" clip-rule="evenodd" d="M605.011 283.031L605.004 215.383L297.788 392.748L297.781 460.403L605.011 283.031Z" fill="#FEC810" stroke="#0A047A" stroke-width="2" stroke-linecap="round" stroke-linejoin="round"/>
<path fill-rule="evenodd" clip-rule="evenodd" d="M297.789 392.748L196.137 334.072L254.797 300.144C251.43 306.363 254.654 313.94 264.065 319.385C276.915 326.819 296.631 327.584 307.879 321.082L547.888 182.393L605.091 215.332L297.789 392.748Z" fill="url(#paint5_linear)"/>
<path d="M196.137 334.072L297.789 392.748L605.091 215.332L547.888 182.393M254.797 300.144C251.43 306.363 254.654 313.94 264.065 319.385C276.915 326.819 296.631 327.584 307.879 321.082L488.5 216" stroke="#0A047A" stroke-width="2" stroke-linecap="round" stroke-linejoin="round"/>
</g>
<defs>
<linearGradient id="paint0_linear" x1="464.53" y1="604.5" x2="-486.749" y2="869.496" gradientUnits="userSpaceOnUse">
<stop offset="0.05" stop-color="#0B047F"/>
<stop offset="0.27" stop-color="#0B0682"/>
<stop offset="0.41" stop-color="#0C0E8A"/>
<stop offset="0.53" stop-color="#0E1B99"/>
<stop offset="0.63" stop-color="#102DAD"/>
<stop offset="0.72" stop-color="#1245C8"/>
<stop offset="0.81" stop-color="#1662E8"/>
<stop offset="0.86" stop-color="#1876FF"/>
</linearGradient>
<linearGradient id="paint1_linear" x1="708.325" y1="515.532" x2="284.5" y2="759" gradientUnits="userSpaceOnUse">
<stop offset="0.31" stop-color="#FFC400"/>
<stop offset="0.46" stop-color="#FFAE46"/>
<stop offset="0.6" stop-color="#FF9A84"/>
<stop offset="0.73" stop-color="#FF8BB3"/>
<stop offset="0.84" stop-color="#FF80D5"/>
<stop offset="0.94" stop-color="#FF79EA"/>
<stop offset="1" stop-color="#FF77F2"/>
</linearGradient>
<linearGradient id="paint2_linear" x1="-372" y1="346.505" x2="465.536" y2="346.505" gradientUnits="userSpaceOnUse">
<stop offset="0.32" stop-color="#FFC400"/>
<stop offset="0.46" stop-color="#FFAE46"/>
<stop offset="0.61" stop-color="#FF9A84"/>
<stop offset="0.73" stop-color="#FF8BB3"/>
<stop offset="0.85" stop-color="#FF80D5"/>
<stop offset="0.94" stop-color="#FF79EA"/>
<stop offset="1" stop-color="#FF77F2"/>
</linearGradient>
<linearGradient id="paint3_linear" x1="749.822" y1="84.3462" x2="-201.458" y2="349.342" gradientUnits="userSpaceOnUse">
<stop offset="0.05" stop-color="#1876FF"/>
<stop offset="0.1" stop-color="#4876FC"/>
<stop offset="0.15" stop-color="#7376FA"/>
<stop offset="0.21" stop-color="#9977F8"/>
<stop offset="0.27" stop-color="#B977F6"/>
<stop offset="0.34" stop-color="#D277F5"/>
<stop offset="0.41" stop-color="#E677F3"/>
<stop offset="0.49" stop-color="#F477F3"/>
<stop offset="0.59" stop-color="#FD77F2"/>
<stop offset="0.77" stop-color="#FF77F2"/>
</linearGradient>
<linearGradient id="paint4_linear" x1="287" y1="275.5" x2="287" y2="333.5" gradientUnits="userSpaceOnUse">
<stop stop-color="#FF80ED"/>
<stop offset="1" stop-color="#FEC810"/>
</linearGradient>
<linearGradient id="paint5_linear" x1="749.822" y1="84.3463" x2="-201.457" y2="349.342" gradientUnits="userSpaceOnUse">
<stop offset="0.05" stop-color="#1876FF"/>
<stop offset="0.1" stop-color="#4876FC"/>
<stop offset="0.15" stop-color="#7376FA"/>
<stop offset="0.21" stop-color="#9977F8"/>
<stop offset="0.27" stop-color="#B977F6"/>
<stop offset="0.34" stop-color="#D277F5"/>
<stop offset="0.41" stop-color="#E677F3"/>
<stop offset="0.49" stop-color="#F477F3"/>
<stop offset="0.59" stop-color="#FD77F2"/>
<stop offset="0.77" stop-color="#FF77F2"/>
</linearGradient>
<clipPath id="clip0">
<rect width="710" height="710" fill="white"/>
</clipPath>
</defs>
</svg>
