<svg width="78" height="21" viewBox="0 0 78 21" fill="none" xmlns="http://www.w3.org/2000/svg">
<path d="M25.1862 8.32095C25.1862 6.89449 23.8256 5.37949 21.471 5.37949C18.8269 5.37949 15.9223 7.35686 15.4784 11.3018C15.0249 15.286 17.4566 17.0568 19.9077 17.0568C22.3588 17.0568 23.6422 16.0829 24.9546 14.7843C23.8256 13.3382 22.3684 14.0071 22.0886 14.1547C21.7798 14.3121 21.3841 14.5285 20.5735 14.5285C19.6279 14.5285 18.6629 14.0957 18.6629 12.2954C24.723 11.6854 25.1862 9.74742 25.1862 8.32095ZM22.1851 8.55706C22.1465 8.99975 21.9728 9.75726 18.9041 10.1803C19.5507 7.83891 20.7858 7.66183 21.3552 7.66183C21.8859 7.66183 22.2237 8.08485 22.1851 8.55706ZM11.9176 8.94073C11.9176 8.94073 10.6149 13.1119 10.5087 13.4562C10.4701 13.1021 9.51478 5.61559 9.51478 5.61559C7.29531 5.61559 6.10838 7.22897 5.48113 8.93089C5.48113 8.93089 3.89855 13.1119 3.76345 13.4661C3.7538 13.1414 3.52221 8.98008 3.52221 8.98008C3.38711 6.89449 1.51503 5.62543 0 5.62543L1.83348 16.9683C4.1591 16.9584 5.41358 15.3549 6.06978 13.653C6.06978 13.653 7.46901 9.96385 7.52691 9.79661C7.53656 9.95401 8.5305 16.9683 8.5305 16.9683C10.8658 16.9683 12.1203 15.4631 12.7957 13.8202L16.0671 5.62543C13.7607 5.62543 12.5448 7.22897 11.9176 8.94073ZM33.7553 5.35981C32.3175 5.35981 31.2174 6.15666 30.291 7.32735V7.31751L31.1209 0.5C29.2102 0.5 27.6566 2.19208 27.3574 4.71053L25.9099 16.8797C27.01 16.8797 28.1777 16.5551 28.8049 15.7287C29.3646 16.4666 30.2041 17.0568 31.449 17.0568C34.672 17.0568 36.8819 13.2398 36.8819 9.65888C36.8626 6.39277 35.3089 5.35981 33.7553 5.35981ZM33.4561 11.2132C33.1184 13.2103 32.028 14.5679 30.9761 14.5679C29.9146 14.5679 29.4611 14.0858 29.4611 14.0858C29.6637 12.3347 29.7892 11.2624 30.1752 10.3377C30.5612 9.41294 31.4779 7.93728 32.4333 7.93728C33.3693 7.93728 33.7939 9.20635 33.4561 11.2132ZM44.9299 5.62543H42.6814L42.6911 5.50738C42.8455 4.01205 43.1929 3.22504 44.3412 3.09715C45.1229 3.01845 45.4702 2.60526 45.5571 2.15273C45.6246 1.79857 45.8369 0.568864 45.8369 0.568864C41.3208 0.539351 39.9023 2.52656 39.5356 5.55657L39.5259 5.62543H39.4777C38.7443 5.62543 37.9337 6.47147 37.7986 7.54378L37.7503 7.93728H39.2557L37.9916 18.5817L37.6056 20.4902C37.6538 20.4902 37.7117 20.5 37.76 20.5C39.8733 20.4213 41.2243 18.7194 41.5234 16.2501L42.5077 7.93728H43.2122C43.907 7.93728 44.7176 7.22897 44.8623 6.04845L44.9299 5.62543ZM56.6255 5.42868C54.0297 5.42868 51.5786 7.37654 50.8259 10.4361C50.0732 13.4956 51.2119 17.1158 55.0333 17.1158C58.845 17.1158 61.0452 13.348 61.0452 10.2098C61.0452 7.09124 58.9704 5.42868 56.6255 5.42868ZM57.6773 11.1149C57.5423 12.502 56.944 14.6072 55.3035 14.6072C53.6533 14.6072 53.8849 12.1478 54.049 10.9771C54.2227 9.72774 54.9078 7.94712 56.3843 7.94712C57.7063 7.94712 57.8317 9.55066 57.6773 11.1149ZM73.8699 8.94073C73.8699 8.94073 72.5671 13.1119 72.461 13.4562C72.4224 13.1021 71.467 5.61559 71.467 5.61559C69.2476 5.61559 68.0606 7.22897 67.4334 8.93089C67.4334 8.93089 65.8508 13.1119 65.7157 13.4661C65.706 13.1414 65.4744 8.98008 65.4744 8.98008C65.3394 6.89449 63.4673 5.62543 61.9522 5.62543L63.7761 16.9683C66.1017 16.9584 67.3562 15.3549 68.0124 13.653C68.0124 13.653 69.4116 9.96385 69.4599 9.79661C69.4695 9.95401 70.4634 16.9683 70.4634 16.9683C72.7987 16.9683 74.0532 15.4631 74.7287 13.8202L78 5.62543C75.7033 5.62543 74.4874 7.22897 73.8699 8.94073ZM47.0528 0.568864L45.1614 16.1222L44.7755 18.0406C44.8237 18.0406 44.8816 18.0504 44.9299 18.0504C46.966 18.0209 48.4135 16.2009 48.6837 13.9088L49.7741 4.98598C50.1022 2.26094 48.51 0.568864 47.0528 0.568864Z" fill="white"/>
</svg>
