<svg width="710" height="710" viewBox="0 0 710 710" fill="none" xmlns="http://www.w3.org/2000/svg">
<g clip-path="url(#clip0)">
<path d="M302.515 300.305V533.95L495.037 422.79L495.03 189.138L302.515 300.305Z" fill="#0A047A" stroke="#0A047A" stroke-width="2" stroke-linecap="round" stroke-linejoin="round"/>
<path d="M302.515 300.305V533.964L110 422.804L110.007 189.138L302.515 300.305Z" fill="#EFEEEA" stroke="#0A047A" stroke-width="2" stroke-linecap="round" stroke-linejoin="round"/>
<path d="M124.476 409.09C121.821 407.554 119.648 408.807 119.648 411.879C119.743 413.553 120.229 415.181 121.067 416.633C121.906 418.085 123.073 419.32 124.476 420.239C127.13 421.768 129.303 420.515 129.303 417.45C129.209 415.776 128.722 414.148 127.884 412.696C127.046 411.244 125.878 410.009 124.476 409.09V409.09Z" stroke="#0A047A" stroke-width="2" stroke-linecap="round" stroke-linejoin="round"/>
<path d="M124.476 209.302C121.821 207.766 119.648 209.018 119.648 212.091C119.743 213.765 120.229 215.393 121.067 216.845C121.906 218.297 123.073 219.532 124.476 220.451C127.13 221.98 129.303 220.727 129.303 217.662C129.209 215.988 128.722 214.359 127.884 212.907C127.046 211.455 125.878 210.22 124.476 209.302Z" stroke="#0A047A" stroke-width="2" stroke-linecap="round" stroke-linejoin="round"/>
<path d="M288.538 303.236C285.884 301.7 283.711 302.952 283.711 306.018C283.804 307.692 284.29 309.321 285.128 310.773C285.967 312.225 287.135 313.46 288.538 314.377C291.193 315.906 293.366 314.654 293.366 311.596C293.272 309.921 292.787 308.293 291.948 306.84C291.11 305.388 289.942 304.154 288.538 303.236V303.236Z" stroke="#0A047A" stroke-width="2" stroke-linecap="round" stroke-linejoin="round"/>
<path d="M302.515 78L110 189.138L302.515 300.305L495.037 189.138L302.515 78Z" fill="#3874FF" stroke="#0A047A" stroke-width="2" stroke-linecap="round" stroke-linejoin="round"/>
<path d="M351.567 192.641V183.461L258.837 183.504V194.095C258.837 200.987 263.349 207.871 272.387 213.096C290.462 223.539 320.04 223.532 338.123 213.096C347.797 207.504 352.245 199.998 351.567 192.641Z" fill="#0A047A" stroke="#0A047A" stroke-width="2" stroke-linecap="round" stroke-linejoin="round"/>
<path d="M338.137 164.489C320.069 154.039 290.484 154.046 272.408 164.489C254.332 174.932 254.318 192.026 272.408 202.484C290.498 212.941 320.062 212.92 338.145 202.484C356.228 192.048 356.206 174.939 338.137 164.489Z" fill="#EFEEEA" stroke="#0A047A" stroke-width="2" stroke-linecap="round" stroke-linejoin="round"/>
<path d="M941.886 730.511C941.886 730.511 392.068 412.086 379.38 404.764L941.886 730.511Z" fill="#FEC810"/>
<path d="M941.886 730.511C941.886 730.511 392.068 412.086 379.38 404.764" stroke="#0A047A" stroke-width="2" stroke-linecap="round" stroke-linejoin="round"/>
<path fill-rule="evenodd" clip-rule="evenodd" d="M865.824 637.167C868.823 638.891 870.918 640.965 872.128 643.218L947.963 599.412L494.705 337.728L425.311 377.791C425.311 377.791 787.168 590.891 865.824 637.167Z" fill="url(#paint0_linear)" stroke="#0A047A" stroke-width="2" stroke-linecap="round" stroke-linejoin="round"/>
<path d="M819.992 663.666C831.028 670.021 850.354 669.315 863 662C875.646 654.685 876.903 643.536 865.824 637.167L425.487 378.102C425.487 378.102 433.516 405.879 406.423 419.945L819.992 663.666Z" fill="#0A047A" stroke="#0A047A" stroke-width="2" stroke-linecap="round" stroke-linejoin="round"/>
<path fill-rule="evenodd" clip-rule="evenodd" d="M114.956 192L302.515 300.305L490.082 192H351.567V192.641C352.245 199.998 347.797 207.504 338.123 213.096C320.04 223.532 290.462 223.539 272.386 213.096C263.349 207.871 258.837 200.987 258.837 194.095V192H114.956Z" fill="#3874FF"/>
<path d="M114.956 192L302.515 300.305L490.082 192M351.567 192V192.641C352.245 199.998 347.797 207.504 338.123 213.096C320.04 223.532 290.462 223.539 272.386 213.096C263.349 207.871 258.837 200.987 258.837 194.095V192" stroke="#0A047A" stroke-width="2" stroke-linecap="round" stroke-linejoin="round"/>
<path d="M407.771 426.543C422.557 426.543 434.543 414.557 434.543 399.771C434.543 384.986 422.557 373 407.771 373C392.986 373 381 384.986 381 399.771C381 414.557 392.986 426.543 407.771 426.543Z" fill="url(#paint1_linear)" stroke="#0A047A" stroke-width="2" stroke-linecap="round" stroke-linejoin="round"/>
<path fill-rule="evenodd" clip-rule="evenodd" d="M302.515 533.964L302.571 448.661L760.01 712.759L686.128 755.437L302.515 533.964Z" fill="url(#paint2_linear)" stroke="#0A047A" stroke-width="2" stroke-linecap="round" stroke-linejoin="round"/>
<path fill-rule="evenodd" clip-rule="evenodd" d="M379.189 404.425L302.572 448.661L755.875 710.371L830.47 667.282C826.568 666.587 822.977 665.385 819.992 663.666L379.189 404.425Z" fill="url(#paint3_linear)" stroke="#0A047A" stroke-width="2" stroke-linecap="round" stroke-linejoin="round"/>
<path d="M460.347 539.775L302.572 448.661L144.754 539.775H460.347Z" fill="url(#paint4_linear)" stroke="#0A047A" stroke-width="2" stroke-linecap="round" stroke-linejoin="round"/>
<path d="M460.333 539.775H144.754V625.636H460.333V539.775Z" fill="#EFEEEA" stroke="#0A047A" stroke-width="2" stroke-linecap="round" stroke-linejoin="round"/>
<path d="M302.55 566.578V598.705H188.729C184.479 598.705 180.402 597.02 177.393 594.02C174.383 591.019 172.685 586.948 172.672 582.698V582.642C172.673 580.534 173.089 578.448 173.897 576.502C174.704 574.555 175.887 572.787 177.379 571.298C178.87 569.809 180.639 568.628 182.587 567.823C184.535 567.018 186.622 566.605 188.729 566.607L302.55 566.578Z" fill="#3874FF" stroke="#0A047A" stroke-width="2" stroke-linecap="round" stroke-linejoin="round"/>
<path d="M432.407 582.614C432.41 584.721 431.997 586.809 431.192 588.757C430.387 590.705 429.205 592.475 427.715 593.966C426.225 595.457 424.456 596.639 422.508 597.445C420.56 598.251 418.473 598.665 416.365 598.663L302.543 598.705V566.578H416.365C418.471 566.577 420.557 566.991 422.504 567.797C424.45 568.602 426.218 569.783 427.708 571.272C429.198 572.761 430.38 574.53 431.186 576.475C431.992 578.421 432.407 580.507 432.407 582.614Z" fill="#FF80ED" stroke="#0A047A" stroke-width="2" stroke-linecap="round" stroke-linejoin="round"/>
<path fill-rule="evenodd" clip-rule="evenodd" d="M302.515 300.305L302.572 448.661L355.088 418.34C352.448 412.913 350.981 406.093 350.981 398.049C350.981 366.798 373.124 328.443 400.188 312.81C427.253 297.177 449.396 309.986 449.396 341.216C449.396 349.261 447.926 357.781 445.282 366.264L494.706 337.728L495.035 337.918L495.03 189.138L302.515 300.305Z" fill="#FF80ED" stroke="#0A047A" stroke-width="2" stroke-linecap="round" stroke-linejoin="round"/>
</g>
<defs>
<linearGradient id="paint0_linear" x1="395.408" y1="379.076" x2="660.46" y2="537.706" gradientUnits="userSpaceOnUse">
<stop stop-color="#1876FF"/>
<stop offset="0.04" stop-color="#2676FE"/>
<stop offset="0.31" stop-color="#7276FA"/>
<stop offset="0.55" stop-color="#AE77F7"/>
<stop offset="0.75" stop-color="#DA77F4"/>
<stop offset="0.91" stop-color="#F577F3"/>
<stop offset="1" stop-color="#FF77F2"/>
</linearGradient>
<linearGradient id="paint1_linear" x1="407.771" y1="373" x2="407.771" y2="426.543" gradientUnits="userSpaceOnUse">
<stop stop-color="#FF80ED"/>
<stop offset="1" stop-color="#FEC810"/>
</linearGradient>
<linearGradient id="paint2_linear" x1="359.39" y1="669.145" x2="554.546" y2="727.348" gradientUnits="userSpaceOnUse">
<stop offset="0.18" stop-color="#0B047F"/>
<stop offset="0.26" stop-color="#0D128F"/>
<stop offset="0.54" stop-color="#1348CB"/>
<stop offset="0.75" stop-color="#1769F1"/>
<stop offset="0.86" stop-color="#1876FF"/>
</linearGradient>
<linearGradient id="paint3_linear" x1="395.408" y1="379.076" x2="660.46" y2="537.706" gradientUnits="userSpaceOnUse">
<stop stop-color="#1876FF"/>
<stop offset="0.04" stop-color="#2676FE"/>
<stop offset="0.31" stop-color="#7276FA"/>
<stop offset="0.55" stop-color="#AE77F7"/>
<stop offset="0.75" stop-color="#DA77F4"/>
<stop offset="0.91" stop-color="#F577F3"/>
<stop offset="1" stop-color="#FF77F2"/>
</linearGradient>
<linearGradient id="paint4_linear" x1="439.977" y1="368.082" x2="253.548" y2="601" gradientUnits="userSpaceOnUse">
<stop offset="0.5" stop-color="#0B047F"/>
<stop offset="0.57" stop-color="#0C0C88"/>
<stop offset="0.69" stop-color="#0F23A2"/>
<stop offset="0.84" stop-color="#1348CB"/>
<stop offset="1" stop-color="#1876FF"/>
</linearGradient>
<clipPath id="clip0">
<rect width="710" height="710" fill="white"/>
</clipPath>
</defs>
</svg>
