<svg xmlns="http://www.w3.org/2000/svg" width="124.23" height="30" viewBox="0 0 124.23 30">
  <path id="line_1" d="M120.615,3.769v7h2.46v3.385h-2.46V20.46a1.633,1.633,0,0,0,1.846,1.846h1.769v4h-3.076a5.623,5.623,0,0,1-3.847-1.231,5.238,5.238,0,0,1-1.538-4.154V14.077h-2.231V10.693h2.231V3.769ZM106.231,26.615a7.125,7.125,0,0,1-7.462-7.538v-.54a9.016,9.016,0,0,1,1.846-5.846,6.574,6.574,0,0,1,5.308-2.231,6.5,6.5,0,0,1,4.923,1.846,7.13,7.13,0,0,1,1.769,5.154V20h-8.846v.077a3.047,3.047,0,0,0,3.154,2.692,7.97,7.97,0,0,0,2.154-.231,11.9,11.9,0,0,0,2.077-.769l1.154,3a9.221,9.221,0,0,1-2.615,1.307A10.514,10.514,0,0,1,106.231,26.615Zm-.385-12.461a1.628,1.628,0,0,0-1.538.769,5.1,5.1,0,0,0-.616,2l.077.077h4.154v-.385a2.711,2.711,0,0,0-.461-1.769,1.867,1.867,0,0,0-1.615-.692ZM90,26.615a7.355,7.355,0,0,1-5.46-2.154,7.635,7.635,0,0,1-2-5.384v-.54a9.015,9.015,0,0,1,1.846-5.846,6.575,6.575,0,0,1,5.308-2.231,6.5,6.5,0,0,1,4.923,1.846,7.345,7.345,0,0,1,1.769,5.154V20H87.54v.077a3.047,3.047,0,0,0,3.154,2.692,7.971,7.971,0,0,0,2.154-.231,11.9,11.9,0,0,0,2.077-.769l1.154,3a9.22,9.22,0,0,1-2.615,1.307A9.911,9.911,0,0,1,90,26.615Zm-.308-12.461a1.629,1.629,0,0,0-1.538.769,5.1,5.1,0,0,0-.616,2l.077.077h4.154v-.385a2.711,2.711,0,0,0-.461-1.769,1.868,1.868,0,0,0-1.615-.692ZM75.308,19.692,77,10.615h4.385l-3.54,15.616H73.768l-2.539-8.308h-.077l-2.539,8.308H64.537l-3.616-15.54h4.462l1.693,9.154h.077l2.46-9.154H72.69ZM54.923,21.846a1.339,1.339,0,0,0-.692-1.077,6.84,6.84,0,0,0-2.384-.846,10.7,10.7,0,0,1-4.077-1.615,3.768,3.768,0,0,1-1.385-3.077,4.72,4.72,0,0,1,1.693-3.54,6.755,6.755,0,0,1,4.615-1.385,7.719,7.719,0,0,1,4.846,1.385,3.946,3.946,0,0,1,1.692,3.616v.077H54.616A1.88,1.88,0,0,0,54.154,14a2.083,2.083,0,0,0-1.462-.461A1.94,1.94,0,0,0,51.385,14a1.247,1.247,0,0,0-.54,1.077,1.325,1.325,0,0,0,.616,1.077,6.521,6.521,0,0,0,2.384.769A10.136,10.136,0,0,1,58,18.537a3.818,3.818,0,0,1,1.385,3.154,4.177,4.177,0,0,1-1.844,3.463,7.873,7.873,0,0,1-4.846,1.385,7.373,7.373,0,0,1-5-1.615A4.277,4.277,0,0,1,46,21.308v-.077h4.385a1.576,1.576,0,0,0,.692,1.538,4,4,0,0,0,1.769.54,2.378,2.378,0,0,0,1.462-.385,1.092,1.092,0,0,0,.613-1.079ZM34,10.615l.154,2.154A5.735,5.735,0,0,1,36,11a4.576,4.576,0,0,1,2.46-.692A4.687,4.687,0,0,1,42,11.769c.846.923,1.307,2.539,1.307,4.693v9.769H38.615V16.538a2.412,2.412,0,0,0-.54-1.846,2.167,2.167,0,0,0-1.615-.54,3.188,3.188,0,0,0-1.231.231,2.1,2.1,0,0,0-.923.692V26.308H29.539V10.693H34ZM26.615,7.693H21.769V3.769h4.846Zm0,18.616H21.769V10.693h4.846Zm-15.461,0V14H8.923V10.615h2.231V9a5.634,5.634,0,0,1,1.538-4.154,5.742,5.742,0,0,1,3.846-1.231h3.077V7.538H17.846A1.88,1.88,0,0,0,16.462,8,1.88,1.88,0,0,0,16,9.385v1.154h3v3.385H16v12.23H11.154ZM1.923,5.077C1.923.385,4.385,0,8.539,0V3.692c-1.923,0-2.692.308-2.692,1.462v6.077c0,1.385.077,2.846-1.077,3.769,1.154.923,1.077,2.308,1.077,3.769v6.077c0,1.231.769,1.462,2.692,1.462V30c-4.154,0-6.616-.385-6.616-5.077V18.769c0-1,0-2.077-1.923-2.077v-3.23c1.923,0,1.923-1.154,1.923-2.077Z"/>
</svg>
