<svg xmlns="http://www.w3.org/2000/svg" xmlns:xlink="http://www.w3.org/1999/xlink" viewBox="0 0 608 110"><defs><style>.cls-1,.cls-2{fill:none;}.cls-1{clip-rule:evenodd;}.cls-3{clip-path:url(#clip-path);}.cls-4{clip-path:url(#clip-path-2);}.cls-5{fill:#15232b;}.cls-6{clip-path:url(#clip-path-3);}.cls-7{fill:#20b573;}.cls-8{clip-path:url(#clip-path-5);}.cls-9{clip-path:url(#clip-path-7);}.cls-10{clip-path:url(#clip-path-9);}.cls-11{fill:#fff;}.cls-12{clip-path:url(#clip-path-11);}.cls-13{clip-path:url(#clip-path-13);}</style><clipPath id="clip-path" transform="translate(5 5)"><path class="cls-1" d="M585.86,88.9,568.62,62l-7.48,7.46V88.9H550.29V10h10.85V56.4L583.25,34h13.12L575.88,54.64,598,88.9ZM523.65,90q-12.25,0-19.09-7.58t-6.83-21q0-13.52,6.83-21t19.09-7.52a26.91,26.91,0,0,1,12.41,2.74,20.22,20.22,0,0,1,8.4,7.91l-6.39,5.82a16.32,16.32,0,0,0-6-5.82,16,16,0,0,0-8-2.09q-7.38,0-11.49,5.27t-4.12,14.72q0,9.33,4.12,14.66t11.49,5.32a16,16,0,0,0,8-2.08,16.32,16.32,0,0,0,6-5.82l6.39,5.82a20.19,20.19,0,0,1-8.4,7.9A26.91,26.91,0,0,1,523.65,90Zm-59.18-8.46a15.42,15.42,0,0,0,9.92-3.24,9.72,9.72,0,0,0,4.07-7.85V63.21H467.83q-6.39,0-9.81,2.47a8.3,8.3,0,0,0-3.41,7.19,8,8,0,0,0,2.65,6.37A10.62,10.62,0,0,0,464.47,81.54ZM462.41,90a20,20,0,0,1-9.49-2.2,16.12,16.12,0,0,1-6.5-6.09,16.85,16.85,0,0,1-2.33-8.84q0-8.36,6.29-12.79t17.89-4.45h10.19V52.88q0-5.49-2.93-8.45c-1.95-2-4.81-3-8.56-3a21.76,21.76,0,0,0-9.11,1.92,17.59,17.59,0,0,0-6.94,5.55l-5.1-6.48a26.07,26.07,0,0,1,9.49-7.08A29.48,29.48,0,0,1,467.4,32.9q10.41,0,16.15,5.1t5.75,14.44V77.92a52.35,52.35,0,0,0,1.3,11h-9.43a26.51,26.51,0,0,1-1.52-7.36h-.22Q473.25,90,462.41,90Zm-35.54,0q-7.59,0-11.87-4.67t-4.28-12.9V42.34H401V34h9.76V20h10.73V34H437v8.35H421.45V71.11c0,3.59.71,6.22,2.12,7.91s3.56,2.52,6.45,2.52a21,21,0,0,0,7.7-1.31l.65,7.79Q434.35,90,426.87,90ZM378,90a24.56,24.56,0,0,1-11.49-2.64,15.24,15.24,0,0,1-7.16-7l6.83-4.73a13,13,0,0,0,5,4.51A14.56,14.56,0,0,0,378,81.76a10.23,10.23,0,0,0,7-2.41,7.79,7.79,0,0,0,2.77-6.15,6.26,6.26,0,0,0-2.17-4.89q-2.18-1.92-8-4.12-9.44-3.61-13.29-7.41a12.65,12.65,0,0,1-3.85-9.39,12.64,12.64,0,0,1,5.15-10.54q5.16-4,13.72-4a22,22,0,0,1,10.08,2.3,17.68,17.68,0,0,1,7.16,6.48l-6.4,4.83a12.12,12.12,0,0,0-4.61-4,13.49,13.49,0,0,0-6.12-1.38,10.2,10.2,0,0,0-6,1.65,5,5,0,0,0-2.33,4.28,5.52,5.52,0,0,0,2.39,4.56q2.39,1.82,9.32,4.56,8.67,3.41,12.2,7.08a13.16,13.16,0,0,1,3.52,9.5,15.52,15.52,0,0,1-5.64,12.52Q387.21,90,378,90ZM273,48.05q0-8.34-.54-14.06H282a92.58,92.58,0,0,1,.43,9.67h.33a16.66,16.66,0,0,1,6.67-7.85,19.17,19.17,0,0,1,10.46-2.91,17.13,17.13,0,0,1,9.87,2.8,13.56,13.56,0,0,1,5.53,7.85,17.65,17.65,0,0,1,6.88-7.8,19.3,19.3,0,0,1,10.36-2.85q9,0,14,5.87t5,16.2V88.9H340.83V56q0-6.81-2.87-10.54a9.71,9.71,0,0,0-8.18-3.74,11.08,11.08,0,0,0-8.84,4,15.43,15.43,0,0,0-3.42,10.38V88.9H306.9V56.4q0-14.71-10.63-14.72a10.94,10.94,0,0,0-6.34,2A14.22,14.22,0,0,0,285.32,49a16,16,0,0,0-1.73,7.36V88.9H273ZM236,47.39q0-9.33-.32-13.4h10.08q.43,4.4.44,9.67v1.1h.32A17.89,17.89,0,0,1,253.42,36a19.57,19.57,0,0,1,11.11-3.13,13.76,13.76,0,0,1,3.14.33V42a17.12,17.12,0,0,0-12.19,2.58,19.2,19.2,0,0,0-6.4,7.58,23.5,23.5,0,0,0-2.33,10.49V88.9H236ZM200.69,81.76a14.31,14.31,0,0,0,11.82-5.43q4.34-5.44,4.34-14.88t-4.34-14.88a14.29,14.29,0,0,0-11.82-5.44q-7.59,0-11.82,5.44t-4.22,14.88q0,9.43,4.22,14.88T200.69,81.76Zm0,8.24q-12.47,0-19.62-7.63t-7.16-20.92q0-13.29,7.16-20.92t19.62-7.63q12.48,0,19.68,7.63t7.21,20.92q0,13.29-7.21,20.92T200.69,90ZM149,41.68h-9V34h9v-6.8q0-7.92,4.66-12.47t12.9-4.56a19.47,19.47,0,0,1,6.56,1.1,13.19,13.19,0,0,1,5,3.08l-3.91,6.59a9.75,9.75,0,0,0-6.72-2.42A7.09,7.09,0,0,0,161.85,21a10.06,10.06,0,0,0-2.12,6.76V34h15.4v7.69h-15.4V88.9H149Z"/></clipPath><clipPath id="clip-path-2" transform="translate(5 5)"><rect class="cls-2" x="-100" y="-250" width="792" height="612"/></clipPath><clipPath id="clip-path-3" transform="translate(5 5)"><path class="cls-2" d="M95,10h7a3,3,0,0,1,3,3V87a3,3,0,0,1-3,3H95Z"/></clipPath><clipPath id="clip-path-5" transform="translate(5 5)"><path class="cls-2" d="M110,20h7a3,3,0,0,1,3,3V77a3,3,0,0,1-3,3h-7Z"/></clipPath><clipPath id="clip-path-7" transform="translate(5 5)"><rect class="cls-2" width="90" height="100" rx="3"/></clipPath><clipPath id="clip-path-9" transform="translate(5 5)"><path class="cls-2" d="M21,16H67.15a1,1,0,0,1,.62,1.78L21.62,54.7A1,1,0,0,1,20,53.92V17A1,1,0,0,1,21,16Z"/></clipPath><clipPath id="clip-path-11" transform="translate(5 5)"><path class="cls-2" d="M20,76V60.56a1,1,0,0,1,.38-.79L33.83,49.21a1.05,1.05,0,0,1,.62-.21H58.89a1,1,0,0,1,1,1,1,1,0,0,1-.43.82L21.57,76.87a1,1,0,0,1-1.39-.26A1,1,0,0,1,20,76Z"/></clipPath><clipPath id="clip-path-13" transform="translate(5 5)"><path class="cls-2" d="M20.43,81.85l14-9.75a1,1,0,0,1,1.57.82V83.08a1,1,0,0,1-1,1H21a1,1,0,0,1-1-1v-.44A1,1,0,0,1,20.43,81.85Z"/></clipPath></defs><g id="Layer_2" data-name="Layer 2"><g id="Layer_1-2" data-name="Layer 1"><g class="cls-3"><g class="cls-4"><rect class="cls-5" x="140" y="10" width="468" height="90"/></g></g><g class="cls-6"><g class="cls-4"><rect class="cls-7" x="95" y="10" width="20" height="90"/></g></g><g class="cls-8"><g class="cls-4"><rect class="cls-7" x="110" y="20" width="20" height="70"/></g></g><g class="cls-9"><g class="cls-4"><rect class="cls-7" width="100" height="110"/></g></g><g class="cls-10"><g class="cls-4"><rect class="cls-11" x="20" y="16" width="58.15" height="48.92"/></g></g><g class="cls-12"><g class="cls-4"><rect class="cls-11" x="20" y="49" width="49.89" height="38.04"/></g></g><g class="cls-13"><g class="cls-4"><rect class="cls-11" x="20" y="71.92" width="26" height="22.16"/></g></g></g></g></svg>